<?xml version="1.0" encoding="UTF-8" standalone="no"?>
<svg
   xmlns:dc="http://purl.org/dc/elements/1.1/"
   xmlns:cc="http://creativecommons.org/ns#"
   xmlns:rdf="http://www.w3.org/1999/02/22-rdf-syntax-ns#"
   xmlns:svg="http://www.w3.org/2000/svg"
   xmlns="http://www.w3.org/2000/svg"
   viewBox="0 0 377.33334 282.66666"
   height="282.66666"
   width="377.33334"
   xml:space="preserve"
   id="svg2"
   version="1.1"><metadata
     id="metadata8"><rdf:RDF><cc:Work
         rdf:about=""><dc:format>image/svg+xml</dc:format><dc:type
           rdf:resource="http://purl.org/dc/dcmitype/StillImage" /></cc:Work></rdf:RDF></metadata><defs
     id="defs6"><clipPath
       id="clipPath34"
       clipPathUnits="userSpaceOnUse"><path
         id="path32"
         d="M 0,0 H 283.46 V 212.6 H 0 Z" /></clipPath><clipPath
       id="clipPath46"
       clipPathUnits="userSpaceOnUse"><path
         id="path44"
         d="m 36.28,16.87 h 241.7 V 207.12 H 36.28 Z" /></clipPath></defs><g
     transform="matrix(1.3333333,0,0,-1.3333333,0,282.66667)"
     id="g10"><g
       id="g12" /><g
       id="g14" /><g
       id="g16" /><g
       id="g18" /><g
       id="g20" /><g
       id="g22" /><g
       id="g24" /><g
       id="g26" /><g
       id="g28"><g
         clip-path="url(#clipPath34)"
         id="g30"><path
           id="path36"
           style="fill:#ffffff;fill-opacity:1;fill-rule:nonzero;stroke:#ffffff;stroke-width:1.07000005;stroke-linecap:round;stroke-linejoin:round;stroke-miterlimit:10;stroke-dasharray:none;stroke-opacity:1"
           d="M 0,0 H 283.46 V 212.6 H 0 Z" /></g></g><g
       id="g38" /><g
       id="g40"><g
         clip-path="url(#clipPath46)"
         id="g42"><path
           id="path48"
           style="fill:#ebebeb;fill-opacity:1;fill-rule:nonzero;stroke:none"
           d="m 36.28,16.87 h 241.7 V 207.12 H 36.28 Z" /><path
           id="path50"
           style="fill:none;stroke:#ffffff;stroke-width:0.52999997;stroke-linecap:butt;stroke-linejoin:round;stroke-miterlimit:10;stroke-dasharray:none;stroke-opacity:1"
           d="M 36.28,47.69 H 277.99" /><path
           id="path52"
           style="fill:none;stroke:#ffffff;stroke-width:0.52999997;stroke-linecap:butt;stroke-linejoin:round;stroke-miterlimit:10;stroke-dasharray:none;stroke-opacity:1"
           d="M 36.28,92.04 H 277.99" /><path
           id="path54"
           style="fill:none;stroke:#ffffff;stroke-width:0.52999997;stroke-linecap:butt;stroke-linejoin:round;stroke-miterlimit:10;stroke-dasharray:none;stroke-opacity:1"
           d="M 36.28,136.39 H 277.99" /><path
           id="path56"
           style="fill:none;stroke:#ffffff;stroke-width:0.52999997;stroke-linecap:butt;stroke-linejoin:round;stroke-miterlimit:10;stroke-dasharray:none;stroke-opacity:1"
           d="M 36.28,180.73 H 277.99" /><path
           id="path58"
           style="fill:none;stroke:#ffffff;stroke-width:0.52999997;stroke-linecap:butt;stroke-linejoin:round;stroke-miterlimit:10;stroke-dasharray:none;stroke-opacity:1"
           d="M 44.46,16.87 V 207.12" /><path
           id="path60"
           style="fill:none;stroke:#ffffff;stroke-width:0.52999997;stroke-linecap:butt;stroke-linejoin:round;stroke-miterlimit:10;stroke-dasharray:none;stroke-opacity:1"
           d="M 134.99,16.87 V 207.12" /><path
           id="path62"
           style="fill:none;stroke:#ffffff;stroke-width:0.52999997;stroke-linecap:butt;stroke-linejoin:round;stroke-miterlimit:10;stroke-dasharray:none;stroke-opacity:1"
           d="M 225.52,16.87 V 207.12" /><path
           id="path64"
           style="fill:none;stroke:#ffffff;stroke-width:1.07000005;stroke-linecap:butt;stroke-linejoin:round;stroke-miterlimit:10;stroke-dasharray:none;stroke-opacity:1"
           d="M 36.28,25.52 H 277.99" /><path
           id="path66"
           style="fill:none;stroke:#ffffff;stroke-width:1.07000005;stroke-linecap:butt;stroke-linejoin:round;stroke-miterlimit:10;stroke-dasharray:none;stroke-opacity:1"
           d="M 36.28,69.87 H 277.99" /><path
           id="path68"
           style="fill:none;stroke:#ffffff;stroke-width:1.07000005;stroke-linecap:butt;stroke-linejoin:round;stroke-miterlimit:10;stroke-dasharray:none;stroke-opacity:1"
           d="M 36.28,114.21 H 277.99" /><path
           id="path70"
           style="fill:none;stroke:#ffffff;stroke-width:1.07000005;stroke-linecap:butt;stroke-linejoin:round;stroke-miterlimit:10;stroke-dasharray:none;stroke-opacity:1"
           d="M 36.28,158.56 H 277.99" /><path
           id="path72"
           style="fill:none;stroke:#ffffff;stroke-width:1.07000005;stroke-linecap:butt;stroke-linejoin:round;stroke-miterlimit:10;stroke-dasharray:none;stroke-opacity:1"
           d="M 36.28,202.91 H 277.99" /><path
           id="path74"
           style="fill:none;stroke:#ffffff;stroke-width:1.07000005;stroke-linecap:butt;stroke-linejoin:round;stroke-miterlimit:10;stroke-dasharray:none;stroke-opacity:1"
           d="M 89.73,16.87 V 207.12" /><path
           id="path76"
           style="fill:none;stroke:#ffffff;stroke-width:1.07000005;stroke-linecap:butt;stroke-linejoin:round;stroke-miterlimit:10;stroke-dasharray:none;stroke-opacity:1"
           d="M 180.26,16.87 V 207.12" /><path
           id="path78"
           style="fill:none;stroke:#ffffff;stroke-width:1.07000005;stroke-linecap:butt;stroke-linejoin:round;stroke-miterlimit:10;stroke-dasharray:none;stroke-opacity:1"
           d="M 270.79,16.87 V 207.12" /><path
           id="path80"
           style="fill:#a52a2a;fill-opacity:1;fill-rule:nonzero;stroke:none"
           d="m 47.27,25.52 h 6.2 v 2.22 h -6.2 z" /><path
           id="path82"
           style="fill:#00008b;fill-opacity:1;fill-rule:nonzero;stroke:none"
           d="m 47.27,27.74 h 6.2 v 4.43 h -6.2 z" /><path
           id="path84"
           style="fill:#a52a2a;fill-opacity:1;fill-rule:nonzero;stroke:none"
           d="m 54.16,25.52 h 6.2 v 26.61 h -6.2 z" /><path
           id="path86"
           style="fill:#00008b;fill-opacity:1;fill-rule:nonzero;stroke:none"
           d="m 54.16,52.13 h 6.2 v 11.09 h -6.2 z" /><path
           id="path88"
           style="fill:#a52a2a;fill-opacity:1;fill-rule:nonzero;stroke:none"
           d="m 61.04,25.52 h 6.2 v 33.26 h -6.2 z" /><path
           id="path90"
           style="fill:#00008b;fill-opacity:1;fill-rule:nonzero;stroke:none"
           d="m 61.04,58.78 h 6.2 v 28.83 h -6.2 z" /><path
           id="path92"
           style="fill:#a52a2a;fill-opacity:1;fill-rule:nonzero;stroke:none"
           d="m 67.93,25.52 h 6.2 v 77.61 h -6.2 z" /><path
           id="path94"
           style="fill:#00008b;fill-opacity:1;fill-rule:nonzero;stroke:none"
           d="m 67.93,103.13 h 6.2 v 57.65 h -6.2 z" /><path
           id="path96"
           style="fill:#a52a2a;fill-opacity:1;fill-rule:nonzero;stroke:none"
           d="m 74.82,25.52 h 6.2 v 33.26 h -6.2 z" /><path
           id="path98"
           style="fill:#00008b;fill-opacity:1;fill-rule:nonzero;stroke:none"
           d="m 74.82,58.78 h 6.2 v 46.56 h -6.2 z" /><path
           id="path100"
           style="fill:#a52a2a;fill-opacity:1;fill-rule:nonzero;stroke:none"
           d="m 81.71,25.52 h 6.2 v 6.65 h -6.2 z" /><path
           id="path102"
           style="fill:#00008b;fill-opacity:1;fill-rule:nonzero;stroke:none"
           d="m 81.71,32.17 h 6.2 v 59.87 h -6.2 z" /><path
           id="path104"
           style="fill:#a52a2a;fill-opacity:1;fill-rule:nonzero;stroke:none"
           d="m 88.6,25.52 h 6.2 v 2.22 h -6.2 z" /><path
           id="path106"
           style="fill:#00008b;fill-opacity:1;fill-rule:nonzero;stroke:none"
           d="m 88.6,27.74 h 6.2 v 108.65 h -6.2 z" /><path
           id="path108"
           style="fill:#a52a2a;fill-opacity:1;fill-rule:nonzero;stroke:none"
           d="m 95.48,25.52 h 6.2 v 24.39 h -6.2 z" /><path
           id="path110"
           style="fill:#00008b;fill-opacity:1;fill-rule:nonzero;stroke:none"
           d="m 95.48,49.91 h 6.2 v 148.56 h -6.2 z" /><path
           id="path112"
           style="fill:#a52a2a;fill-opacity:1;fill-rule:nonzero;stroke:none"
           d="m 102.37,25.52 h 6.2 v 11.09 h -6.2 z" /><path
           id="path114"
           style="fill:#00008b;fill-opacity:1;fill-rule:nonzero;stroke:none"
           d="m 102.37,36.61 h 6.2 v 70.95 h -6.2 z" /><path
           id="path116"
           style="fill:#a52a2a;fill-opacity:1;fill-rule:nonzero;stroke:none"
           d="m 109.26,25.52 h 6.2 v 2.22 h -6.2 z" /><path
           id="path118"
           style="fill:#00008b;fill-opacity:1;fill-rule:nonzero;stroke:none"
           d="m 109.26,27.74 h 6.2 v 66.52 h -6.2 z" /><path
           id="path120"
           style="fill:#a52a2a;fill-opacity:1;fill-rule:nonzero;stroke:none"
           d="m 116.15,25.52 h 6.2 v 0 z" /><path
           id="path122"
           style="fill:#00008b;fill-opacity:1;fill-rule:nonzero;stroke:none"
           d="m 116.15,25.52 h 6.2 v 168.52 h -6.2 z" /><path
           id="path124"
           style="fill:#a52a2a;fill-opacity:1;fill-rule:nonzero;stroke:none"
           d="m 123.04,25.52 h 6.2 v 0 z" /><path
           id="path126"
           style="fill:#00008b;fill-opacity:1;fill-rule:nonzero;stroke:none"
           d="m 123.04,25.52 h 6.2 v 102 h -6.2 z" /><path
           id="path128"
           style="fill:#a52a2a;fill-opacity:1;fill-rule:nonzero;stroke:none"
           d="m 129.92,25.52 h 6.2 v 0 z" /><path
           id="path130"
           style="fill:#00008b;fill-opacity:1;fill-rule:nonzero;stroke:none"
           d="m 129.92,25.52 h 6.2 v 57.65 h -6.2 z" /><path
           id="path132"
           style="fill:#a52a2a;fill-opacity:1;fill-rule:nonzero;stroke:none"
           d="m 136.81,25.52 h 6.2 v 0 z" /><path
           id="path134"
           style="fill:#00008b;fill-opacity:1;fill-rule:nonzero;stroke:none"
           d="m 136.81,25.52 h 6.2 v 44.35 h -6.2 z" /><path
           id="path136"
           style="fill:#a52a2a;fill-opacity:1;fill-rule:nonzero;stroke:none"
           d="m 143.7,25.52 h 6.2 v 2.22 h -6.2 z" /><path
           id="path138"
           style="fill:#00008b;fill-opacity:1;fill-rule:nonzero;stroke:none"
           d="m 143.7,27.74 h 6.2 v 57.65 h -6.2 z" /><path
           id="path140"
           style="fill:#a52a2a;fill-opacity:1;fill-rule:nonzero;stroke:none"
           d="m 150.59,25.52 h 6.2 v 2.22 h -6.2 z" /><path
           id="path142"
           style="fill:#00008b;fill-opacity:1;fill-rule:nonzero;stroke:none"
           d="m 150.59,27.74 h 6.2 v 48.78 h -6.2 z" /><path
           id="path144"
           style="fill:#a52a2a;fill-opacity:1;fill-rule:nonzero;stroke:none"
           d="m 157.48,25.52 h 6.2 v 0 z" /><path
           id="path146"
           style="fill:#00008b;fill-opacity:1;fill-rule:nonzero;stroke:none"
           d="m 157.48,25.52 h 6.2 v 24.39 h -6.2 z" /><path
           id="path148"
           style="fill:#a52a2a;fill-opacity:1;fill-rule:nonzero;stroke:none"
           d="m 164.37,25.52 h 6.2 v 0 z" /><path
           id="path150"
           style="fill:#00008b;fill-opacity:1;fill-rule:nonzero;stroke:none"
           d="m 164.37,25.52 h 6.2 v 51 h -6.2 z" /><path
           id="path152"
           style="fill:#a52a2a;fill-opacity:1;fill-rule:nonzero;stroke:none"
           d="m 171.25,25.52 h 6.2 v 0 z" /><path
           id="path154"
           style="fill:#00008b;fill-opacity:1;fill-rule:nonzero;stroke:none"
           d="m 171.25,25.52 h 6.2 v 15.52 h -6.2 z" /><path
           id="path156"
           style="fill:#a52a2a;fill-opacity:1;fill-rule:nonzero;stroke:none"
           d="m 178.14,25.52 h 6.2 v 0 z" /><path
           id="path158"
           style="fill:#00008b;fill-opacity:1;fill-rule:nonzero;stroke:none"
           d="m 178.14,25.52 h 6.2 v 8.87 h -6.2 z" /><path
           id="path160"
           style="fill:#a52a2a;fill-opacity:1;fill-rule:nonzero;stroke:none"
           d="m 185.03,25.52 h 6.2 v 0 z" /><path
           id="path162"
           style="fill:#00008b;fill-opacity:1;fill-rule:nonzero;stroke:none"
           d="m 185.03,25.52 h 6.2 v 8.87 h -6.2 z" /><path
           id="path164"
           style="fill:#a52a2a;fill-opacity:1;fill-rule:nonzero;stroke:none"
           d="m 191.92,25.52 h 6.2 v 0 z" /><path
           id="path166"
           style="fill:#00008b;fill-opacity:1;fill-rule:nonzero;stroke:none"
           d="m 191.92,25.52 h 6.2 v 39.91 h -6.2 z" /><path
           id="path168"
           style="fill:#a52a2a;fill-opacity:1;fill-rule:nonzero;stroke:none"
           d="m 198.81,25.52 h 6.2 v 0 z" /><path
           id="path170"
           style="fill:#00008b;fill-opacity:1;fill-rule:nonzero;stroke:none"
           d="m 198.81,25.52 h 6.2 v 13.3 h -6.2 z" /><path
           id="path172"
           style="fill:#a52a2a;fill-opacity:1;fill-rule:nonzero;stroke:none"
           d="m 205.69,25.52 h 6.2 v 0 z" /><path
           id="path174"
           style="fill:#00008b;fill-opacity:1;fill-rule:nonzero;stroke:none"
           d="m 205.69,25.52 h 6.2 v 8.87 h -6.2 z" /><path
           id="path176"
           style="fill:#a52a2a;fill-opacity:1;fill-rule:nonzero;stroke:none"
           d="m 212.58,25.52 h 6.2 v 0 z" /><path
           id="path178"
           style="fill:#00008b;fill-opacity:1;fill-rule:nonzero;stroke:none"
           d="m 212.58,25.52 h 6.2 v 6.65 h -6.2 z" /><path
           id="path180"
           style="fill:#a52a2a;fill-opacity:1;fill-rule:nonzero;stroke:none"
           d="m 219.47,25.52 h 6.2 v 0 z" /><path
           id="path182"
           style="fill:#00008b;fill-opacity:1;fill-rule:nonzero;stroke:none"
           d="m 219.47,25.52 h 6.2 v 6.65 h -6.2 z" /><path
           id="path184"
           style="fill:#a52a2a;fill-opacity:1;fill-rule:nonzero;stroke:none"
           d="m 226.36,25.52 h 6.2 v 0 z" /><path
           id="path186"
           style="fill:#00008b;fill-opacity:1;fill-rule:nonzero;stroke:none"
           d="m 226.36,25.52 h 6.2 v 6.65 h -6.2 z" /><path
           id="path188"
           style="fill:#a52a2a;fill-opacity:1;fill-rule:nonzero;stroke:none"
           d="m 233.25,25.52 h 6.2 v 0 z" /><path
           id="path190"
           style="fill:#00008b;fill-opacity:1;fill-rule:nonzero;stroke:none"
           d="m 233.25,25.52 h 6.2 v 2.22 h -6.2 z" /><path
           id="path192"
           style="fill:#a52a2a;fill-opacity:1;fill-rule:nonzero;stroke:none"
           d="m 247.02,25.52 h 6.2 v 0 z" /><path
           id="path194"
           style="fill:#00008b;fill-opacity:1;fill-rule:nonzero;stroke:none"
           d="m 247.02,25.52 h 6.2 v 6.65 h -6.2 z" /><path
           id="path196"
           style="fill:#a52a2a;fill-opacity:1;fill-rule:nonzero;stroke:none"
           d="m 260.8,25.52 h 6.2 v 0 z" /><path
           id="path198"
           style="fill:#00008b;fill-opacity:1;fill-rule:nonzero;stroke:none"
           d="m 260.8,25.52 h 6.2 v 4.43 h -6.2 z" /></g></g><g
       id="g200" /><g
       id="g202" /><g
       id="g204" /><g
       id="g206" /><g
       id="g208" /><g
       id="g210" /><g
       id="g212" /><g
       id="g214" /><g
       id="g216" /><g
       id="g218" /><g
       id="g220" /><g
       id="g222" /><g
       id="g224" /><g
       id="g226" /><g
       id="g228" /><g
       id="g230"><g
         id="text234"
         style="font-variant:normal;font-weight:normal;font-size:9px;font-family:Helvetica;-inkscape-font-specification:Helvetica;writing-mode:lr-tb;fill:#4d4d4d;fill-opacity:1;fill-rule:nonzero;stroke:none"
         transform="matrix(1,0,0,-1,26.34,22.29)"
         aria-label="0"><path
           id="path410"
           style=""
           d="m 2.4345703,-6.2929687 q 1.2216797,0 1.7666016,1.0063476 0.421875,0.777832 0.421875,2.1313477 0,1.2832031 -0.3823242,2.1225586 -0.553711,1.20410152 -1.8105469,1.20410152 -1.1337891,0 -1.68750002,-0.984375 Q 0.28125,-1.6347656 0.28125,-3.019043 q 0,-1.0722656 0.27685547,-1.8413086 0.51855473,-1.4326171 1.87646483,-1.4326171 z m -0.00879,5.74365229 q 0.6152343,0 0.9799804,-0.54492189 0.3647461,-0.5449219 0.3647461,-2.0302734 0,-1.0722656 -0.2636719,-1.762207 -0.2636718,-0.694336 -1.0239257,-0.694336 -0.6987305,0 -1.0239258,0.6591797 -0.3208008,0.6547852 -0.3208008,1.9335937 0,0.9624024 0.206543,1.5468751 0.3164062,0.89208979 1.0810547,0.89208979 z" /></g><g
         id="text238"
         style="font-variant:normal;font-weight:normal;font-size:9px;font-family:Helvetica;-inkscape-font-specification:Helvetica;writing-mode:lr-tb;fill:#4d4d4d;fill-opacity:1;fill-rule:nonzero;stroke:none"
         transform="matrix(1,0,0,-1,21.34,66.64)"
         aria-label="20"><path
           id="path413"
           style=""
           d="m 0.28125,0 q 0.0439453,-0.81298828 0.33398437,-1.4150391 0.2944336,-0.6020507 1.14257813,-1.0942382 l 0.84375,-0.487793 q 0.5668945,-0.3295899 0.7954102,-0.5625 0.3603515,-0.3647461 0.3603515,-0.8349609 0,-0.5493165 -0.3295898,-0.8701172 -0.3295899,-0.3251953 -0.8789063,-0.3251953 -0.8129883,0 -1.125,0.6152343 -0.1669922,0.3295899 -0.1845703,0.9140625 H 0.43505859 q 0.0131836,-0.8217773 0.30322266,-1.340332 0.51416015,-0.9140625 1.81494145,-0.9140625 1.0810546,0 1.5776367,0.5844727 0.5009765,0.5844726 0.5009765,1.3007812 0,0.7558594 -0.5317382,1.2919922 -0.3076172,0.3120117 -1.1030274,0.7558594 l -0.6020508,0.3339843 q -0.430664,0.2373047 -0.6767578,0.4526368 -0.4394531,0.3823242 -0.5537109,0.84814449 H 4.6010742 V 0 Z" /><path
           id="path415"
           style=""
           d="m 7.4385705,-6.2929687 q 1.2216797,0 1.7666016,1.0063476 0.421875,0.777832 0.421875,2.1313477 0,1.2832031 -0.3823243,2.1225586 -0.5537109,1.20410152 -1.8105468,1.20410152 -1.1337891,0 -1.6875,-0.984375 Q 5.2852502,-1.6347656 5.2852502,-3.019043 q 0,-1.0722656 0.2768555,-1.8413086 0.5185546,-1.4326171 1.8764648,-1.4326171 z m -0.00879,5.74365229 q 0.6152344,0 0.9799805,-0.54492189 0.3647461,-0.5449219 0.3647461,-2.0302734 0,-1.0722656 -0.2636719,-1.762207 -0.2636719,-0.694336 -1.0239258,-0.694336 -0.6987304,0 -1.0239257,0.6591797 -0.3208008,0.6547852 -0.3208008,1.9335937 0,0.9624024 0.2065429,1.5468751 0.3164063,0.89208979 1.0810547,0.89208979 z" /></g><g
         id="text242"
         style="font-variant:normal;font-weight:normal;font-size:9px;font-family:Helvetica;-inkscape-font-specification:Helvetica;writing-mode:lr-tb;fill:#4d4d4d;fill-opacity:1;fill-rule:nonzero;stroke:none"
         transform="matrix(1,0,0,-1,21.34,110.98)"
         aria-label="40"><path
           id="path418"
           style=""
           d="M 2.9750977,-2.2280273 V -5.0800781 L 0.95800781,-2.2280273 Z M 2.9882813,0 V -1.5380859 H 0.22851563 V -2.3115234 L 3.1113281,-6.3105469 h 0.6679688 v 4.0825196 H 4.706543 v 0.6899414 H 3.7792969 V 0 Z" /><path
           id="path420"
           style=""
           d="m 7.4385705,-6.2929687 q 1.2216797,0 1.7666016,1.0063476 0.421875,0.777832 0.421875,2.1313477 0,1.2832031 -0.3823243,2.1225586 -0.5537109,1.20410152 -1.8105468,1.20410152 -1.1337891,0 -1.6875,-0.984375 Q 5.2852502,-1.6347656 5.2852502,-3.019043 q 0,-1.0722656 0.2768555,-1.8413086 0.5185546,-1.4326171 1.8764648,-1.4326171 z m -0.00879,5.74365229 q 0.6152344,0 0.9799805,-0.54492189 0.3647461,-0.5449219 0.3647461,-2.0302734 0,-1.0722656 -0.2636719,-1.762207 -0.2636719,-0.694336 -1.0239258,-0.694336 -0.6987304,0 -1.0239257,0.6591797 -0.3208008,0.6547852 -0.3208008,1.9335937 0,0.9624024 0.2065429,1.5468751 0.3164063,0.89208979 1.0810547,0.89208979 z" /></g><g
         id="text246"
         style="font-variant:normal;font-weight:normal;font-size:9px;font-family:Helvetica;-inkscape-font-specification:Helvetica;writing-mode:lr-tb;fill:#4d4d4d;fill-opacity:1;fill-rule:nonzero;stroke:none"
         transform="matrix(1,0,0,-1,21.34,155.33)"
         aria-label="60"><path
           id="path423"
           style=""
           d="m 2.6323242,-6.3193359 q 1.0546875,0 1.4677735,0.5493164 0.4174804,0.5449218 0.4174804,1.125 H 3.7353516 Q 3.6650391,-5.0185547 3.5112305,-5.2294922 3.2255859,-5.625 2.6455078,-5.625 q -0.6635742,0 -1.0546875,0.6152344 -0.3911133,0.6108398 -0.4350586,1.7534179 0.272461,-0.3999023 0.6855469,-0.5976562 0.3779297,-0.1757813 0.84375,-0.1757813 0.7910156,0 1.3798828,0.5053711 0.5888672,0.5053711 0.5888672,1.5073243 0,0.8569336 -0.5581055,1.52050777 -0.5581054,0.65917969 -1.5908203,0.65917969 -0.8833008,0 -1.52490233,-0.66796875 -0.64160156,-0.67236331 -0.64160156,-2.25878911 0,-1.1733398 0.28564453,-1.9907226 0.54931636,-1.5644531 2.00830076,-1.5644531 z m -0.057129,5.77880856 q 0.6240235,0 0.9316406,-0.41748047 0.3120118,-0.42187499 0.3120118,-0.99316409 0,-0.4833984 -0.2768555,-0.918457 -0.2768555,-0.4394531 -1.0063477,-0.4394531 -0.5097656,0 -0.8964843,0.3383789 -0.3823243,0.3383789 -0.3823243,1.0195312 0,0.5976563 0.347168,1.00634768 0.3515625,0.40429688 0.9711914,0.40429688 z" /><path
           id="path425"
           style=""
           d="m 7.4385705,-6.2929687 q 1.2216797,0 1.7666016,1.0063476 0.421875,0.777832 0.421875,2.1313477 0,1.2832031 -0.3823243,2.1225586 -0.5537109,1.20410152 -1.8105468,1.20410152 -1.1337891,0 -1.6875,-0.984375 Q 5.2852502,-1.6347656 5.2852502,-3.019043 q 0,-1.0722656 0.2768555,-1.8413086 0.5185546,-1.4326171 1.8764648,-1.4326171 z m -0.00879,5.74365229 q 0.6152344,0 0.9799805,-0.54492189 0.3647461,-0.5449219 0.3647461,-2.0302734 0,-1.0722656 -0.2636719,-1.762207 -0.2636719,-0.694336 -1.0239258,-0.694336 -0.6987304,0 -1.0239257,0.6591797 -0.3208008,0.6547852 -0.3208008,1.9335937 0,0.9624024 0.2065429,1.5468751 0.3164063,0.89208979 1.0810547,0.89208979 z" /></g><g
         id="text250"
         style="font-variant:normal;font-weight:normal;font-size:9px;font-family:Helvetica;-inkscape-font-specification:Helvetica;writing-mode:lr-tb;fill:#4d4d4d;fill-opacity:1;fill-rule:nonzero;stroke:none"
         transform="matrix(1,0,0,-1,21.34,199.68)"
         aria-label="80"><path
           id="path428"
           style=""
           d="m 2.4477539,-3.65625 q 0.5229492,0 0.8173828,-0.2900391 0.2944336,-0.2944336 0.2944336,-0.6987304 0,-0.3515625 -0.28125,-0.6459961 -0.28125,-0.2944336 -0.8569336,-0.2944336 -0.571289,0 -0.8261719,0.2944336 -0.2548828,0.2944336 -0.2548828,0.6899414 0,0.4438476 0.3295899,0.6943359 0.3295898,0.2504883 0.777832,0.2504883 z m 0.04834,3.11572266 q 0.5493164,0 0.9096679,-0.2944336 0.3647461,-0.29882816 0.3647461,-0.88769526 0,-0.6108399 -0.3735351,-0.9272461 -0.3735352,-0.3164063 -0.9580079,-0.3164063 -0.5668945,0 -0.9272461,0.3251953 -0.355957,0.3208008 -0.355957,0.8920899 0,0.4921875 0.3251953,0.85253902 0.3295899,0.35595704 1.0151368,0.35595704 z M 1.3710937,-3.3530273 Q 1.0415039,-3.4936523 0.85693359,-3.6826172 0.50976562,-4.0341797 0.50976562,-4.5966797 q 0,-0.703125 0.50976558,-1.2084961 0.5097657,-0.5053711 1.4458008,-0.5053711 0.9052735,0 1.4194336,0.4790039 0.5141602,0.4746094 0.5141602,1.1118164 0,0.5888672 -0.2988281,0.9536133 -0.1669922,0.206543 -0.5185547,0.4042969 0.3911133,0.1801758 0.6152343,0.4130859 0.4174805,0.4394532 0.4174805,1.1425782 0,0.83056636 -0.5581055,1.41064449 -0.5581054,0.57568359 -1.5776367,0.57568359 -0.918457,0 -1.55566404,-0.49658203 -0.6328125,-0.50097656 -0.6328125,-1.45019535 0,-0.5581054 0.27246094,-0.9624023 0.27246094,-0.4086914 0.8085937,-0.6240234 z" /><path
           id="path430"
           style=""
           d="m 7.4385705,-6.2929687 q 1.2216797,0 1.7666016,1.0063476 0.421875,0.777832 0.421875,2.1313477 0,1.2832031 -0.3823243,2.1225586 -0.5537109,1.20410152 -1.8105468,1.20410152 -1.1337891,0 -1.6875,-0.984375 Q 5.2852502,-1.6347656 5.2852502,-3.019043 q 0,-1.0722656 0.2768555,-1.8413086 0.5185546,-1.4326171 1.8764648,-1.4326171 z m -0.00879,5.74365229 q 0.6152344,0 0.9799805,-0.54492189 0.3647461,-0.5449219 0.3647461,-2.0302734 0,-1.0722656 -0.2636719,-1.762207 -0.2636719,-0.694336 -1.0239258,-0.694336 -0.6987304,0 -1.0239257,0.6591797 -0.3208008,0.6547852 -0.3208008,1.9335937 0,0.9624024 0.2065429,1.5468751 0.3164063,0.89208979 1.0810547,0.89208979 z" /></g></g><g
       id="g252" /><g
       id="g254"><path
         id="path256"
         style="fill:none;stroke:#333333;stroke-width:1.07000005;stroke-linecap:butt;stroke-linejoin:round;stroke-miterlimit:10;stroke-dasharray:none;stroke-opacity:1"
         d="m 33.54,25.52 h 2.74" /><path
         id="path258"
         style="fill:none;stroke:#333333;stroke-width:1.07000005;stroke-linecap:butt;stroke-linejoin:round;stroke-miterlimit:10;stroke-dasharray:none;stroke-opacity:1"
         d="m 33.54,69.87 h 2.74" /><path
         id="path260"
         style="fill:none;stroke:#333333;stroke-width:1.07000005;stroke-linecap:butt;stroke-linejoin:round;stroke-miterlimit:10;stroke-dasharray:none;stroke-opacity:1"
         d="m 33.54,114.21 h 2.74" /><path
         id="path262"
         style="fill:none;stroke:#333333;stroke-width:1.07000005;stroke-linecap:butt;stroke-linejoin:round;stroke-miterlimit:10;stroke-dasharray:none;stroke-opacity:1"
         d="m 33.54,158.56 h 2.74" /><path
         id="path264"
         style="fill:none;stroke:#333333;stroke-width:1.07000005;stroke-linecap:butt;stroke-linejoin:round;stroke-miterlimit:10;stroke-dasharray:none;stroke-opacity:1"
         d="m 33.54,202.91 h 2.74" /></g><g
       id="g266" /><g
       id="g268" /><g
       id="g270" /><g
       id="g272" /><g
       id="g274" /><g
       id="g276" /><g
       id="g278" /><g
       id="g280" /><g
       id="g282" /><g
       id="g284"><path
         id="path286"
         style="fill:none;stroke:#333333;stroke-width:1.07000005;stroke-linecap:butt;stroke-linejoin:round;stroke-miterlimit:10;stroke-dasharray:none;stroke-opacity:1"
         d="m 89.73,14.13 v 2.74" /><path
         id="path288"
         style="fill:none;stroke:#333333;stroke-width:1.07000005;stroke-linecap:butt;stroke-linejoin:round;stroke-miterlimit:10;stroke-dasharray:none;stroke-opacity:1"
         d="m 180.26,14.13 v 2.74" /><path
         id="path290"
         style="fill:none;stroke:#333333;stroke-width:1.07000005;stroke-linecap:butt;stroke-linejoin:round;stroke-miterlimit:10;stroke-dasharray:none;stroke-opacity:1"
         d="m 270.79,14.13 v 2.74" /></g><g
       id="g292" /><g
       id="g294"><g
         id="text298"
         style="font-variant:normal;font-weight:normal;font-size:9px;font-family:Helvetica;-inkscape-font-specification:Helvetica;writing-mode:lr-tb;fill:#4d4d4d;fill-opacity:1;fill-rule:nonzero;stroke:none"
         transform="matrix(1,0,0,-1,77.81,5.48)"
         aria-label="Jul 14"><path
           id="path433"
           style=""
           d="m 3.8540039,-1.9248047 q 0,0.8173828 -0.2416992,1.27001954 -0.4482422,0.82617188 -1.7050781,0.82617188 -0.7250977,0 -1.23925785,-0.39111328 Q 0.15380859,-0.61523437 0.15380859,-1.621582 v -0.4614258 h 0.82177735 v 0.4614258 q 0,0.5273437 0.23291016,0.79541012 Q 1.4458008,-0.5625 1.9423828,-0.5625 q 0.6987305,0 0.9140625,-0.4790039 0.131836,-0.2944336 0.131836,-1.1118164 v -4.3022461 h 0.8657226 z" /><path
           id="path435"
           style=""
           d="m 5.6910939,-4.706543 v 3.1245118 q 0,0.3603515 0.1142578,0.58886714 0.2109375,0.421875 0.7866211,0.421875 0.8261719,0 1.125,-0.73828124 0.1625977,-0.3955078 0.1625977,-1.0854492 V -4.706543 H 8.6705861 V 0 H 7.9235158 l 0.00879,-0.69433594 q -0.1538086,0.26806641 -0.3823243,0.45263672 -0.4526367,0.36914063 -1.0986328,0.36914063 -1.0063476,0 -1.3710937,-0.67236328 Q 4.8825002,-0.90527344 4.8825002,-1.5073242 V -4.706543 Z m 1.0854492,-0.1142578 z" /><path
           id="path437"
           style=""
           d="M 9.9260511,-6.4555664 H 10.717067 V 0 H 9.9260511 Z" /><path
           id="path439"
           style=""
           d="M 14.685328,-4.4560547 V -5.0625 q 0.856934,-0.083496 1.195313,-0.2768555 0.338379,-0.1977539 0.505371,-0.9272461 h 0.624024 V 0 h -0.84375 v -4.4560547 z" /><path
           id="path441"
           style=""
           d="m 21.803097,-2.2280273 v -2.8520508 l -2.01709,2.8520508 z M 21.81628,0 v -1.5380859 h -2.759765 v -0.7734375 l 2.882812,-3.9990235 h 0.667969 v 4.0825196 h 0.927246 v 0.6899414 H 22.607296 V 0 Z" /></g><g
         id="text302"
         style="font-variant:normal;font-weight:normal;font-size:9px;font-family:Helvetica;-inkscape-font-specification:Helvetica;writing-mode:lr-tb;fill:#4d4d4d;fill-opacity:1;fill-rule:nonzero;stroke:none"
         transform="matrix(1,0,0,-1,167,5.48)"
         aria-label="Oct 14"><path
           id="path444"
           style=""
           d="m 3.4716797,-6.6313477 q 1.7094726,0 2.53125,1.0986329 0.6416015,0.8569336 0.6416015,2.192871 0,1.4458008 -0.7338867,2.40380864 -0.8613281,1.125 -2.4565429,1.125 -1.4897461,0 -2.3422852,-0.984375 -0.7602539,-0.94921874 -0.7602539,-2.39941404 0,-1.3095703 0.6503906,-2.241211 0.834961,-1.1953125 2.4697266,-1.1953125 z m 0.087891,6.03808598 q 1.1557617,0 1.6699219,-0.82617188 Q 5.7480469,-2.25 5.7480469,-3.3266602 q 0,-1.1381835 -0.5976563,-1.8325195 -0.5932617,-0.6943359 -1.6259765,-0.6943359 -1.0019532,0 -1.6347657,0.6899414 -0.6328125,0.6855469 -0.6328125,2.0258789 0,1.0722656 0.5405274,1.8105469 0.5449219,0.73388668 1.762207,0.73388668 z M 3.4980469,-6.6313477 Z" /><path
           id="path446"
           style=""
           d="m 9.3970194,-4.8427734 q 0.7954106,0 1.2919926,0.3867187 0.500976,0.3867188 0.60205,1.331543 h -0.769043 q -0.07031,-0.4350586 -0.3208,-0.7207031 -0.2504887,-0.2900391 -0.8041996,-0.2900391 -0.7558594,0 -1.0810547,0.7382812 -0.2109375,0.4790039 -0.2109375,1.1821289 0,0.7075196 0.2988281,1.190918 0.2988281,0.48339846 0.9404297,0.48339846 0.4921875,0 0.777832,-0.29882813 0.290039,-0.30322263 0.399902,-0.82617183 h 0.769043 q -0.131836,0.93603511 -0.659179,1.37109371 -0.527344,0.43066406 -1.3491214,0.43066406 -0.9228516,0 -1.472168,-0.67236328 -0.5493164,-0.67675779 -0.5493164,-1.68749999 0,-1.2392578 0.6020508,-1.9291992 0.6020508,-0.6899414 1.5336914,-0.6899414 z m -0.1230469,0.021973 z" /><path
           id="path448"
           style=""
           d="m 12.240281,-6.0205078 h 0.799805 v 1.3139648 h 0.751465 v 0.6459961 h -0.751465 v 3.07177737 q 0,0.24609375 0.166992,0.32958984 0.09229,0.0483398 0.307617,0.0483398 0.05713,0 0.123047,0 0.06592,-0.004395 0.153809,-0.0131836 V 0 Q 13.65532,0.03955078 13.505906,0.05712891 13.360887,0.07470703 13.1895,0.07470703 q -0.553711,0 -0.751465,-0.28125 -0.197754,-0.28564453 -0.197754,-0.73828125 V -4.0605469 H 11.603074 V -4.706543 h 0.637207 z" /><path
           id="path450"
           style=""
           d="M 17.367329,-4.4560547 V -5.0625 q 0.856933,-0.083496 1.195312,-0.2768555 0.338379,-0.1977539 0.505371,-0.9272461 h 0.624024 V 0 h -0.84375 v -4.4560547 z" /><path
           id="path452"
           style=""
           d="m 24.485098,-2.2280273 v -2.8520508 l -2.01709,2.8520508 z M 24.498281,0 v -1.5380859 h -2.759765 v -0.7734375 l 2.882812,-3.9990235 h 0.667969 v 4.0825196 h 0.927246 v 0.6899414 H 25.289297 V 0 Z" /></g><g
         id="text306"
         style="font-variant:normal;font-weight:normal;font-size:9px;font-family:Helvetica;-inkscape-font-specification:Helvetica;writing-mode:lr-tb;fill:#4d4d4d;fill-opacity:1;fill-rule:nonzero;stroke:none"
         transform="matrix(1,0,0,-1,257.37,5.48)"
         aria-label="Jan 15"><path
           id="path455"
           style=""
           d="m 3.8540039,-1.9248047 q 0,0.8173828 -0.2416992,1.27001954 -0.4482422,0.82617188 -1.7050781,0.82617188 -0.7250977,0 -1.23925785,-0.39111328 Q 0.15380859,-0.61523437 0.15380859,-1.621582 v -0.4614258 h 0.82177735 v 0.4614258 q 0,0.5273437 0.23291016,0.79541012 Q 1.4458008,-0.5625 1.9423828,-0.5625 q 0.6987305,0 0.9140625,-0.4790039 0.131836,-0.2944336 0.131836,-1.1118164 v -4.3022461 h 0.8657226 z" /><path
           id="path457"
           style=""
           d="m 5.5065236,-1.2524414 q 0,0.34277343 0.2504883,0.54052734 0.2504883,0.1977539 0.5932617,0.1977539 0.4174805,0 0.8085938,-0.19335937 Q 7.818047,-1.0283203 7.818047,-1.7578125 v -0.637207 q -0.1450195,0.092285 -0.3735351,0.1538086 -0.2285156,0.061523 -0.4482422,0.087891 l -0.4790039,0.061523 q -0.4306641,0.057129 -0.6459961,0.1801758 -0.3647461,0.206543 -0.3647461,0.6591797 z m 1.9160156,-1.5996094 q 0.272461,-0.035156 0.3647461,-0.2285156 0.052734,-0.1054688 0.052734,-0.3032227 0,-0.4042968 -0.2900391,-0.5844726 -0.2856445,-0.1845703 -0.8217773,-0.1845703 -0.6196289,0 -0.8789063,0.3339843 -0.1450195,0.1845704 -0.1889648,0.5493164 H 4.922051 q 0.021973,-0.8701171 0.5625,-1.208496 0.5449218,-0.3427735 1.2612304,-0.3427735 0.8305664,0 1.3491211,0.3164063 0.5141602,0.3164062 0.5141602,0.984375 v 2.71142575 q 0,0.12304688 0.04834,0.19775391 0.052734,0.074707 0.215332,0.074707 0.052734,0 0.1186524,-0.004395 0.065918,-0.008789 0.140625,-0.0219727 v 0.58447266 q -0.1845703,0.05273437 -0.28125,0.06591796 -0.09668,0.0131836 -0.2636719,0.0131836 -0.4086914,0 -0.5932617,-0.29003906 -0.09668,-0.1538086 -0.1362305,-0.4350586 -0.2416992,0.31640625 -0.6943359,0.54931641 -0.4526367,0.23291015 -0.9975586,0.23291015 -0.6547852,0 -1.0722656,-0.39550781 -0.413086,-0.39990234 -0.413086,-0.99755861 0,-0.6547851 0.4086914,-1.0151367 0.4086914,-0.3603516 1.0722657,-0.4438477 z m -0.6547851,-1.96875 z" /><path
           id="path459"
           style=""
           d="m 9.9040785,-4.706543 h 0.7514645 v 0.6679688 q 0.333985,-0.413086 0.70752,-0.5932617 0.373535,-0.1801758 0.830566,-0.1801758 1.001953,0 1.353516,0.6987305 0.193359,0.3823242 0.193359,1.0942382 V 0 h -0.804199 v -2.9663086 q 0,-0.4306641 -0.127441,-0.6943359 -0.210938,-0.4394532 -0.764649,-0.4394532 -0.28125,0 -0.461426,0.057129 -0.325195,0.09668 -0.571289,0.3867187 -0.197754,0.2329102 -0.259277,0.4833984 -0.05713,0.2460938 -0.05713,0.7075196 V 0 H 9.9040785 Z m 1.8588865,-0.1142578 z" /><path
           id="path461"
           style=""
           d="M 17.691328,-4.4560547 V -5.0625 q 0.856934,-0.083496 1.195313,-0.2768555 0.338378,-0.1977539 0.505371,-0.9272461 h 0.624023 V 0 h -0.84375 v -4.4560547 z" /><path
           id="path463"
           style=""
           d="m 22.945816,-1.6040039 q 0.0791,0.67675781 0.628418,0.93603515 0.28125,0.13183594 0.650391,0.13183594 0.703125,0 1.041504,-0.44824219 0.338378,-0.4482422 0.338378,-0.9931641 0,-0.6591797 -0.404296,-1.0195312 -0.399903,-0.3603516 -0.962403,-0.3603516 -0.408691,0 -0.703125,0.1582031 -0.290039,0.1582032 -0.496582,0.4394532 L 22.352554,-2.7993164 22.831558,-6.1875 h 3.269531 v 0.7646484 H 23.42482 l -0.268066,1.7490235 q 0.219726,-0.1669922 0.41748,-0.2504883 0.351563,-0.1450195 0.812988,-0.1450195 0.865723,0 1.467774,0.5581054 0.602051,0.5581055 0.602051,1.4150391 0,0.8920898 -0.553711,1.57324218 -0.549317,0.68115234 -1.757813,0.68115234 -0.769043,0 -1.362305,-0.43066406 -0.588867,-0.43505859 -0.659179,-1.33154296 z" /></g></g><g
       id="g308" /><g
       id="g310" /><g
       id="g312" /><g
       id="g314" /><g
       id="g316" /><g
       id="g318" /><g
       id="g320" /><g
       id="g322"><g
         id="text326"
         style="font-variant:normal;font-weight:normal;font-size:11px;font-family:Helvetica;-inkscape-font-specification:Helvetica;writing-mode:lr-tb;fill:#000000;fill-opacity:1;fill-rule:nonzero;stroke:none"
         transform="matrix(0,1,1,0,13.38,24.33)"
         aria-label="Number of sampled cases per week"><path
           id="path466"
           style=""
           d="M 0.83789063,-7.8901367 H 2.1000977 l 3.9853515,6.3916015 V -7.8901367 H 7.1005859 V 0 H 5.902832 L 1.8583984,-6.3862305 V 0 H 0.83789063 Z m 3.06152347,0 z" /><path
           id="path468"
           style=""
           d="m 9.6177812,-5.7524414 v 3.8188477 q 0,0.4404296 0.1396484,0.7197265 0.2578124,0.51562501 0.9614254,0.51562501 1.009766,0 1.375,-0.90234371 0.198731,-0.4833985 0.198731,-1.3266602 v -2.8251953 h 0.966797 V 0 h -0.913086 l 0.01074,-0.84863281 q -0.187988,0.32763672 -0.467285,0.55322265 -0.553223,0.45117188 -1.342774,0.45117188 -1.2299801,0 -1.6757809,-0.82177734 Q 8.6294999,-1.1064453 8.6294999,-1.8422852 v -3.9101562 z m 1.3266598,-0.1396484 z" /><path
           id="path470"
           style=""
           d="m 14.766984,-5.7524414 h 0.956055 v 0.8164062 q 0.34375,-0.4243164 0.623047,-0.6176757 0.478027,-0.3276368 1.08496,-0.3276368 0.6875,0 1.106446,0.338379 0.236328,0.1933593 0.429687,0.5693359 0.322266,-0.4619141 0.757325,-0.6821289 0.435058,-0.225586 0.977539,-0.225586 1.160156,0 1.579101,0.8378907 0.225586,0.4511718 0.225586,1.2138672 V 0 h -1.004394 v -3.9960938 q 0,-0.574707 -0.29004,-0.7895507 -0.284667,-0.2148438 -0.698242,-0.2148438 -0.569336,0 -0.98291,0.3813477 -0.408203,0.3813476 -0.408203,1.2729492 V 0 h -0.98291 v -3.7543945 q 0,-0.5854492 -0.139649,-0.8540039 -0.220214,-0.4028321 -0.821777,-0.4028321 -0.547851,0 -0.999023,0.4243164 -0.445801,0.4243164 -0.445801,1.5361328 V 0 h -0.966797 z" /><path
           id="path472"
           style=""
           d="m 23.85479,-7.9169922 h 0.939941 v 2.862793 q 0.316895,-0.4135742 0.757324,-0.628418 0.44043,-0.2202148 0.956055,-0.2202148 1.074219,0 1.740234,0.7412109 0.671387,0.7358399 0.671387,2.175293 0,1.3642578 -0.660644,2.26660154 -0.660645,0.90234375 -1.831543,0.90234375 -0.655274,0 -1.106446,-0.31689453 -0.268554,-0.18798829 -0.574707,-0.6015625 V 0 H 23.85479 Z m 2.513672,7.24560548 q 0.784179,0 1.170898,-0.62304688 0.39209,-0.6230469 0.39209,-1.6435547 0,-0.9077148 -0.39209,-1.5039062 -0.386719,-0.5961914 -1.144043,-0.5961914 -0.660644,0 -1.160156,0.4887695 -0.494141,0.4887695 -0.494141,1.6113281 0,0.8110352 0.204102,1.315918 0.381347,0.95068358 1.42334,0.95068358 z" /><path
           id="path474"
           style=""
           d="m 32.441492,-5.8813477 q 0.612305,0 1.187012,0.2900391 0.574707,0.284668 0.875488,0.7412109 0.290039,0.4350586 0.386719,1.0151368 0.08594,0.3974609 0.08594,1.2675781 H 30.76034 q 0.02686,0.8754883 0.413574,1.4072266 0.386719,0.52636714 1.197754,0.52636714 0.757324,0 1.208496,-0.49951174 0.257812,-0.290039 0.365234,-0.6713867 h 0.950684 q -0.0376,0.3168945 -0.252441,0.7089844 -0.209473,0.38671873 -0.472657,0.63378904 -0.440429,0.4296875 -1.090332,0.58007812 -0.349121,0.0859375 -0.789551,0.0859375 -1.074218,0 -1.8208,-0.77880859 -0.746582,-0.78417967 -0.746582,-2.19140627 0,-1.3857422 0.751953,-2.2504883 0.751953,-0.8647461 1.96582,-0.8647461 z m 1.541504,2.5458985 q -0.05908,-0.628418 -0.273926,-1.0043945 -0.397461,-0.6982422 -1.32666,-0.6982422 -0.666016,0 -1.117187,0.4833984 -0.451172,0.4780273 -0.478028,1.2192383 z m -1.632813,-2.5566406 z" /><path
           id="path476"
           style=""
           d="m 36.188839,-5.7524414 h 0.918457 v 0.9936523 q 0.112793,-0.290039 0.553223,-0.7036132 0.440429,-0.4189454 1.015136,-0.4189454 0.02686,0 0.09131,0.00537 0.06445,0.00537 0.220215,0.021484 v 1.0205078 q -0.08594,-0.016113 -0.161133,-0.021484 -0.06982,-0.00537 -0.155762,-0.00537 -0.730468,0 -1.122558,0.4726562 -0.39209,0.4672852 -0.39209,1.0795898 V 0 h -0.966797 z" /><path
           id="path478"
           style=""
           d="m 45.165699,-0.62304687 q 0.961426,0 1.315918,-0.72509763 0.359863,-0.7304688 0.359863,-1.6220703 0,-0.8056641 -0.257812,-1.3105469 -0.408203,-0.7949219 -1.407227,-0.7949219 -0.88623,0 -1.289062,0.6767578 -0.402832,0.6767578 -0.402832,1.6328125 0,0.9184571 0.402832,1.5307617 0.402832,0.61230473 1.27832,0.61230473 z m 0.0376,-5.29589843 q 1.111816,0 1.879882,0.7412109 0.768067,0.741211 0.768067,2.1806641 0,1.3911133 -0.676758,2.29882811 -0.676758,0.90771485 -2.100098,0.90771485 -1.187011,0 -1.885253,-0.80029297 Q 42.490894,-1.3964844 42.490894,-2.75 q 0,-1.4501953 0.73584,-2.3095703 0.73584,-0.859375 1.976563,-0.859375 z m -0.03223,0.026855 z" /><path
           id="path480"
           style=""
           d="m 49.240685,-6.6279297 q 0.02148,-0.6015625 0.209472,-0.8808594 0.338379,-0.4941406 1.305176,-0.4941406 0.09131,0 0.187988,0.00537 0.09668,0.00537 0.220215,0.016113 v 0.8808594 q -0.150391,-0.010742 -0.220215,-0.010742 -0.06445,-0.00537 -0.123535,-0.00537 -0.44043,0 -0.526367,0.230957 -0.08594,0.225586 -0.08594,1.1601563 h 0.956055 v 0.7626953 H 50.196739 V 0 h -0.956054 v -4.9628906 h -0.800293 v -0.7626953 h 0.800293 z" /><path
           id="path482"
           style=""
           d="m 55.68969,-1.8046875 q 0.04297,0.4833984 0.241699,0.7412109 0.365234,0.46728519 1.267578,0.46728519 0.537109,0 0.945312,-0.23095703 0.408204,-0.23632816 0.408204,-0.72509766 0,-0.3706055 -0.327637,-0.5639648 -0.209473,-0.1181641 -0.827149,-0.2739258 l -0.768066,-0.1933594 q -0.73584,-0.1826172 -1.084961,-0.4082031 -0.623047,-0.3920899 -0.623047,-1.084961 0,-0.8164062 0.585449,-1.321289 0.590821,-0.5048828 1.584473,-0.5048828 1.299805,0 1.874512,0.7626953 0.359863,0.4833984 0.349121,1.0419922 h -0.913086 q -0.02686,-0.3276367 -0.230957,-0.5961914 -0.333008,-0.3813477 -1.154785,-0.3813477 -0.547852,0 -0.83252,0.2094727 -0.279297,0.2094726 -0.279297,0.5532226 0,0.3759766 0.370606,0.6015625 0.214844,0.1342774 0.633789,0.2363281 l 0.63916,0.1557618 q 1.041992,0.2524414 1.396484,0.4887695 0.563965,0.3706055 0.563965,1.1655273 0,0.76806644 -0.585449,1.32666019 -0.580078,0.55859375 -1.772461,0.55859375 -1.283691,0 -1.820801,-0.58007812 Q 54.798088,-0.9453125 54.76049,-1.8046875 Z m 1.428711,-4.0874023 z" /><path
           id="path484"
           style=""
           d="m 61.356194,-1.5307617 q 0,0.4189453 0.306152,0.66064451 0.306152,0.24169922 0.725098,0.24169922 0.510253,0 0.988281,-0.23632812 0.805664,-0.39208981 0.805664,-1.28369141 v -0.7788086 q -0.177246,0.112793 -0.456543,0.1879883 -0.279297,0.075195 -0.547852,0.1074219 l -0.585449,0.075195 q -0.526367,0.069824 -0.789551,0.2202148 -0.4458,0.2524414 -0.4458,0.8056641 z m 2.341796,-1.9550781 q 0.333008,-0.042969 0.445801,-0.2792969 0.06445,-0.1289063 0.06445,-0.3706055 0,-0.4941406 -0.354492,-0.7143555 -0.349121,-0.2255859 -1.004394,-0.2255859 -0.757325,0 -1.074219,0.4082031 -0.177246,0.225586 -0.230957,0.6713867 h -0.902344 q 0.02686,-1.0634765 0.6875,-1.4770507 0.666016,-0.4189453 1.541504,-0.4189453 1.015137,0 1.648926,0.3867187 0.628418,0.3867188 0.628418,1.203125 v 3.31396485 q 0,0.15039062 0.05908,0.24169922 0.06445,0.0913086 0.263183,0.0913086 0.06445,0 0.14502,-0.005371 0.08057,-0.0107422 0.171875,-0.0268555 v 0.71435547 q -0.225586,0.06445312 -0.34375,0.0805664 -0.118164,0.0161133 -0.322266,0.0161133 -0.499511,0 -0.725097,-0.35449219 -0.118164,-0.18798828 -0.166504,-0.53173828 -0.29541,0.38671875 -0.848633,0.67138672 -0.553223,0.28466796 -1.219238,0.28466796 -0.800293,0 -1.310547,-0.48339843 -0.504883,-0.48876953 -0.504883,-1.21923824 0,-0.800293 0.499512,-1.2407227 0.499511,-0.4404297 1.310547,-0.5424805 z m -0.800293,-2.40625 z" /><path
           id="path486"
           style=""
           d="m 66.730988,-5.7524414 h 0.956054 v 0.8164062 q 0.34375,-0.4243164 0.623047,-0.6176757 0.478027,-0.3276368 1.084961,-0.3276368 0.6875,0 1.106445,0.338379 0.236328,0.1933593 0.429688,0.5693359 0.322265,-0.4619141 0.757324,-0.6821289 0.435059,-0.225586 0.977539,-0.225586 1.160156,0 1.579102,0.8378907 0.225586,0.4511718 0.225586,1.2138672 V 0 h -1.004395 v -3.9960938 q 0,-0.574707 -0.290039,-0.7895507 -0.284668,-0.2148438 -0.698242,-0.2148438 -0.569336,0 -0.98291,0.3813477 -0.408203,0.3813476 -0.408203,1.2729492 V 0 h -0.982911 v -3.7543945 q 0,-0.5854492 -0.139648,-0.8540039 -0.220215,-0.4028321 -0.821777,-0.4028321 -0.547852,0 -0.999024,0.4243164 -0.445801,0.4243164 -0.445801,1.5361328 V 0 h -0.966796 z" /><path
           id="path488"
           style=""
           d="m 78.321716,-0.64990234 q 0.676758,0 1.122559,-0.56396486 0.451172,-0.5693359 0.451172,-1.6972656 0,-0.6875 -0.198731,-1.1816406 -0.375976,-0.9506836 -1.375,-0.9506836 -1.004394,0 -1.375,1.0043945 -0.19873,0.5371094 -0.19873,1.3642578 0,0.6660156 0.19873,1.1333008 0.375977,0.89160156 1.375,0.89160156 z M 75.818787,-5.7255859 h 0.939941 v 0.7626953 q 0.290039,-0.3920899 0.633789,-0.6069336 0.48877,-0.3222656 1.149414,-0.3222656 0.977539,0 1.659668,0.7519531 0.682129,0.746582 0.682129,2.1376953 0,1.8798828 -0.98291,2.68554687 -0.623047,0.5102539 -1.450195,0.5102539 -0.649903,0 -1.090332,-0.28466796 -0.257813,-0.16113282 -0.574708,-0.55322266 V 2.293457 h -0.966796 z" /><path
           id="path490"
           style=""
           d="m 82.036842,-7.8901367 h 0.966797 V 0 h -0.966797 z" /><path
           id="path492"
           style=""
           d="m 86.847488,-5.8813477 q 0.612305,0 1.187012,0.2900391 0.574707,0.284668 0.875488,0.7412109 0.290039,0.4350586 0.386719,1.0151368 0.08594,0.3974609 0.08594,1.2675781 h -4.216309 q 0.02686,0.8754883 0.413574,1.4072266 0.386719,0.52636714 1.197754,0.52636714 0.757324,0 1.208496,-0.49951174 0.257813,-0.290039 0.365235,-0.6713867 h 0.950683 q -0.0376,0.3168945 -0.252441,0.7089844 -0.209473,0.38671873 -0.472656,0.63378904 -0.44043,0.4296875 -1.090332,0.58007812 -0.349122,0.0859375 -0.789551,0.0859375 -1.074219,0 -1.820801,-0.77880859 -0.746582,-0.78417967 -0.746582,-2.19140627 0,-1.3857422 0.751953,-2.2504883 0.751953,-0.8647461 1.96582,-0.8647461 z m 1.541504,2.5458985 q -0.05908,-0.628418 -0.273925,-1.0043945 -0.397461,-0.6982422 -1.326661,-0.6982422 -0.666015,0 -1.117187,0.4833984 -0.451172,0.4780273 -0.478027,1.2192383 z M 86.75618,-5.8920898 Z" /><path
           id="path494"
           style=""
           d="m 91.18029,-2.809082 q 0,0.9238281 0.39209,1.546875 0.39209,0.62304684 1.256836,0.62304684 0.671387,0 1.101074,-0.57470704 0.435059,-0.5800781 0.435059,-1.659668 0,-1.090332 -0.445801,-1.6113281 -0.445801,-0.5263672 -1.101074,-0.5263672 -0.730469,0 -1.187012,0.5585938 -0.451172,0.5585937 -0.451172,1.6435547 z m 1.455567,-3.0454102 q 0.660644,0 1.106445,0.2792969 0.257812,0.1611328 0.585449,0.5639648 V -7.9169922 H 95.25695 V 0 h -0.870117 v -0.80029297 q -0.338379,0.53173828 -0.800293,0.76806641 -0.461914,0.23632812 -1.058105,0.23632812 -0.961426,0 -1.665039,-0.80566406 -0.703614,-0.8110352 -0.703614,-2.1538086 0,-1.2568359 0.639161,-2.175293 0.644531,-0.9238281 1.836914,-0.9238281 z" /><path
           id="path496"
           style=""
           d="m 101.96024,-5.9189453 q 0.97217,0 1.5791,0.4726562 0.61231,0.4726563 0.73584,1.6274414 h -0.93994 q -0.0859,-0.5317382 -0.39209,-0.8808593 -0.30615,-0.3544922 -0.98291,-0.3544922 -0.92382,0 -1.32129,0.9023437 -0.25781,0.5854492 -0.25781,1.4448242 0,0.8647461 0.36524,1.4555665 0.36523,0.59082027 1.14941,0.59082027 0.60156,0 0.95068,-0.36523437 0.3545,-0.3706055 0.48877,-1.0097656 h 0.93994 q -0.16113,1.14404294 -0.80566,1.67578122 -0.64453,0.52636719 -1.64893,0.52636719 -1.12792,0 -1.79931,-0.82177735 -0.671388,-0.82714846 -0.671388,-2.06249996 0,-1.5146485 0.735838,-2.3579102 0.73584,-0.8432617 1.87451,-0.8432617 z m -0.15039,0.026855 z" /><path
           id="path498"
           style=""
           d="m 105.98319,-1.5307617 q 0,0.4189453 0.30615,0.66064451 0.30616,0.24169922 0.7251,0.24169922 0.51026,0 0.98828,-0.23632812 0.80567,-0.39208981 0.80567,-1.28369141 v -0.7788086 q -0.17725,0.112793 -0.45655,0.1879883 -0.27929,0.075195 -0.54785,0.1074219 l -0.58545,0.075195 q -0.52636,0.069824 -0.78955,0.2202148 -0.4458,0.2524414 -0.4458,0.8056641 z m 2.3418,-1.9550781 q 0.33301,-0.042969 0.4458,-0.2792969 0.0644,-0.1289063 0.0644,-0.3706055 0,-0.4941406 -0.35449,-0.7143555 -0.34912,-0.2255859 -1.00439,-0.2255859 -0.75733,0 -1.07422,0.4082031 -0.17725,0.225586 -0.23096,0.6713867 h -0.90234 q 0.0268,-1.0634765 0.6875,-1.4770507 0.66601,-0.4189453 1.5415,-0.4189453 1.01514,0 1.64893,0.3867187 0.62841,0.3867188 0.62841,1.203125 v 3.31396485 q 0,0.15039062 0.0591,0.24169922 0.0644,0.0913086 0.26318,0.0913086 0.0645,0 0.14502,-0.005371 0.0806,-0.0107422 0.17187,-0.0268555 v 0.71435547 q -0.22558,0.06445312 -0.34375,0.0805664 -0.11816,0.0161133 -0.32226,0.0161133 -0.49951,0 -0.7251,-0.35449219 -0.11816,-0.18798828 -0.1665,-0.53173828 -0.29541,0.38671875 -0.84864,0.67138672 -0.55322,0.28466796 -1.21923,0.28466796 -0.8003,0 -1.31055,-0.48339843 -0.50488,-0.48876953 -0.50488,-1.21923824 0,-0.800293 0.49951,-1.2407227 0.49951,-0.4404297 1.31055,-0.5424805 z m -0.80029,-2.40625 z" /><path
           id="path500"
           style=""
           d="m 111.93269,-1.8046875 q 0.043,0.4833984 0.2417,0.7412109 0.36524,0.46728519 1.26758,0.46728519 0.53711,0 0.94531,-0.23095703 0.40821,-0.23632816 0.40821,-0.72509766 0,-0.3706055 -0.32764,-0.5639648 -0.20947,-0.1181641 -0.82715,-0.2739258 l -0.76807,-0.1933594 q -0.73583,-0.1826172 -1.08496,-0.4082031 -0.62304,-0.3920899 -0.62304,-1.084961 0,-0.8164062 0.58545,-1.321289 0.59082,-0.5048828 1.58447,-0.5048828 1.2998,0 1.87451,0.7626953 0.35986,0.4833984 0.34912,1.0419922 h -0.91308 q -0.0269,-0.3276367 -0.23096,-0.5961914 -0.33301,-0.3813477 -1.15479,-0.3813477 -0.54785,0 -0.83252,0.2094727 -0.27929,0.2094726 -0.27929,0.5532226 0,0.3759766 0.3706,0.6015625 0.21485,0.1342774 0.63379,0.2363281 l 0.63916,0.1557618 q 1.04199,0.2524414 1.39649,0.4887695 0.56396,0.3706055 0.56396,1.1655273 0,0.76806644 -0.58545,1.32666019 -0.58008,0.55859375 -1.77246,0.55859375 -1.28369,0 -1.8208,-0.58007812 -0.53174,-0.58544922 -0.56934,-1.44482422 z m 1.42871,-4.0874023 z" /><path
           id="path502"
           style=""
           d="m 119.25349,-5.8813477 q 0.61231,0 1.18702,0.2900391 0.5747,0.284668 0.87548,0.7412109 0.29004,0.4350586 0.38672,1.0151368 0.0859,0.3974609 0.0859,1.2675781 h -4.21631 q 0.0269,0.8754883 0.41358,1.4072266 0.38671,0.52636714 1.19775,0.52636714 0.75732,0 1.2085,-0.49951174 0.25781,-0.290039 0.36523,-0.6713867 h 0.95068 q -0.0376,0.3168945 -0.25244,0.7089844 -0.20947,0.38671873 -0.47265,0.63378904 -0.44043,0.4296875 -1.09034,0.58007812 -0.34912,0.0859375 -0.78955,0.0859375 -1.07422,0 -1.8208,-0.77880859 -0.74658,-0.78417967 -0.74658,-2.19140627 0,-1.3857422 0.75195,-2.2504883 0.75196,-0.8647461 1.96582,-0.8647461 z m 1.54151,2.5458985 q -0.0591,-0.628418 -0.27393,-1.0043945 -0.39746,-0.6982422 -1.32666,-0.6982422 -0.66601,0 -1.11719,0.4833984 -0.45117,0.4780273 -0.47802,1.2192383 z m -1.63281,-2.5566406 z" /><path
           id="path504"
           style=""
           d="m 123.54869,-1.8046875 q 0.043,0.4833984 0.2417,0.7412109 0.36523,0.46728519 1.26758,0.46728519 0.53711,0 0.94531,-0.23095703 0.4082,-0.23632816 0.4082,-0.72509766 0,-0.3706055 -0.32763,-0.5639648 -0.20948,-0.1181641 -0.82715,-0.2739258 l -0.76807,-0.1933594 q -0.73584,-0.1826172 -1.08496,-0.4082031 -0.62305,-0.3920899 -0.62305,-1.084961 0,-0.8164062 0.58545,-1.321289 0.59082,-0.5048828 1.58448,-0.5048828 1.2998,0 1.87451,0.7626953 0.35986,0.4833984 0.34912,1.0419922 h -0.91309 q -0.0268,-0.3276367 -0.23095,-0.5961914 -0.33301,-0.3813477 -1.15479,-0.3813477 -0.54785,0 -0.83252,0.2094727 -0.2793,0.2094726 -0.2793,0.5532226 0,0.3759766 0.37061,0.6015625 0.21484,0.1342774 0.63379,0.2363281 l 0.63916,0.1557618 q 1.04199,0.2524414 1.39648,0.4887695 0.56397,0.3706055 0.56397,1.1655273 0,0.76806644 -0.58545,1.32666019 -0.58008,0.55859375 -1.77246,0.55859375 -1.28369,0 -1.8208,-0.58007812 -0.53174,-0.58544922 -0.56934,-1.44482422 z m 1.42871,-4.0874023 z" /><path
           id="path506"
           style=""
           d="m 133.95972,-0.64990234 q 0.67675,0 1.12256,-0.56396486 0.45117,-0.5693359 0.45117,-1.6972656 0,-0.6875 -0.19873,-1.1816406 -0.37598,-0.9506836 -1.375,-0.9506836 -1.0044,0 -1.375,1.0043945 -0.19873,0.5371094 -0.19873,1.3642578 0,0.6660156 0.19873,1.1333008 0.37597,0.89160156 1.375,0.89160156 z m -2.50293,-5.07568356 h 0.93994 v 0.7626953 q 0.29004,-0.3920899 0.63379,-0.6069336 0.48877,-0.3222656 1.14941,-0.3222656 0.97754,0 1.65967,0.7519531 0.68213,0.746582 0.68213,2.1376953 0,1.8798828 -0.98291,2.68554687 -0.62305,0.5102539 -1.4502,0.5102539 -0.6499,0 -1.09033,-0.28466796 -0.25781,-0.16113282 -0.57471,-0.55322266 V 2.293457 h -0.96679 z" /><path
           id="path508"
           style=""
           d="m 140.04349,-5.8813477 q 0.6123,0 1.18701,0.2900391 0.57471,0.284668 0.87549,0.7412109 0.29004,0.4350586 0.38672,1.0151368 0.0859,0.3974609 0.0859,1.2675781 h -4.2163 q 0.0269,0.8754883 0.41357,1.4072266 0.38672,0.52636714 1.19775,0.52636714 0.75733,0 1.2085,-0.49951174 0.25781,-0.290039 0.36523,-0.6713867 h 0.95069 q -0.0376,0.3168945 -0.25244,0.7089844 -0.20948,0.38671873 -0.47266,0.63378904 -0.44043,0.4296875 -1.09033,0.58007812 -0.34912,0.0859375 -0.78955,0.0859375 -1.07422,0 -1.8208,-0.77880859 -0.74659,-0.78417967 -0.74659,-2.19140627 0,-1.3857422 0.75196,-2.2504883 0.75195,-0.8647461 1.96582,-0.8647461 z m 1.5415,2.5458985 q -0.0591,-0.628418 -0.27392,-1.0043945 -0.39747,-0.6982422 -1.32666,-0.6982422 -0.66602,0 -1.11719,0.4833984 -0.45117,0.4780273 -0.47803,1.2192383 z m -1.63281,-2.5566406 z" /><path
           id="path510"
           style=""
           d="m 143.79083,-5.7524414 h 0.91846 v 0.9936523 q 0.11279,-0.290039 0.55322,-0.7036132 0.44043,-0.4189454 1.01514,-0.4189454 0.0268,0 0.0913,0.00537 0.0645,0.00537 0.22021,0.021484 v 1.0205078 q -0.0859,-0.016113 -0.16113,-0.021484 -0.0698,-0.00537 -0.15576,-0.00537 -0.73047,0 -1.12256,0.4726562 -0.39209,0.4672852 -0.39209,1.0795898 V 0 h -0.9668 z" /><path
           id="path512"
           style=""
           d="m 150.93079,-5.7524414 1.10644,4.5332031 1.12256,-4.5332031 h 1.08496 l 1.12793,4.5063477 1.17627,-4.5063477 h 0.9668 L 155.84534,0 h -1.0044 L 153.67004,-4.4526367 152.53674,0 h -1.00439 l -1.65967,-5.7524414 z" /><path
           id="path514"
           style=""
           d="m 160.71249,-5.8813477 q 0.61231,0 1.18702,0.2900391 0.5747,0.284668 0.87548,0.7412109 0.29004,0.4350586 0.38672,1.0151368 0.0859,0.3974609 0.0859,1.2675781 h -4.21631 q 0.0269,0.8754883 0.41358,1.4072266 0.38671,0.52636714 1.19775,0.52636714 0.75732,0 1.2085,-0.49951174 0.25781,-0.290039 0.36523,-0.6713867 h 0.95068 q -0.0376,0.3168945 -0.25244,0.7089844 -0.20947,0.38671873 -0.47265,0.63378904 -0.44043,0.4296875 -1.09034,0.58007812 -0.34912,0.0859375 -0.78955,0.0859375 -1.07422,0 -1.8208,-0.77880859 -0.74658,-0.78417967 -0.74658,-2.19140627 0,-1.3857422 0.75195,-2.2504883 0.75196,-0.8647461 1.96582,-0.8647461 z m 1.54151,2.5458985 q -0.0591,-0.628418 -0.27393,-1.0043945 -0.39746,-0.6982422 -1.32666,-0.6982422 -0.66601,0 -1.11719,0.4833984 -0.45117,0.4780273 -0.47802,1.2192383 z m -1.63281,-2.5566406 z" /><path
           id="path516"
           style=""
           d="m 166.82849,-5.8813477 q 0.61231,0 1.18701,0.2900391 0.57471,0.284668 0.87549,0.7412109 0.29004,0.4350586 0.38672,1.0151368 0.0859,0.3974609 0.0859,1.2675781 h -4.21631 q 0.0268,0.8754883 0.41357,1.4072266 0.38672,0.52636714 1.19776,0.52636714 0.75732,0 1.20849,-0.49951174 0.25782,-0.290039 0.36524,-0.6713867 h 0.95068 q -0.0376,0.3168945 -0.25244,0.7089844 -0.20947,0.38671873 -0.47266,0.63378904 -0.44043,0.4296875 -1.09033,0.58007812 -0.34912,0.0859375 -0.78955,0.0859375 -1.07422,0 -1.8208,-0.77880859 -0.74658,-0.78417967 -0.74658,-2.19140627 0,-1.3857422 0.75195,-2.2504883 0.75195,-0.8647461 1.96582,-0.8647461 z m 1.54151,2.5458985 q -0.0591,-0.628418 -0.27393,-1.0043945 -0.39746,-0.6982422 -1.32666,-0.6982422 -0.66602,0 -1.11719,0.4833984 -0.45117,0.4780273 -0.47803,1.2192383 z m -1.63282,-2.5566406 z" /><path
           id="path518"
           style=""
           d="m 170.5275,-7.8901367 h 0.9292 v 4.5815429 l 2.48144,-2.4438476 h 1.23535 L 172.97134,-3.5986328 175.29703,0 h -1.23535 l -1.79395,-2.9003906 -0.81103,0.7412109 V 0 h -0.9292 z" /></g></g><g
       id="g328" /><g
       id="g330" /><g
       id="g332" /><g
       id="g334" /><g
       id="g336" /><g
       id="g338" /><g
       id="g340" /><g
       id="g342"><path
         id="path344"
         style="fill:#ffffff;fill-opacity:1;fill-rule:nonzero;stroke:none"
         d="m 179.59,147.39 h 86.31 v 50.22 h -86.31 z" /></g><g
       id="g346" /><g
       id="g348" /><g
       id="g350" /><g
       id="g352"><path
         id="path354"
         style="fill:#f2f2f2;fill-opacity:1;fill-rule:nonzero;stroke:#ffffff;stroke-width:1.07000005;stroke-linecap:round;stroke-linejoin:round;stroke-miterlimit:10;stroke-dasharray:none;stroke-opacity:1"
         d="m 185.26,170.34 h 17.28 v 17.28 h -17.28 z" /></g><g
       id="g356" /><g
       id="g358"><path
         id="path360"
         style="fill:#00008b;fill-opacity:1;fill-rule:nonzero;stroke:none"
         d="m 185.97,171.05 h 15.86 v 15.86 h -15.86 z" /></g><g
       id="g362" /><g
       id="g364"><path
         id="path366"
         style="fill:#f2f2f2;fill-opacity:1;fill-rule:nonzero;stroke:#ffffff;stroke-width:1.07000005;stroke-linecap:round;stroke-linejoin:round;stroke-miterlimit:10;stroke-dasharray:none;stroke-opacity:1"
         d="m 185.26,153.06 h 17.28 v 17.28 h -17.28 z" /></g><g
       id="g368" /><g
       id="g370"><path
         id="path372"
         style="fill:#a52a2a;fill-opacity:1;fill-rule:nonzero;stroke:none"
         d="m 185.97,153.77 h 15.86 v 15.86 h -15.86 z" /></g><g
       id="g374" /><g
       id="g376"><g
         id="text380"
         style="font-variant:normal;font-weight:normal;font-size:9px;font-family:Helvetica;-inkscape-font-specification:Helvetica;writing-mode:lr-tb;fill:#000000;fill-opacity:1;fill-rule:nonzero;stroke:none"
         transform="matrix(1,0,0,-1,204.7,175.75)"
         aria-label="Unsequenced"><path
           id="path521"
           style=""
           d="m 1.6347656,-6.4555664 v 3.9902344 q 0,0.703125 0.2636719,1.1689453 0.3911133,0.70312498 1.3183594,0.70312498 1.1118164,0 1.5117187,-0.76025388 0.2153321,-0.413086 0.2153321,-1.1118164 V -6.4555664 H 5.831543 v 3.6254883 q 0,1.1909179 -0.3208008,1.83251951 -0.5888672,1.16894531 -2.2236328,1.16894531 -1.6347657,0 -2.2192383,-1.16894531 Q 0.74707031,-1.6391602 0.74707031,-2.8300781 v -3.6254883 z m 1.6567383,0 z" /><path
           id="path523"
           style=""
           d="m 7.0780783,-4.706543 h 0.7514648 v 0.6679688 q 0.3339844,-0.413086 0.7075195,-0.5932617 0.3735352,-0.1801758 0.8305665,-0.1801758 1.0019529,0 1.3535159,0.6987305 0.193359,0.3823242 0.193359,1.0942382 V 0 h -0.804199 v -2.9663086 q 0,-0.4306641 -0.1274416,-0.6943359 -0.2109375,-0.4394532 -0.7646484,-0.4394532 -0.28125,0 -0.4614258,0.057129 -0.3251953,0.09668 -0.5712891,0.3867187 -0.1977539,0.2329102 -0.2592773,0.4833984 -0.057129,0.2460938 -0.057129,0.7075196 V 0 H 7.0780783 Z M 8.936965,-4.8208008 Z" /><path
           id="path525"
           style=""
           d="m 12.552293,-1.4765625 q 0.03516,0.3955078 0.197754,0.60644531 0.298828,0.38232422 1.037109,0.38232422 0.439453,0 0.773438,-0.18896484 0.333984,-0.19335938 0.333984,-0.59326169 0,-0.3032227 -0.268066,-0.4614258 -0.171387,-0.09668 -0.676758,-0.2241211 l -0.628418,-0.1582031 q -0.602051,-0.1494141 -0.887696,-0.3339844 -0.509765,-0.3208008 -0.509765,-0.8876953 0,-0.6679688 0.479004,-1.0810547 0.483398,-0.4130859 1.296386,-0.4130859 1.063477,0 1.533692,0.6240234 0.294433,0.3955078 0.285644,0.8525391 h -0.74707 q -0.02197,-0.2680665 -0.188965,-0.487793 -0.272461,-0.3120117 -0.944824,-0.3120117 -0.448242,0 -0.681152,0.1713867 -0.228516,0.1713867 -0.228516,0.4526367 0,0.3076172 0.303223,0.4921875 0.175781,0.1098633 0.518554,0.1933594 l 0.52295,0.1274414 q 0.852539,0.206543 1.142578,0.3999023 0.461426,0.3032227 0.461426,0.9536133 0,0.62841798 -0.479004,1.08544923 -0.47461,0.45703125 -1.450196,0.45703125 -1.050293,0 -1.489746,-0.47460937 -0.435058,-0.47900391 -0.46582,-1.18212891 z m 1.168945,-3.3442383 z" /><path
           id="path527"
           style=""
           d="m 18.54204,-4.8120117 q 0.500976,0 0.971191,0.2373047 0.470215,0.2329101 0.716309,0.6064453 0.237305,0.355957 0.316406,0.8305664 0.07031,0.3251953 0.07031,1.0371094 h -3.449707 q 0.02197,0.7163086 0.338378,1.15136715 0.316407,0.43066406 0.979981,0.43066406 0.619629,0 0.988769,-0.4086914 0.210938,-0.23730471 0.298829,-0.54931641 h 0.777832 q -0.03076,0.2592773 -0.206543,0.58007812 -0.171387,0.31640626 -0.386719,0.51855469 -0.360352,0.3515625 -0.89209,0.47460938 -0.285644,0.0703125 -0.645996,0.0703125 -0.878906,0 -1.489746,-0.63720703 -0.61084,-0.64160156 -0.61084,-1.79296876 0,-1.1337891 0.615234,-1.8413086 0.615235,-0.7075195 1.608399,-0.7075195 z m 1.26123,2.0830078 q -0.04834,-0.5141602 -0.224121,-0.8217774 -0.325195,-0.571289 -1.085449,-0.571289 -0.544922,0 -0.914062,0.3955078 -0.369141,0.3911133 -0.391114,0.9975586 z m -1.335937,-2.0917969 z" /><path
           id="path529"
           style=""
           d="m 22.095844,-2.2895508 q 0,0.6108399 0.171387,1.0239258 0.303223,0.73388672 1.085449,0.73388672 0.826172,0 1.138184,-0.77343752 0.171387,-0.4262695 0.171387,-1.0898437 0,-0.6108399 -0.188965,-1.0195313 -0.320801,-0.6987304 -1.129395,-0.6987304 -0.51416,0 -0.883301,0.4482421 -0.364746,0.4438477 -0.364746,1.3754883 z m 1.168946,-2.5224609 q 0.584472,0 0.984375,0.2944336 0.219726,0.1582031 0.421875,0.4658203 V -4.706543 h 0.751464 v 6.5830078 h -0.79541 v -2.41699214 q -0.197754,0.31640625 -0.549316,0.50537109 -0.347168,0.18457031 -0.870117,0.18457031 -0.751465,0 -1.344727,-0.58886719 -0.593262,-0.58886717 -0.593262,-1.79296877 0,-1.1293945 0.553711,-1.8544922 0.558106,-0.7250976 1.441407,-0.7250976 z" /><path
           id="path531"
           style=""
           d="m 27.381094,-4.706543 v 3.1245118 q 0,0.3603515 0.114258,0.58886714 0.210937,0.421875 0.786621,0.421875 0.826172,0 1.125,-0.73828124 0.162598,-0.3955078 0.162598,-1.0854492 V -4.706543 h 0.791015 V 0 h -0.74707 l 0.0088,-0.69433594 q -0.153809,0.26806641 -0.382324,0.45263672 -0.452637,0.36914063 -1.098633,0.36914063 -1.006348,0 -1.371094,-0.67236328 Q 26.5725,-0.90527344 26.5725,-1.5073242 V -4.706543 Z m 1.085449,-0.1142578 z" /><path
           id="path533"
           style=""
           d="m 33.554039,-4.8120117 q 0.500977,0 0.971191,0.2373047 0.470215,0.2329101 0.716309,0.6064453 0.237305,0.355957 0.316406,0.8305664 0.07031,0.3251953 0.07031,1.0371094 h -3.449707 q 0.02197,0.7163086 0.338379,1.15136715 0.316406,0.43066406 0.97998,0.43066406 0.619629,0 0.98877,-0.4086914 0.210937,-0.23730471 0.298828,-0.54931641 h 0.777832 q -0.03076,0.2592773 -0.206543,0.58007812 -0.171387,0.31640626 -0.386719,0.51855469 -0.360351,0.3515625 -0.89209,0.47460938 -0.285644,0.0703125 -0.645996,0.0703125 -0.878906,0 -1.489746,-0.63720703 -0.61084,-0.64160156 -0.61084,-1.79296876 0,-1.1337891 0.615235,-1.8413086 0.615234,-0.7075195 1.608398,-0.7075195 z m 1.26123,2.0830078 q -0.04834,-0.5141602 -0.224121,-0.8217774 -0.325195,-0.571289 -1.085449,-0.571289 -0.544922,0 -0.914062,0.3955078 -0.369141,0.3911133 -0.391114,0.9975586 z m -1.335937,-2.0917969 z" /><path
           id="path535"
           style=""
           d="m 36.59808,-4.706543 h 0.751465 v 0.6679688 q 0.333984,-0.413086 0.707519,-0.5932617 0.373535,-0.1801758 0.830566,-0.1801758 1.001954,0 1.353516,0.6987305 0.193359,0.3823242 0.193359,1.0942382 V 0 h -0.804199 v -2.9663086 q 0,-0.4306641 -0.127441,-0.6943359 -0.210938,-0.4394532 -0.764649,-0.4394532 -0.28125,0 -0.461425,0.057129 -0.325196,0.09668 -0.571289,0.3867187 -0.197754,0.2329102 -0.259278,0.4833984 -0.05713,0.2460938 -0.05713,0.7075196 V 0 H 36.59808 Z m 1.858886,-0.1142578 z" /><path
           id="path537"
           style=""
           d="m 43.417019,-4.8427734 q 0.79541,0 1.291992,0.3867187 0.500977,0.3867188 0.602051,1.331543 h -0.769043 q -0.07031,-0.4350586 -0.320801,-0.7207031 -0.250488,-0.2900391 -0.804199,-0.2900391 -0.755859,0 -1.081055,0.7382812 -0.210937,0.4790039 -0.210937,1.1821289 0,0.7075196 0.298828,1.190918 0.298828,0.48339846 0.94043,0.48339846 0.492187,0 0.777832,-0.29882813 0.290039,-0.30322263 0.399902,-0.82617183 h 0.769043 q -0.131836,0.93603511 -0.65918,1.37109371 -0.527344,0.43066406 -1.349121,0.43066406 -0.922851,0 -1.472168,-0.67236328 -0.549316,-0.67675779 -0.549316,-1.68749999 0,-1.2392578 0.60205,-1.9291992 0.602051,-0.6899414 1.533692,-0.6899414 z m -0.123047,0.021973 z" /><path
           id="path539"
           style=""
           d="m 48.062038,-4.8120117 q 0.500977,0 0.971192,0.2373047 0.470215,0.2329101 0.716308,0.6064453 0.237305,0.355957 0.316407,0.8305664 0.07031,0.3251953 0.07031,1.0371094 H 46.68655 q 0.02197,0.7163086 0.338379,1.15136715 0.316406,0.43066406 0.979981,0.43066406 0.619628,0 0.988769,-0.4086914 0.210938,-0.23730471 0.298828,-0.54931641 h 0.777832 q -0.03076,0.2592773 -0.206543,0.58007812 -0.171386,0.31640626 -0.386719,0.51855469 -0.360351,0.3515625 -0.892089,0.47460938 -0.285645,0.0703125 -0.645996,0.0703125 -0.878907,0 -1.489747,-0.63720703 -0.610839,-0.64160156 -0.610839,-1.79296876 0,-1.1337891 0.615234,-1.8413086 0.615234,-0.7075195 1.608398,-0.7075195 z m 1.261231,2.0830078 q -0.04834,-0.5141602 -0.224121,-0.8217774 -0.325196,-0.571289 -1.085449,-0.571289 -0.544922,0 -0.914063,0.3955078 -0.369141,0.3911133 -0.391113,0.9975586 z m -1.335938,-2.0917969 z" /><path
           id="path541"
           style=""
           d="m 51.607056,-2.2983398 q 0,0.7558593 0.3208,1.265625 0.320801,0.50976558 1.028321,0.50976558 0.549316,0 0.900879,-0.47021484 0.355957,-0.47460934 0.355957,-1.35791014 0,-0.8920899 -0.364746,-1.3183594 -0.364746,-0.4306641 -0.900879,-0.4306641 -0.597657,0 -0.971192,0.4570313 -0.36914,0.4570312 -0.36914,1.3447266 z m 1.190918,-2.4916993 q 0.540527,0 0.905273,0.2285157 0.210938,0.1318359 0.479004,0.4614257 v -2.3774414 h 0.760254 V 0 h -0.711914 v -0.65478516 q -0.276856,0.4350586 -0.654785,0.62841797 -0.37793,0.19335938 -0.865723,0.19335938 -0.786621,0 -1.362305,-0.65917969 -0.575683,-0.6635742 -0.575683,-1.762207 0,-1.0283203 0.522949,-1.7797852 0.527344,-0.7558594 1.50293,-0.7558594 z" /></g></g><g
       id="g382" /><g
       id="g384"><g
         id="text388"
         style="font-variant:normal;font-weight:normal;font-size:9px;font-family:Helvetica;-inkscape-font-specification:Helvetica;writing-mode:lr-tb;fill:#000000;fill-opacity:1;fill-rule:nonzero;stroke:none"
         transform="matrix(1,0,0,-1,204.7,158.47)"
         aria-label="Sequenced"><path
           id="path544"
           style=""
           d="m 1.2568359,-2.0830078 q 0.030762,0.5493164 0.2592774,0.8920898 0.4350586,0.64160159 1.5336914,0.64160159 0.4921875,0 0.8964844,-0.140625 0.7822265,-0.27246093 0.7822265,-0.97558589 0,-0.5273438 -0.3295898,-0.7514649 Q 4.0649414,-2.6367188 3.3530273,-2.7993164 L 2.4785156,-2.9970703 Q 1.621582,-3.1904297 1.265625,-3.4233398 0.65039062,-3.8276367 0.65039062,-4.6318359 q 0,-0.8701172 0.60205078,-1.4282227 0.6020508,-0.5581055 1.7050781,-0.5581055 1.0151368,0 1.7226563,0.4921875 0.711914,0.487793 0.711914,1.5644532 H 4.5703125 q -0.065918,-0.5185547 -0.28125,-0.7954102 -0.3999023,-0.5053711 -1.3579102,-0.5053711 -0.7734375,0 -1.1118164,0.3251953 -0.3383789,0.3251953 -0.3383789,0.7558594 0,0.4746094 0.3955078,0.6943359 0.2592774,0.140625 1.1733399,0.3515625 l 0.9052734,0.206543 q 0.6547852,0.1494141 1.0107422,0.4086914 0.6152344,0.4526367 0.6152344,1.3139649 0,1.07226558 -0.7822266,1.53369136 -0.777832,0.46142578 -1.8105468,0.46142578 -1.2041016,0 -1.885254,-0.61523437 Q 0.421875,-1.0371094 0.43505859,-2.0830078 Z m 1.7666016,-4.5483399 z" /><path
           id="path546"
           style=""
           d="m 8.5430388,-4.8120117 q 0.5009766,0 0.9711915,0.2373047 0.4702148,0.2329101 0.7163087,0.6064453 0.237305,0.355957 0.316406,0.8305664 0.07031,0.3251953 0.07031,1.0371094 H 7.1675506 q 0.021973,0.7163086 0.3383789,1.15136715 0.3164062,0.43066406 0.9799804,0.43066406 0.6196289,0 0.9887696,-0.4086914 Q 9.685617,-1.1645508 9.7735076,-1.4765625 H 10.55134 q -0.03076,0.2592773 -0.206543,0.58007812 -0.171387,0.31640626 -0.3867191,0.51855469 -0.3603516,0.3515625 -0.8920898,0.47460938 -0.2856446,0.0703125 -0.6459961,0.0703125 -0.8789063,0 -1.4897461,-0.63720703 Q 6.319406,-1.1118164 6.319406,-2.2631836 q 0,-1.1337891 0.6152344,-1.8413086 0.6152344,-0.7075195 1.6083984,-0.7075195 z m 1.2612305,2.0830078 q -0.04834,-0.5141602 -0.2241211,-0.8217774 -0.3251953,-0.571289 -1.0854492,-0.571289 -0.5449219,0 -0.9140625,0.3955078 -0.3691406,0.3911133 -0.3911133,0.9975586 z M 8.4683318,-4.8208008 Z" /><path
           id="path548"
           style=""
           d="m 12.096844,-2.2895508 q 0,0.6108399 0.171386,1.0239258 0.303223,0.73388672 1.08545,0.73388672 0.826172,0 1.138183,-0.77343752 0.171387,-0.4262695 0.171387,-1.0898437 0,-0.6108399 -0.188965,-1.0195313 -0.320801,-0.6987304 -1.129394,-0.6987304 -0.514161,0 -0.883301,0.4482421 -0.364746,0.4438477 -0.364746,1.3754883 z m 1.168945,-2.5224609 q 0.584473,0 0.984375,0.2944336 0.219727,0.1582031 0.421875,0.4658203 V -4.706543 h 0.751465 v 6.5830078 h -0.79541 v -2.41699214 q -0.197754,0.31640625 -0.549317,0.50537109 -0.347168,0.18457031 -0.870117,0.18457031 -0.751465,0 -1.344726,-0.58886719 -0.593262,-0.58886717 -0.593262,-1.79296877 0,-1.1293945 0.553711,-1.8544922 0.558105,-0.7250976 1.441406,-0.7250976 z" /><path
           id="path550"
           style=""
           d="m 17.382093,-4.706543 v 3.1245118 q 0,0.3603515 0.114258,0.58886714 0.210938,0.421875 0.786621,0.421875 0.826172,0 1.125,-0.73828124 0.162598,-0.3955078 0.162598,-1.0854492 V -4.706543 h 0.791016 V 0 h -0.747071 l 0.0088,-0.69433594 q -0.153808,0.26806641 -0.382324,0.45263672 -0.452637,0.36914063 -1.098633,0.36914063 -1.006347,0 -1.371093,-0.67236328 Q 16.5735,-0.90527344 16.5735,-1.5073242 V -4.706543 Z m 1.08545,-0.1142578 z" /><path
           id="path552"
           style=""
           d="m 23.555038,-4.8120117 q 0.500977,0 0.971192,0.2373047 0.470215,0.2329101 0.716308,0.6064453 0.237305,0.355957 0.316407,0.8305664 0.07031,0.3251953 0.07031,1.0371094 H 22.17955 q 0.02197,0.7163086 0.338379,1.15136715 0.316406,0.43066406 0.979981,0.43066406 0.619628,0 0.988769,-0.4086914 0.210938,-0.23730471 0.298828,-0.54931641 h 0.777832 q -0.03076,0.2592773 -0.206543,0.58007812 -0.171386,0.31640626 -0.386718,0.51855469 -0.360352,0.3515625 -0.89209,0.47460938 -0.285645,0.0703125 -0.645996,0.0703125 -0.878907,0 -1.489747,-0.63720703 -0.610839,-0.64160156 -0.610839,-1.79296876 0,-1.1337891 0.615234,-1.8413086 0.615234,-0.7075195 1.608398,-0.7075195 z m 1.261231,2.0830078 q -0.04834,-0.5141602 -0.224121,-0.8217774 -0.325195,-0.571289 -1.085449,-0.571289 -0.544922,0 -0.914063,0.3955078 -0.369141,0.3911133 -0.391113,0.9975586 z m -1.335938,-2.0917969 z" /><path
           id="path554"
           style=""
           d="m 26.599077,-4.706543 h 0.751465 v 0.6679688 q 0.333984,-0.413086 0.70752,-0.5932617 0.373535,-0.1801758 0.830566,-0.1801758 1.001953,0 1.353516,0.6987305 0.193359,0.3823242 0.193359,1.0942382 V 0 h -0.804199 v -2.9663086 q 0,-0.4306641 -0.127442,-0.6943359 -0.210937,-0.4394532 -0.764648,-0.4394532 -0.28125,0 -0.461426,0.057129 -0.325195,0.09668 -0.571289,0.3867187 -0.197754,0.2329102 -0.259277,0.4833984 -0.05713,0.2460938 -0.05713,0.7075196 V 0 h -0.791016 z m 1.858887,-0.1142578 z" /><path
           id="path556"
           style=""
           d="m 33.41802,-4.8427734 q 0.79541,0 1.291992,0.3867187 0.500977,0.3867188 0.602051,1.331543 H 34.54302 q -0.07031,-0.4350586 -0.320801,-0.7207031 -0.250488,-0.2900391 -0.804199,-0.2900391 -0.755859,0 -1.081054,0.7382812 -0.210938,0.4790039 -0.210938,1.1821289 0,0.7075196 0.298828,1.190918 0.298828,0.48339846 0.94043,0.48339846 0.492187,0 0.777832,-0.29882813 0.290039,-0.30322263 0.399902,-0.82617183 h 0.769043 q -0.131836,0.93603511 -0.659179,1.37109371 -0.527344,0.43066406 -1.349122,0.43066406 -0.922851,0 -1.472168,-0.67236328 -0.549316,-0.67675779 -0.549316,-1.68749999 0,-1.2392578 0.602051,-1.9291992 0.602051,-0.6899414 1.533691,-0.6899414 z m -0.123047,0.021973 z" /><path
           id="path558"
           style=""
           d="m 38.063038,-4.8120117 q 0.500976,0 0.971191,0.2373047 0.470215,0.2329101 0.716309,0.6064453 0.237305,0.355957 0.316406,0.8305664 0.07031,0.3251953 0.07031,1.0371094 H 36.68755 q 0.02197,0.7163086 0.338378,1.15136715 0.316407,0.43066406 0.979981,0.43066406 0.619629,0 0.988769,-0.4086914 0.210938,-0.23730471 0.298829,-0.54931641 h 0.777832 q -0.03076,0.2592773 -0.206543,0.58007812 -0.171387,0.31640626 -0.386719,0.51855469 -0.360352,0.3515625 -0.89209,0.47460938 -0.285644,0.0703125 -0.645996,0.0703125 -0.878906,0 -1.489746,-0.63720703 -0.61084,-0.64160156 -0.61084,-1.79296876 0,-1.1337891 0.615234,-1.8413086 0.615235,-0.7075195 1.608399,-0.7075195 z m 1.26123,2.0830078 q -0.04834,-0.5141602 -0.224121,-0.8217774 -0.325195,-0.571289 -1.085449,-0.571289 -0.544922,0 -0.914062,0.3955078 -0.369141,0.3911133 -0.391114,0.9975586 z m -1.335937,-2.0917969 z" /><path
           id="path560"
           style=""
           d="m 41.608055,-2.2983398 q 0,0.7558593 0.320801,1.265625 0.320801,0.50976558 1.02832,0.50976558 0.549317,0 0.900879,-0.47021484 0.355957,-0.47460934 0.355957,-1.35791014 0,-0.8920899 -0.364746,-1.3183594 -0.364746,-0.4306641 -0.900879,-0.4306641 -0.597656,0 -0.971191,0.4570313 -0.369141,0.4570312 -0.369141,1.3447266 z m 1.190918,-2.4916993 q 0.540527,0 0.905274,0.2285157 0.210937,0.1318359 0.479003,0.4614257 v -2.3774414 h 0.760254 V 0 H 44.23159 v -0.65478516 q -0.276855,0.4350586 -0.654785,0.62841797 -0.37793,0.19335938 -0.865723,0.19335938 -0.786621,0 -1.362304,-0.65917969 -0.575684,-0.6635742 -0.575684,-1.762207 0,-1.0283203 0.522949,-1.7797852 0.527344,-0.7558594 1.50293,-0.7558594 z" /></g></g><g
       id="g390" /><g
       id="g392" /><g
       id="g394" /><g
       id="g396" /><g
       id="g398" /><g
       id="g400" /><g
       id="g402" /><g
       id="g404" /><g
       id="g406" /><g
       id="g408" /></g></svg>