<?xml version="1.0" encoding="UTF-8" standalone="no"?>
<svg
   xmlns:dc="http://purl.org/dc/elements/1.1/"
   xmlns:cc="http://creativecommons.org/ns#"
   xmlns:rdf="http://www.w3.org/1999/02/22-rdf-syntax-ns#"
   xmlns:svg="http://www.w3.org/2000/svg"
   xmlns="http://www.w3.org/2000/svg"
   viewBox="0 0 537.90015 221.77785"
   height="221.77785"
   width="537.90015"
   xml:space="preserve"
   id="svg2"
   version="1.1"><metadata
     id="metadata8"><rdf:RDF><cc:Work
         rdf:about=""><dc:format>image/svg+xml</dc:format><dc:type
           rdf:resource="http://purl.org/dc/dcmitype/StillImage" /></cc:Work></rdf:RDF></metadata><defs
     id="defs6" /><g
     transform="matrix(1.3333333,0,0,-1.3333333,0,221.77785)"
     id="g10"><g
       id="g12"><path
         id="path14"
         style="fill:#000000;fill-opacity:1;fill-rule:nonzero;stroke:none"
         d="m 222.328,160.255 v 1.953 h -1.609 v 0.813 h 2.578 v -3.141 c -0.375,-0.261 -0.793,-0.465 -1.25,-0.609 -0.461,-0.133 -0.949,-0.203 -1.469,-0.203 -1.148,0 -2.043,0.332 -2.687,1 -0.637,0.664 -0.953,1.594 -0.953,2.781 0,1.188 0.316,2.113 0.953,2.781 0.644,0.664 1.539,1 2.687,1 0.469,0 0.914,-0.058 1.344,-0.172 0.437,-0.117 0.832,-0.289 1.187,-0.515 v -1.063 c -0.367,0.313 -0.75,0.547 -1.156,0.703 -0.406,0.157 -0.84,0.235 -1.297,0.235 -0.898,0 -1.57,-0.25 -2.015,-0.75 -0.438,-0.492 -0.657,-1.231 -0.657,-2.219 0,-0.992 0.219,-1.734 0.657,-2.234 0.445,-0.493 1.117,-0.735 2.015,-0.735 0.352,0 0.664,0.024 0.938,0.078 0.269,0.063 0.515,0.161 0.734,0.297 z" /><path
         id="path16"
         style="fill:#000000;fill-opacity:1;fill-rule:nonzero;stroke:none"
         d="m 224.57,157.787 h 0.969 v 3.328 l -1.062,-0.203 v 0.531 l 1.046,0.219 h 0.594 v -3.875 h 0.969 v -0.5 h -2.516 z" /><g
         transform="matrix(1,0,0,-1,0,166.33339)"
         id="g18"><path
           id="path20"
           style="fill:none;stroke:#0800e6;stroke-width:0.80000001;stroke-linecap:butt;stroke-linejoin:miter;stroke-miterlimit:4;stroke-dasharray:none;stroke-opacity:1"
           d="m 15.117,8.324 v -4 h 200" /></g><g
         transform="matrix(1,0,0,-1,0,166.33339)"
         id="g22"><path
           id="path24"
           style="fill:none;stroke:#0800e6;stroke-width:0.80000001;stroke-linecap:butt;stroke-linejoin:miter;stroke-miterlimit:4;stroke-dasharray:none;stroke-opacity:1"
           d="m 227.117,4.324 h 156 v 4" /></g><g
         transform="matrix(1,0,0,-1,0,166.33339)"
         id="g26"><path
           id="path28"
           style="fill:none;stroke:#0000ff;stroke-width:1.60000002;stroke-linecap:butt;stroke-linejoin:miter;stroke-miterlimit:4;stroke-dasharray:none;stroke-opacity:1"
           d="m 15.117,60.324 h 360 v -40 h 8" /></g><g
         transform="matrix(1,0,0,-1,0,166.33339)"
         id="g30"><path
           id="path32"
           style="fill:none;stroke:#0000ff;stroke-width:1.60000002;stroke-linecap:butt;stroke-linejoin:miter;stroke-miterlimit:4;stroke-dasharray:none;stroke-opacity:1"
           d="m 375.117,60.324 v 40 h 8" /></g><g
         transform="matrix(1,0,0,-1,0,166.33339)"
         id="g34"><path
           id="path36"
           style="fill:none;stroke:#737373;stroke-width:1.60000002;stroke-linecap:butt;stroke-linejoin:miter;stroke-miterlimit:4;stroke-dasharray:9.6, 1.6;stroke-dashoffset:0;stroke-opacity:1"
           d="m 383.117,12.324 v 96" /></g><g
         transform="matrix(1,0,0,-1,0,166.33339)"
         id="g38"><path
           id="path40"
           style="fill:none;stroke:#000000;stroke-width:0.80000001;stroke-linecap:butt;stroke-linejoin:miter;stroke-miterlimit:4;stroke-dasharray:none;stroke-opacity:1"
           d="m 7.117,108.324 v 40 h 376" /></g><g
         transform="matrix(0,-1,-1,0,0,166.33339)"
         id="g42"><path
           id="path44"
           style="fill:#000000;fill-opacity:1;fill-rule:evenodd;stroke:#000000;stroke-width:0.80000001;stroke-linecap:butt;stroke-linejoin:miter;stroke-miterlimit:4;stroke-dasharray:none;stroke-opacity:1"
           d="m 116.324,-7.117 3.199,-3.203 -11.199,3.203 11.199,3.199 z" /></g><g
         transform="matrix(-1,0,0,1,0,166.33339)"
         id="g46"><path
           id="path48"
           style="fill:#000000;fill-opacity:1;fill-rule:evenodd;stroke:#000000;stroke-width:0.80000001;stroke-linecap:butt;stroke-linejoin:miter;stroke-miterlimit:4;stroke-dasharray:none;stroke-opacity:1"
           d="m -375.117,-148.324 3.199,-3.199 -11.199,3.199 11.199,3.199 z" /></g><g
         transform="matrix(1,0,0,-1,0,166.33339)"
         id="g50"><path
           id="path52"
           style="fill:none;stroke:#ff0000;stroke-width:1.60000002;stroke-linecap:butt;stroke-linejoin:miter;stroke-miterlimit:4;stroke-dasharray:none;stroke-opacity:1"
           d="m 15.117,140.324 h 56 v -8 h 56 v -8 h 40 v 8 h 64 v 8 h 32 v -8 h 56 v -8 h 56 v -8 h 8" /></g><path
         id="path54"
         style="fill:#000000;fill-opacity:1;fill-rule:nonzero;stroke:none"
         d="M 0.039,69.306 H 1.914 V 62.009 H 0.039 Z" /><path
         id="path56"
         style="fill:#000000;fill-opacity:1;fill-rule:nonzero;stroke:none"
         d="M 6.465,60.697 H 5.012 c -0.492,0.804 -0.856,1.562 -1.094,2.281 -0.242,0.726 -0.359,1.445 -0.359,2.156 0,0.719 0.117,1.442 0.359,2.172 0.238,0.727 0.602,1.492 1.094,2.297 H 6.465 C 6.047,68.829 5.734,68.076 5.527,67.337 5.316,66.595 5.215,65.869 5.215,65.15 c 0,-0.719 0.101,-1.449 0.312,-2.188 0.207,-0.742 0.52,-1.492 0.938,-2.265 z" /><path
         id="path58"
         style="fill:#000000;fill-opacity:1;fill-rule:nonzero;stroke:none"
         d="m 9.836,69.025 v -1.547 h 1.797 v -1.25 H 9.836 v -2.313 c 0,-0.261 0.047,-0.437 0.141,-0.531 0.101,-0.086 0.304,-0.125 0.609,-0.125 h 0.906 v -1.25 h -1.5 c -0.699,0 -1.195,0.141 -1.484,0.422 -0.281,0.289 -0.422,0.785 -0.422,1.484 v 2.313 H 7.211 v 1.25 h 0.875 v 1.547 z" /><path
         id="path60"
         style="fill:#000000;fill-opacity:1;fill-rule:nonzero;stroke:none"
         d="m 12.477,60.697 c 0.414,0.773 0.726,1.523 0.937,2.265 0.207,0.739 0.313,1.469 0.313,2.188 0,0.719 -0.106,1.445 -0.313,2.187 -0.211,0.739 -0.523,1.492 -0.937,2.266 h 1.453 c 0.5,-0.805 0.867,-1.57 1.109,-2.297 0.238,-0.73 0.359,-1.453 0.359,-2.172 0,-0.711 -0.121,-1.43 -0.359,-2.156 -0.242,-0.719 -0.609,-1.477 -1.109,-2.281 z" /><path
         id="path62"
         style="fill:#000000;fill-opacity:1;fill-rule:nonzero;stroke:none"
         d="m 380.223,29.443 v -1.547 h 1.797 v -1.25 h -1.797 v -2.313 c 0,-0.261 0.047,-0.437 0.14,-0.531 0.102,-0.086 0.305,-0.125 0.61,-0.125 h 0.906 v -1.25 h -1.5 c -0.699,0 -1.195,0.141 -1.484,0.422 -0.282,0.289 -0.422,0.785 -0.422,1.484 v 2.313 h -0.875 v 1.25 h 0.875 v 1.547 z" /><path
         id="path64"
         style="fill:#000000;fill-opacity:1;fill-rule:nonzero;stroke:none"
         d="M 58.211,9.603 C 57.781,8.853 57.461,8.107 57.242,7.369 57.031,6.638 56.93,5.9 56.93,5.15 56.93,4.4 57.031,3.654 57.242,2.915 57.461,2.173 57.781,1.439 58.211,0.697 H 57.43 c -0.481,0.761 -0.844,1.507 -1.094,2.25 -0.242,0.738 -0.359,1.472 -0.359,2.203 0,0.726 0.117,1.457 0.359,2.187 0.238,0.739 0.602,1.492 1.094,2.266 z" /><path
         id="path66"
         style="fill:#000000;fill-opacity:1;fill-rule:nonzero;stroke:none"
         d="m 60.102,2.837 h 1.625 V 8.4 L 59.961,8.056 v 0.891 l 1.75,0.359 h 0.984 V 2.837 h 1.61 V 2.009 h -4.203 z" /><path
         id="path68"
         style="fill:#000000;fill-opacity:1;fill-rule:nonzero;stroke:none"
         d="m 65.465,5.15 h 2.641 V 4.353 h -2.641 z" /><path
         id="path70"
         style="fill:#000000;fill-opacity:1;fill-rule:nonzero;stroke:none"
         d="m 70.262,2.837 v -2.906 h -0.907 v 7.547 h 0.907 V 6.65 c 0.187,0.32 0.422,0.562 0.703,0.719 0.289,0.156 0.64,0.234 1.047,0.234 0.664,0 1.203,-0.266 1.609,-0.797 0.414,-0.523 0.625,-1.211 0.625,-2.062 0,-0.868 -0.211,-1.563 -0.625,-2.094 -0.406,-0.524 -0.945,-0.781 -1.609,-0.781 -0.407,0 -0.758,0.078 -1.047,0.234 -0.281,0.156 -0.516,0.398 -0.703,0.734 z m 3.062,1.907 c 0,0.656 -0.14,1.171 -0.422,1.546 -0.273,0.375 -0.64,0.563 -1.109,0.563 -0.481,0 -0.855,-0.188 -1.125,-0.563 -0.273,-0.375 -0.406,-0.89 -0.406,-1.546 0,-0.668 0.133,-1.188 0.406,-1.563 0.27,-0.375 0.644,-0.562 1.125,-0.562 0.469,0 0.836,0.187 1.109,0.562 0.282,0.375 0.422,0.895 0.422,1.563 z" /><path
         id="path72"
         style="fill:#000000;fill-opacity:1;fill-rule:nonzero;stroke:none"
         d="m 77.465,3.244 v -0.5 C 77.316,2.826 77.168,2.888 77.012,2.931 76.855,2.97 76.699,2.994 76.543,2.994 76.199,2.994 75.926,2.876 75.73,2.65 75.543,2.431 75.449,2.122 75.449,1.728 c 0,-0.406 0.094,-0.719 0.281,-0.938 0.196,-0.218 0.469,-0.328 0.813,-0.328 0.156,0 0.312,0.02 0.469,0.063 0.156,0.039 0.304,0.101 0.453,0.187 v -0.5 C 77.316,0.138 77.16,0.087 76.996,0.056 76.84,0.025 76.672,0.009 76.496,0.009 c -0.5,0 -0.898,0.149 -1.187,0.453 -0.293,0.313 -0.438,0.735 -0.438,1.266 0,0.531 0.145,0.945 0.438,1.25 0.3,0.312 0.707,0.469 1.218,0.469 0.164,0 0.328,-0.016 0.485,-0.047 0.156,-0.031 0.304,-0.086 0.453,-0.156 z" /><path
         id="path74"
         style="fill:#000000;fill-opacity:1;fill-rule:nonzero;stroke:none"
         d="m 79.824,2.994 c -0.293,0 -0.523,-0.118 -0.687,-0.344 -0.168,-0.219 -0.25,-0.528 -0.25,-0.922 0,-0.399 0.082,-0.711 0.25,-0.938 0.164,-0.218 0.394,-0.328 0.687,-0.328 0.281,0 0.504,0.11 0.672,0.328 0.164,0.227 0.25,0.539 0.25,0.938 0,0.383 -0.086,0.691 -0.25,0.922 -0.168,0.226 -0.391,0.344 -0.672,0.344 z m 0,0.453 c 0.469,0 0.832,-0.153 1.094,-0.453 0.27,-0.305 0.406,-0.727 0.406,-1.266 0,-0.543 -0.136,-0.965 -0.406,-1.266 -0.262,-0.304 -0.625,-0.453 -1.094,-0.453 -0.48,0 -0.855,0.149 -1.125,0.453 -0.261,0.301 -0.39,0.723 -0.39,1.266 0,0.539 0.129,0.961 0.39,1.266 0.27,0.3 0.645,0.453 1.125,0.453 z" /><path
         id="path76"
         style="fill:#000000;fill-opacity:1;fill-rule:nonzero;stroke:none"
         d="m 83.859,1.744 c -0.437,0 -0.742,-0.055 -0.906,-0.157 -0.168,-0.105 -0.25,-0.277 -0.25,-0.515 0,-0.188 0.063,-0.34 0.188,-0.453 0.125,-0.118 0.297,-0.172 0.515,-0.172 0.289,0 0.524,0.101 0.703,0.312 0.188,0.219 0.282,0.504 0.282,0.86 v 0.125 z m 1.063,0.218 V 0.087 h -0.531 v 0.5 C 84.266,0.388 84.109,0.244 83.922,0.15 83.742,0.056 83.52,0.009 83.25,0.009 c -0.336,0 -0.602,0.094 -0.797,0.281 -0.199,0.188 -0.297,0.438 -0.297,0.75 0,0.375 0.125,0.657 0.375,0.844 0.25,0.188 0.617,0.281 1.11,0.281 h 0.75 v 0.047 c 0,0.25 -0.086,0.442 -0.25,0.578 -0.157,0.133 -0.387,0.204 -0.688,0.204 -0.187,0 -0.371,-0.028 -0.547,-0.079 C 82.727,2.872 82.555,2.81 82.391,2.728 v 0.484 c 0.195,0.082 0.39,0.141 0.578,0.172 0.187,0.039 0.367,0.063 0.547,0.063 0.468,0 0.816,-0.125 1.046,-0.375 0.239,-0.243 0.36,-0.61 0.36,-1.11 z" /><path
         id="path78"
         style="fill:#000000;fill-opacity:1;fill-rule:nonzero;stroke:none"
         d="m 86.184,4.65 h 0.547 V 0.088 h -0.547 z" /><path
         id="path80"
         style="fill:#000000;fill-opacity:1;fill-rule:nonzero;stroke:none"
         d="m 88.148,9.603 h 0.782 c 0.488,-0.774 0.851,-1.527 1.093,-2.266 0.25,-0.73 0.375,-1.461 0.375,-2.187 0,-0.731 -0.125,-1.465 -0.375,-2.203 C 89.781,2.204 89.418,1.458 88.93,0.697 h -0.782 c 0.438,0.742 0.758,1.476 0.969,2.218 0.219,0.739 0.328,1.485 0.328,2.235 0,0.75 -0.109,1.488 -0.328,2.219 -0.211,0.738 -0.531,1.484 -0.969,2.234 z" /><path
         id="path82"
         style="fill:#000000;fill-opacity:1;fill-rule:nonzero;stroke:none"
         d="m 110.133,7.384 -2.235,-2.25 2.235,-2.219 -0.578,-0.593 -2.25,2.234 -2.235,-2.234 -0.578,0.593 2.219,2.219 -2.219,2.25 0.578,0.594 2.235,-2.25 2.25,2.25 z" /><path
         id="path84"
         style="fill:#000000;fill-opacity:1;fill-rule:nonzero;stroke:none"
         d="m 114.258,9.603 c -0.43,-0.75 -0.75,-1.496 -0.969,-2.234 -0.211,-0.731 -0.312,-1.469 -0.312,-2.219 0,-0.75 0.101,-1.496 0.312,-2.235 0.219,-0.742 0.539,-1.476 0.969,-2.218 h -0.781 c -0.481,0.761 -0.844,1.507 -1.094,2.25 -0.242,0.738 -0.36,1.472 -0.36,2.203 0,0.726 0.118,1.457 0.36,2.187 0.238,0.739 0.601,1.492 1.094,2.266 z" /><path
         id="path86"
         style="fill:#000000;fill-opacity:1;fill-rule:nonzero;stroke:none"
         d="m 116.148,2.837 h 1.625 V 8.4 l -1.765,-0.344 v 0.891 l 1.75,0.359 h 0.984 V 2.837 h 1.61 V 2.009 h -4.204 z" /><path
         id="path88"
         style="fill:#000000;fill-opacity:1;fill-rule:nonzero;stroke:none"
         d="m 121.508,5.15 h 2.641 V 4.353 h -2.641 z" /><path
         id="path90"
         style="fill:#000000;fill-opacity:1;fill-rule:nonzero;stroke:none"
         d="m 126.305,2.837 v -2.906 h -0.907 v 7.547 h 0.907 V 6.65 c 0.187,0.32 0.422,0.562 0.703,0.719 0.289,0.156 0.64,0.234 1.047,0.234 0.664,0 1.203,-0.266 1.609,-0.797 0.414,-0.523 0.625,-1.211 0.625,-2.062 0,-0.868 -0.211,-1.563 -0.625,-2.094 -0.406,-0.524 -0.945,-0.781 -1.609,-0.781 -0.407,0 -0.758,0.078 -1.047,0.234 -0.281,0.156 -0.516,0.398 -0.703,0.734 z m 3.062,1.907 c 0,0.656 -0.14,1.171 -0.422,1.546 -0.273,0.375 -0.64,0.563 -1.109,0.563 -0.481,0 -0.856,-0.188 -1.125,-0.563 -0.273,-0.375 -0.406,-0.89 -0.406,-1.546 0,-0.668 0.133,-1.188 0.406,-1.563 0.269,-0.375 0.644,-0.562 1.125,-0.562 0.469,0 0.836,0.187 1.109,0.562 0.282,0.375 0.422,0.895 0.422,1.563 z" /><path
         id="path92"
         style="fill:#000000;fill-opacity:1;fill-rule:nonzero;stroke:none"
         d="m 133.508,3.244 v -0.5 c -0.149,0.082 -0.297,0.144 -0.453,0.187 -0.157,0.039 -0.313,0.063 -0.469,0.063 -0.344,0 -0.617,-0.118 -0.813,-0.344 -0.187,-0.219 -0.281,-0.528 -0.281,-0.922 0,-0.406 0.094,-0.719 0.281,-0.938 0.196,-0.218 0.469,-0.328 0.813,-0.328 0.156,0 0.312,0.02 0.469,0.063 0.156,0.039 0.304,0.101 0.453,0.187 v -0.5 c -0.149,-0.074 -0.305,-0.125 -0.469,-0.156 -0.156,-0.031 -0.324,-0.047 -0.5,-0.047 -0.5,0 -0.898,0.149 -1.187,0.453 -0.293,0.313 -0.438,0.735 -0.438,1.266 0,0.531 0.145,0.945 0.438,1.25 0.3,0.312 0.707,0.469 1.218,0.469 0.164,0 0.328,-0.016 0.485,-0.047 0.156,-0.031 0.304,-0.086 0.453,-0.156 z" /><path
         id="path94"
         style="fill:#000000;fill-opacity:1;fill-rule:nonzero;stroke:none"
         d="m 135.867,2.994 c -0.293,0 -0.523,-0.118 -0.687,-0.344 -0.168,-0.219 -0.25,-0.528 -0.25,-0.922 0,-0.399 0.082,-0.711 0.25,-0.938 0.164,-0.218 0.394,-0.328 0.687,-0.328 0.281,0 0.504,0.11 0.672,0.328 0.164,0.227 0.25,0.539 0.25,0.938 0,0.383 -0.086,0.691 -0.25,0.922 -0.168,0.226 -0.391,0.344 -0.672,0.344 z m 0,0.453 c 0.469,0 0.832,-0.153 1.094,-0.453 0.269,-0.305 0.406,-0.727 0.406,-1.266 0,-0.543 -0.137,-0.965 -0.406,-1.266 -0.262,-0.304 -0.625,-0.453 -1.094,-0.453 -0.48,0 -0.855,0.149 -1.125,0.453 -0.262,0.301 -0.39,0.723 -0.39,1.266 0,0.539 0.128,0.961 0.39,1.266 0.27,0.3 0.645,0.453 1.125,0.453 z" /><path
         id="path96"
         style="fill:#000000;fill-opacity:1;fill-rule:nonzero;stroke:none"
         d="m 139.902,1.744 c -0.437,0 -0.742,-0.055 -0.906,-0.157 -0.168,-0.105 -0.25,-0.277 -0.25,-0.515 0,-0.188 0.063,-0.34 0.188,-0.453 0.125,-0.118 0.296,-0.172 0.515,-0.172 0.289,0 0.524,0.101 0.703,0.312 0.188,0.219 0.282,0.504 0.282,0.86 v 0.125 z m 1.063,0.218 V 0.087 h -0.531 v 0.5 c -0.125,-0.199 -0.282,-0.343 -0.469,-0.437 -0.18,-0.094 -0.403,-0.141 -0.672,-0.141 -0.336,0 -0.602,0.094 -0.797,0.281 -0.199,0.188 -0.297,0.438 -0.297,0.75 0,0.375 0.125,0.657 0.375,0.844 0.25,0.188 0.617,0.281 1.11,0.281 h 0.75 v 0.047 c 0,0.25 -0.086,0.442 -0.25,0.578 -0.157,0.133 -0.387,0.204 -0.688,0.204 -0.187,0 -0.371,-0.028 -0.547,-0.079 -0.179,-0.043 -0.351,-0.105 -0.515,-0.187 v 0.484 c 0.195,0.082 0.39,0.141 0.578,0.172 0.187,0.039 0.367,0.063 0.547,0.063 0.468,0 0.816,-0.125 1.046,-0.375 0.239,-0.243 0.36,-0.61 0.36,-1.11 z" /><path
         id="path98"
         style="fill:#000000;fill-opacity:1;fill-rule:nonzero;stroke:none"
         d="m 142.23,4.65 h 0.547 V 0.088 h -0.547 z" /><path
         id="path100"
         style="fill:#000000;fill-opacity:1;fill-rule:nonzero;stroke:none"
         d="m 144.195,9.603 h 0.782 c 0.488,-0.774 0.851,-1.527 1.093,-2.266 0.25,-0.73 0.375,-1.461 0.375,-2.187 0,-0.731 -0.125,-1.465 -0.375,-2.203 -0.242,-0.743 -0.605,-1.489 -1.093,-2.25 h -0.782 c 0.438,0.742 0.758,1.476 0.969,2.218 0.219,0.739 0.328,1.485 0.328,2.235 0,0.75 -0.109,1.488 -0.328,2.219 -0.211,0.738 -0.531,1.484 -0.969,2.234 z" /><path
         id="path102"
         style="fill:#000000;fill-opacity:1;fill-rule:nonzero;stroke:none"
         d="m 246.133,7.384 -2.235,-2.25 2.235,-2.219 -0.578,-0.593 -2.25,2.234 -2.235,-2.234 -0.578,0.593 2.219,2.219 -2.219,2.25 0.578,0.594 2.235,-2.25 2.25,2.25 z" /><path
         id="path104"
         style="fill:#000000;fill-opacity:1;fill-rule:nonzero;stroke:none"
         d="m 250.258,9.603 c -0.43,-0.75 -0.75,-1.496 -0.969,-2.234 -0.211,-0.731 -0.312,-1.469 -0.312,-2.219 0,-0.75 0.101,-1.496 0.312,-2.235 0.219,-0.742 0.539,-1.476 0.969,-2.218 h -0.781 c -0.481,0.761 -0.844,1.507 -1.094,2.25 -0.242,0.738 -0.36,1.472 -0.36,2.203 0,0.726 0.118,1.457 0.36,2.187 0.238,0.739 0.601,1.492 1.094,2.266 z" /><path
         id="path106"
         style="fill:#000000;fill-opacity:1;fill-rule:nonzero;stroke:none"
         d="m 252.148,2.837 h 1.625 V 8.4 l -1.765,-0.344 v 0.891 l 1.75,0.359 h 0.984 V 2.837 h 1.61 V 2.009 h -4.204 z" /><path
         id="path108"
         style="fill:#000000;fill-opacity:1;fill-rule:nonzero;stroke:none"
         d="m 257.508,5.15 h 2.641 V 4.353 h -2.641 z" /><path
         id="path110"
         style="fill:#000000;fill-opacity:1;fill-rule:nonzero;stroke:none"
         d="m 262.305,2.837 v -2.906 h -0.907 v 7.547 h 0.907 V 6.65 c 0.187,0.32 0.422,0.562 0.703,0.719 0.289,0.156 0.64,0.234 1.047,0.234 0.664,0 1.203,-0.266 1.609,-0.797 0.414,-0.523 0.625,-1.211 0.625,-2.062 0,-0.868 -0.211,-1.563 -0.625,-2.094 -0.406,-0.524 -0.945,-0.781 -1.609,-0.781 -0.407,0 -0.758,0.078 -1.047,0.234 -0.281,0.156 -0.516,0.398 -0.703,0.734 z m 3.062,1.907 c 0,0.656 -0.14,1.171 -0.422,1.546 -0.273,0.375 -0.64,0.563 -1.109,0.563 -0.481,0 -0.856,-0.188 -1.125,-0.563 -0.273,-0.375 -0.406,-0.89 -0.406,-1.546 0,-0.668 0.133,-1.188 0.406,-1.563 0.269,-0.375 0.644,-0.562 1.125,-0.562 0.469,0 0.836,0.187 1.109,0.562 0.282,0.375 0.422,0.895 0.422,1.563 z" /><path
         id="path112"
         style="fill:#000000;fill-opacity:1;fill-rule:nonzero;stroke:none"
         d="m 269.508,3.244 v -0.5 c -0.149,0.082 -0.297,0.144 -0.453,0.187 -0.157,0.039 -0.313,0.063 -0.469,0.063 -0.344,0 -0.617,-0.118 -0.813,-0.344 -0.187,-0.219 -0.281,-0.528 -0.281,-0.922 0,-0.406 0.094,-0.719 0.281,-0.938 0.196,-0.218 0.469,-0.328 0.813,-0.328 0.156,0 0.312,0.02 0.469,0.063 0.156,0.039 0.304,0.101 0.453,0.187 v -0.5 c -0.149,-0.074 -0.305,-0.125 -0.469,-0.156 -0.156,-0.031 -0.324,-0.047 -0.5,-0.047 -0.5,0 -0.898,0.149 -1.187,0.453 -0.293,0.313 -0.438,0.735 -0.438,1.266 0,0.531 0.145,0.945 0.438,1.25 0.3,0.312 0.707,0.469 1.218,0.469 0.164,0 0.328,-0.016 0.485,-0.047 0.156,-0.031 0.304,-0.086 0.453,-0.156 z" /><path
         id="path114"
         style="fill:#000000;fill-opacity:1;fill-rule:nonzero;stroke:none"
         d="m 271.867,2.994 c -0.293,0 -0.523,-0.118 -0.687,-0.344 -0.168,-0.219 -0.25,-0.528 -0.25,-0.922 0,-0.399 0.082,-0.711 0.25,-0.938 0.164,-0.218 0.394,-0.328 0.687,-0.328 0.281,0 0.504,0.11 0.672,0.328 0.164,0.227 0.25,0.539 0.25,0.938 0,0.383 -0.086,0.691 -0.25,0.922 -0.168,0.226 -0.391,0.344 -0.672,0.344 z m 0,0.453 c 0.469,0 0.832,-0.153 1.094,-0.453 0.269,-0.305 0.406,-0.727 0.406,-1.266 0,-0.543 -0.137,-0.965 -0.406,-1.266 -0.262,-0.304 -0.625,-0.453 -1.094,-0.453 -0.48,0 -0.855,0.149 -1.125,0.453 -0.262,0.301 -0.39,0.723 -0.39,1.266 0,0.539 0.128,0.961 0.39,1.266 0.27,0.3 0.645,0.453 1.125,0.453 z" /><path
         id="path116"
         style="fill:#000000;fill-opacity:1;fill-rule:nonzero;stroke:none"
         d="m 275.902,1.744 c -0.437,0 -0.742,-0.055 -0.906,-0.157 -0.168,-0.105 -0.25,-0.277 -0.25,-0.515 0,-0.188 0.063,-0.34 0.188,-0.453 0.125,-0.118 0.296,-0.172 0.515,-0.172 0.289,0 0.524,0.101 0.703,0.312 0.188,0.219 0.282,0.504 0.282,0.86 v 0.125 z m 1.063,0.218 V 0.087 h -0.531 v 0.5 c -0.125,-0.199 -0.282,-0.343 -0.469,-0.437 -0.18,-0.094 -0.403,-0.141 -0.672,-0.141 -0.336,0 -0.602,0.094 -0.797,0.281 -0.199,0.188 -0.297,0.438 -0.297,0.75 0,0.375 0.125,0.657 0.375,0.844 0.25,0.188 0.617,0.281 1.11,0.281 h 0.75 v 0.047 c 0,0.25 -0.086,0.442 -0.25,0.578 -0.157,0.133 -0.387,0.204 -0.688,0.204 -0.187,0 -0.371,-0.028 -0.547,-0.079 -0.179,-0.043 -0.351,-0.105 -0.515,-0.187 v 0.484 c 0.195,0.082 0.39,0.141 0.578,0.172 0.187,0.039 0.367,0.063 0.547,0.063 0.468,0 0.816,-0.125 1.046,-0.375 0.239,-0.243 0.36,-0.61 0.36,-1.11 z" /><path
         id="path118"
         style="fill:#000000;fill-opacity:1;fill-rule:nonzero;stroke:none"
         d="m 278.23,4.65 h 0.547 V 0.088 h -0.547 z" /><path
         id="path120"
         style="fill:#000000;fill-opacity:1;fill-rule:nonzero;stroke:none"
         d="m 280.195,9.603 h 0.782 c 0.488,-0.774 0.851,-1.527 1.093,-2.266 0.25,-0.73 0.375,-1.461 0.375,-2.187 0,-0.731 -0.125,-1.465 -0.375,-2.203 -0.242,-0.743 -0.605,-1.489 -1.093,-2.25 h -0.782 c 0.438,0.742 0.758,1.476 0.969,2.218 0.219,0.739 0.328,1.485 0.328,2.235 0,0.75 -0.109,1.488 -0.328,2.219 -0.211,0.738 -0.531,1.484 -0.969,2.234 z" /><path
         id="path122"
         style="fill:#000000;fill-opacity:1;fill-rule:nonzero;stroke:none"
         d="m 302.133,7.384 -2.235,-2.25 2.235,-2.219 -0.578,-0.593 -2.25,2.234 -2.235,-2.234 -0.578,0.593 2.219,2.219 -2.219,2.25 0.578,0.594 2.235,-2.25 2.25,2.25 z" /><path
         id="path124"
         style="fill:#000000;fill-opacity:1;fill-rule:nonzero;stroke:none"
         d="m 306.258,9.603 c -0.43,-0.75 -0.75,-1.496 -0.969,-2.234 -0.211,-0.731 -0.312,-1.469 -0.312,-2.219 0,-0.75 0.101,-1.496 0.312,-2.235 0.219,-0.742 0.539,-1.476 0.969,-2.218 h -0.781 c -0.481,0.761 -0.844,1.507 -1.094,2.25 -0.242,0.738 -0.36,1.472 -0.36,2.203 0,0.726 0.118,1.457 0.36,2.187 0.238,0.739 0.601,1.492 1.094,2.266 z" /><path
         id="path126"
         style="fill:#000000;fill-opacity:1;fill-rule:nonzero;stroke:none"
         d="m 308.148,2.837 h 1.625 V 8.4 l -1.765,-0.344 v 0.891 l 1.75,0.359 h 0.984 V 2.837 h 1.61 V 2.009 h -4.204 z" /><path
         id="path128"
         style="fill:#000000;fill-opacity:1;fill-rule:nonzero;stroke:none"
         d="m 313.508,5.15 h 2.641 V 4.353 h -2.641 z" /><path
         id="path130"
         style="fill:#000000;fill-opacity:1;fill-rule:nonzero;stroke:none"
         d="m 318.305,2.837 v -2.906 h -0.907 v 7.547 h 0.907 V 6.65 c 0.187,0.32 0.422,0.562 0.703,0.719 0.289,0.156 0.64,0.234 1.047,0.234 0.664,0 1.203,-0.266 1.609,-0.797 0.414,-0.523 0.625,-1.211 0.625,-2.062 0,-0.868 -0.211,-1.563 -0.625,-2.094 -0.406,-0.524 -0.945,-0.781 -1.609,-0.781 -0.407,0 -0.758,0.078 -1.047,0.234 -0.281,0.156 -0.516,0.398 -0.703,0.734 z m 3.062,1.907 c 0,0.656 -0.14,1.171 -0.422,1.546 -0.273,0.375 -0.64,0.563 -1.109,0.563 -0.481,0 -0.856,-0.188 -1.125,-0.563 -0.273,-0.375 -0.406,-0.89 -0.406,-1.546 0,-0.668 0.133,-1.188 0.406,-1.563 0.269,-0.375 0.644,-0.562 1.125,-0.562 0.469,0 0.836,0.187 1.109,0.562 0.282,0.375 0.422,0.895 0.422,1.563 z" /><path
         id="path132"
         style="fill:#000000;fill-opacity:1;fill-rule:nonzero;stroke:none"
         d="m 325.508,3.244 v -0.5 c -0.149,0.082 -0.297,0.144 -0.453,0.187 -0.157,0.039 -0.313,0.063 -0.469,0.063 -0.344,0 -0.617,-0.118 -0.813,-0.344 -0.187,-0.219 -0.281,-0.528 -0.281,-0.922 0,-0.406 0.094,-0.719 0.281,-0.938 0.196,-0.218 0.469,-0.328 0.813,-0.328 0.156,0 0.312,0.02 0.469,0.063 0.156,0.039 0.304,0.101 0.453,0.187 v -0.5 c -0.149,-0.074 -0.305,-0.125 -0.469,-0.156 -0.156,-0.031 -0.324,-0.047 -0.5,-0.047 -0.5,0 -0.898,0.149 -1.187,0.453 -0.293,0.313 -0.438,0.735 -0.438,1.266 0,0.531 0.145,0.945 0.438,1.25 0.3,0.312 0.707,0.469 1.218,0.469 0.164,0 0.328,-0.016 0.485,-0.047 0.156,-0.031 0.304,-0.086 0.453,-0.156 z" /><path
         id="path134"
         style="fill:#000000;fill-opacity:1;fill-rule:nonzero;stroke:none"
         d="m 327.867,2.994 c -0.293,0 -0.523,-0.118 -0.687,-0.344 -0.168,-0.219 -0.25,-0.528 -0.25,-0.922 0,-0.399 0.082,-0.711 0.25,-0.938 0.164,-0.218 0.394,-0.328 0.687,-0.328 0.281,0 0.504,0.11 0.672,0.328 0.164,0.227 0.25,0.539 0.25,0.938 0,0.383 -0.086,0.691 -0.25,0.922 -0.168,0.226 -0.391,0.344 -0.672,0.344 z m 0,0.453 c 0.469,0 0.832,-0.153 1.094,-0.453 0.269,-0.305 0.406,-0.727 0.406,-1.266 0,-0.543 -0.137,-0.965 -0.406,-1.266 -0.262,-0.304 -0.625,-0.453 -1.094,-0.453 -0.48,0 -0.855,0.149 -1.125,0.453 -0.262,0.301 -0.39,0.723 -0.39,1.266 0,0.539 0.128,0.961 0.39,1.266 0.27,0.3 0.645,0.453 1.125,0.453 z" /><path
         id="path136"
         style="fill:#000000;fill-opacity:1;fill-rule:nonzero;stroke:none"
         d="m 331.902,1.744 c -0.437,0 -0.742,-0.055 -0.906,-0.157 -0.168,-0.105 -0.25,-0.277 -0.25,-0.515 0,-0.188 0.063,-0.34 0.188,-0.453 0.125,-0.118 0.296,-0.172 0.515,-0.172 0.289,0 0.524,0.101 0.703,0.312 0.188,0.219 0.282,0.504 0.282,0.86 v 0.125 z m 1.063,0.218 V 0.087 h -0.531 v 0.5 c -0.125,-0.199 -0.282,-0.343 -0.469,-0.437 -0.18,-0.094 -0.403,-0.141 -0.672,-0.141 -0.336,0 -0.602,0.094 -0.797,0.281 -0.199,0.188 -0.297,0.438 -0.297,0.75 0,0.375 0.125,0.657 0.375,0.844 0.25,0.188 0.617,0.281 1.11,0.281 h 0.75 v 0.047 c 0,0.25 -0.086,0.442 -0.25,0.578 -0.157,0.133 -0.387,0.204 -0.688,0.204 -0.187,0 -0.371,-0.028 -0.547,-0.079 -0.179,-0.043 -0.351,-0.105 -0.515,-0.187 v 0.484 c 0.195,0.082 0.39,0.141 0.578,0.172 0.187,0.039 0.367,0.063 0.547,0.063 0.468,0 0.816,-0.125 1.046,-0.375 0.239,-0.243 0.36,-0.61 0.36,-1.11 z" /><path
         id="path138"
         style="fill:#000000;fill-opacity:1;fill-rule:nonzero;stroke:none"
         d="m 334.23,4.65 h 0.547 V 0.088 h -0.547 z" /><path
         id="path140"
         style="fill:#000000;fill-opacity:1;fill-rule:nonzero;stroke:none"
         d="m 336.195,9.603 h 0.782 c 0.488,-0.774 0.851,-1.527 1.093,-2.266 0.25,-0.73 0.375,-1.461 0.375,-2.187 0,-0.731 -0.125,-1.465 -0.375,-2.203 -0.242,-0.743 -0.605,-1.489 -1.093,-2.25 h -0.782 c 0.438,0.742 0.758,1.476 0.969,2.218 0.219,0.739 0.328,1.485 0.328,2.235 0,0.75 -0.109,1.488 -0.328,2.219 -0.211,0.738 -0.531,1.484 -0.969,2.234 z" /><path
         id="path142"
         style="fill:#000000;fill-opacity:1;fill-rule:nonzero;stroke:none"
         d="m 366.133,7.384 -2.235,-2.25 2.235,-2.219 -0.578,-0.593 -2.25,2.234 -2.235,-2.234 -0.578,0.593 2.219,2.219 -2.219,2.25 0.578,0.594 2.235,-2.25 2.25,2.25 z" /><path
         id="path144"
         style="fill:#000000;fill-opacity:1;fill-rule:nonzero;stroke:none"
         d="m 369.008,2.353 v -2.422 h -0.906 v 7.516 c 0,1.476 0.691,2.218 2.078,2.218 1.414,0 2.125,-0.625 2.125,-1.875 0,-0.898 -0.282,-1.507 -0.844,-1.828 0.914,-0.293 1.375,-0.871 1.375,-1.734 0,-1.555 -0.789,-2.328 -2.359,-2.328 -0.688,0 -1.18,0.148 -1.469,0.453 z m 0,1.172 c 0.363,-0.563 0.863,-0.844 1.5,-0.844 0.937,0 1.406,0.508 1.406,1.531 0,0.914 -0.758,1.336 -2.266,1.266 v 0.828 c 1.188,0 1.782,0.52 1.782,1.563 0,0.707 -0.387,1.062 -1.157,1.062 -0.843,0 -1.265,-0.508 -1.265,-1.516 z" /><path
         id="path146"
         style="fill:#000000;fill-opacity:1;fill-rule:nonzero;stroke:none"
         d="M 378.652,9.056 V 8.103 c -0.375,0.176 -0.73,0.305 -1.062,0.391 -0.336,0.093 -0.656,0.14 -0.969,0.14 -0.531,0 -0.945,-0.105 -1.234,-0.312 -0.293,-0.211 -0.438,-0.508 -0.438,-0.891 0,-0.324 0.094,-0.57 0.281,-0.734 0.196,-0.168 0.567,-0.297 1.11,-0.391 l 0.594,-0.125 c 0.726,-0.148 1.269,-0.398 1.625,-0.75 0.351,-0.344 0.531,-0.812 0.531,-1.406 0,-0.711 -0.242,-1.246 -0.719,-1.61 -0.469,-0.367 -1.164,-0.546 -2.078,-0.546 -0.344,0 -0.715,0.043 -1.109,0.125 -0.387,0.07 -0.789,0.187 -1.204,0.343 v 1.016 c 0.407,-0.231 0.797,-0.402 1.172,-0.516 0.383,-0.117 0.766,-0.172 1.141,-0.172 0.562,0 0.992,0.11 1.297,0.329 0.312,0.226 0.469,0.546 0.469,0.953 0,0.351 -0.11,0.629 -0.329,0.828 -0.218,0.207 -0.585,0.363 -1.093,0.469 l -0.594,0.109 c -0.742,0.144 -1.277,0.375 -1.609,0.687 -0.325,0.313 -0.485,0.75 -0.485,1.313 0,0.644 0.223,1.148 0.672,1.516 0.457,0.375 1.086,0.562 1.891,0.562 0.343,0 0.691,-0.031 1.047,-0.094 0.351,-0.062 0.718,-0.156 1.093,-0.281 z" /><path
         id="path148"
         style="fill:#000000;fill-opacity:1;fill-rule:nonzero;stroke:none"
         d="m 380.371,9.306 h 0.984 V 2.009 h -0.984 z" /><path
         id="path150"
         style="fill:#000000;fill-opacity:1;fill-rule:nonzero;stroke:none"
         d="m 384.031,2.837 v -2.906 h -0.906 v 7.547 h 0.906 V 6.65 c 0.188,0.32 0.422,0.562 0.703,0.719 0.289,0.156 0.641,0.234 1.047,0.234 0.664,0 1.203,-0.266 1.61,-0.797 0.414,-0.523 0.625,-1.211 0.625,-2.062 0,-0.868 -0.211,-1.563 -0.625,-2.094 -0.407,-0.524 -0.946,-0.781 -1.61,-0.781 -0.406,0 -0.758,0.078 -1.047,0.234 -0.281,0.156 -0.515,0.398 -0.703,0.734 z m 3.063,1.907 c 0,0.656 -0.141,1.171 -0.422,1.546 -0.274,0.375 -0.641,0.563 -1.11,0.563 -0.48,0 -0.855,-0.188 -1.124,-0.563 -0.274,-0.375 -0.407,-0.89 -0.407,-1.546 0,-0.668 0.133,-1.188 0.407,-1.563 0.269,-0.375 0.644,-0.562 1.124,-0.562 0.469,0 0.836,0.187 1.11,0.562 0.281,0.375 0.422,0.895 0.422,1.563 z" /><path
         id="path152"
         style="fill:#000000;fill-opacity:1;fill-rule:nonzero;stroke:none"
         d="m 391.234,3.244 v -0.5 c -0.148,0.082 -0.296,0.144 -0.453,0.187 -0.156,0.039 -0.312,0.063 -0.469,0.063 -0.343,0 -0.617,-0.118 -0.812,-0.344 -0.188,-0.219 -0.281,-0.528 -0.281,-0.922 0,-0.406 0.093,-0.719 0.281,-0.938 0.195,-0.218 0.469,-0.328 0.812,-0.328 0.157,0 0.313,0.02 0.469,0.063 0.157,0.039 0.305,0.101 0.453,0.187 v -0.5 c -0.148,-0.074 -0.304,-0.125 -0.468,-0.156 -0.157,-0.031 -0.325,-0.047 -0.5,-0.047 -0.5,0 -0.899,0.149 -1.188,0.453 -0.293,0.313 -0.437,0.735 -0.437,1.266 0,0.531 0.144,0.945 0.437,1.25 0.301,0.312 0.707,0.469 1.219,0.469 0.164,0 0.328,-0.016 0.484,-0.047 0.157,-0.031 0.305,-0.086 0.453,-0.156 z" /><path
         id="path154"
         style="fill:#000000;fill-opacity:1;fill-rule:nonzero;stroke:none"
         d="m 393.594,2.994 c -0.293,0 -0.524,-0.118 -0.688,-0.344 -0.168,-0.219 -0.25,-0.528 -0.25,-0.922 0,-0.399 0.082,-0.711 0.25,-0.938 0.164,-0.218 0.395,-0.328 0.688,-0.328 0.281,0 0.504,0.11 0.672,0.328 0.164,0.227 0.25,0.539 0.25,0.938 0,0.383 -0.086,0.691 -0.25,0.922 -0.168,0.226 -0.391,0.344 -0.672,0.344 z m 0,0.453 c 0.468,0 0.832,-0.153 1.094,-0.453 0.269,-0.305 0.406,-0.727 0.406,-1.266 0,-0.543 -0.137,-0.965 -0.406,-1.266 -0.262,-0.304 -0.626,-0.453 -1.094,-0.453 -0.481,0 -0.856,0.149 -1.125,0.453 -0.262,0.301 -0.391,0.723 -0.391,1.266 0,0.539 0.129,0.961 0.391,1.266 0.269,0.3 0.644,0.453 1.125,0.453 z" /><path
         id="path156"
         style="fill:#000000;fill-opacity:1;fill-rule:nonzero;stroke:none"
         d="m 397.625,1.744 c -0.437,0 -0.742,-0.055 -0.906,-0.157 -0.168,-0.105 -0.25,-0.277 -0.25,-0.515 0,-0.188 0.062,-0.34 0.187,-0.453 0.125,-0.118 0.297,-0.172 0.516,-0.172 0.289,0 0.523,0.101 0.703,0.312 0.187,0.219 0.281,0.504 0.281,0.86 v 0.125 z m 1.063,0.218 V 0.087 h -0.532 v 0.5 c -0.125,-0.199 -0.281,-0.343 -0.468,-0.437 -0.18,-0.094 -0.403,-0.141 -0.672,-0.141 -0.336,0 -0.602,0.094 -0.797,0.281 -0.199,0.188 -0.297,0.438 -0.297,0.75 0,0.375 0.125,0.657 0.375,0.844 0.25,0.188 0.617,0.281 1.109,0.281 h 0.75 v 0.047 c 0,0.25 -0.086,0.442 -0.25,0.578 -0.156,0.133 -0.386,0.204 -0.687,0.204 -0.188,0 -0.371,-0.028 -0.547,-0.079 -0.18,-0.043 -0.352,-0.105 -0.516,-0.187 v 0.484 c 0.196,0.082 0.391,0.141 0.578,0.172 0.188,0.039 0.368,0.063 0.547,0.063 0.469,0 0.817,-0.125 1.047,-0.375 0.238,-0.243 0.36,-0.61 0.36,-1.11 z" /><path
         id="path158"
         style="fill:#000000;fill-opacity:1;fill-rule:nonzero;stroke:none"
         d="M 399.953,4.65 H 400.5 V 0.088 h -0.547 z" /><g
         transform="matrix(1,0,0,-1,0,166.33339)"
         id="g160"><path
           id="path162"
           style="fill:none;stroke:#0000ff;stroke-width:0.40000001;stroke-linecap:butt;stroke-linejoin:miter;stroke-miterlimit:4;stroke-dasharray:none;stroke-opacity:1"
           d="m 71.117,140.324 v 12" /></g><g
         transform="matrix(1,0,0,-1,0,166.33339)"
         id="g164"><path
           id="path166"
           style="fill:none;stroke:#0000ff;stroke-width:0.40000001;stroke-linecap:butt;stroke-linejoin:miter;stroke-miterlimit:4;stroke-dasharray:none;stroke-opacity:1"
           d="m 127.117,132.324 v 20" /></g><g
         transform="matrix(1,0,0,-1,0,166.33339)"
         id="g168"><path
           id="path170"
           style="fill:none;stroke:#0000ff;stroke-width:0.40000001;stroke-linecap:butt;stroke-linejoin:miter;stroke-miterlimit:4;stroke-dasharray:none;stroke-opacity:1"
           d="m 263.117,140.324 v 12" /></g><g
         transform="matrix(1,0,0,-1,0,166.33339)"
         id="g172"><path
           id="path174"
           style="fill:none;stroke:#0000ff;stroke-width:0.40000001;stroke-linecap:butt;stroke-linejoin:miter;stroke-miterlimit:4;stroke-dasharray:none;stroke-opacity:1"
           d="m 319.117,132.324 v 20" /></g><g
         transform="matrix(1,0,0,-1,0,166.33339)"
         id="g176"><path
           id="path178"
           style="fill:none;stroke:#0000ff;stroke-width:0.40000001;stroke-linecap:butt;stroke-linejoin:miter;stroke-miterlimit:4;stroke-dasharray:none;stroke-opacity:1"
           d="m 375.117,124.324 v 28" /></g><path
         id="path180"
         style="fill:#000000;fill-opacity:1;fill-rule:nonzero;stroke:none"
         d="m 23.539,7.478 h 0.891 l 1.125,-4.266 1.125,4.266 h 1.062 l 1.125,-4.266 1.11,4.266 h 0.906 L 29.445,2.009 H 28.383 L 27.211,6.494 26.023,2.009 h -1.062 z" /><path
         id="path182"
         style="fill:#000000;fill-opacity:1;fill-rule:nonzero;stroke:none"
         d="m 34.07,13.443 c -0.429,-0.75 -0.75,-1.496 -0.968,-2.235 -0.211,-0.73 -0.313,-1.468 -0.313,-2.218 0,-0.75 0.102,-1.496 0.313,-2.235 0.218,-0.742 0.539,-1.476 0.968,-2.218 h -0.781 c -0.48,0.761 -0.844,1.507 -1.094,2.25 -0.242,0.738 -0.359,1.472 -0.359,2.203 0,0.726 0.117,1.457 0.359,2.187 0.239,0.738 0.602,1.492 1.094,2.266 z" /><path
         id="path184"
         style="fill:#000000;fill-opacity:1;fill-rule:nonzero;stroke:none"
         d="m 35.961,6.677 h 1.625 V 12.24 L 35.82,11.896 v 0.891 l 1.75,0.359 h 0.985 V 6.677 h 1.609 V 5.849 h -4.203 z" /><path
         id="path186"
         style="fill:#000000;fill-opacity:1;fill-rule:nonzero;stroke:none"
         d="m 41.633,13.443 h 0.781 c 0.488,-0.774 0.852,-1.528 1.094,-2.266 0.25,-0.73 0.375,-1.461 0.375,-2.187 0,-0.731 -0.125,-1.465 -0.375,-2.203 -0.242,-0.743 -0.606,-1.489 -1.094,-2.25 h -0.781 c 0.437,0.742 0.758,1.476 0.969,2.218 0.218,0.739 0.328,1.485 0.328,2.235 0,0.75 -0.11,1.488 -0.328,2.218 -0.211,0.739 -0.532,1.485 -0.969,2.235 z" /><path
         id="path188"
         style="fill:#000000;fill-opacity:1;fill-rule:nonzero;stroke:none"
         d="m 45.648,6.556 h 6.25 V 5.728 h -6.25 z m 0,-2 h 6.25 V 3.728 h -6.25 z" /><g
         transform="matrix(1,0,0,-1,0,166.33339)"
         id="g190"><path
           id="path192"
           style="fill:none;stroke:#ffffff;stroke-width:4;stroke-linecap:butt;stroke-linejoin:miter;stroke-miterlimit:4;stroke-dasharray:none;stroke-opacity:1"
           d="m 15.117,140.324 360,-16" /></g><g
         transform="matrix(1,0,0,-1,0,166.33339)"
         id="g194"><path
           id="path196"
           style="fill:none;stroke:#ff00db;stroke-width:1.60000002;stroke-linecap:butt;stroke-linejoin:miter;stroke-miterlimit:4;stroke-dasharray:none;stroke-opacity:1"
           d="m 15.117,140.324 360,-16 v -8 h 8" /></g></g></g></svg>