<?xml version="1.0" encoding="UTF-8" standalone="no"?>
<svg
   xmlns:dc="http://purl.org/dc/elements/1.1/"
   xmlns:cc="http://creativecommons.org/ns#"
   xmlns:rdf="http://www.w3.org/1999/02/22-rdf-syntax-ns#"
   xmlns:svg="http://www.w3.org/2000/svg"
   xmlns="http://www.w3.org/2000/svg"
   viewBox="0 0 587.30414 438.84448"
   height="438.84448"
   width="587.30414"
   xml:space="preserve"
   id="svg2"
   version="1.1"><metadata
     id="metadata8"><rdf:RDF><cc:Work
         rdf:about=""><dc:format>image/svg+xml</dc:format><dc:type
           rdf:resource="http://purl.org/dc/dcmitype/StillImage" /></cc:Work></rdf:RDF></metadata><defs
     id="defs6" /><g
     transform="matrix(1.3333333,0,0,-1.3333333,0,438.84448)"
     id="g10"><g
       id="g12"><g
         transform="matrix(1,0,0,-1,0,329.13336)"
         id="g14"><path
           id="path16"
           style="fill:none;stroke:#0000ff;stroke-width:1.60000002;stroke-linecap:butt;stroke-linejoin:miter;stroke-miterlimit:4;stroke-dasharray:none;stroke-opacity:1"
           d="m 15.117,63.125 h 80 v -40 h 96" /></g><g
         transform="matrix(1,0,0,-1,0,329.13336)"
         id="g18"><path
           id="path20"
           style="fill:none;stroke:#0000ff;stroke-width:1.60000002;stroke-linecap:butt;stroke-linejoin:miter;stroke-miterlimit:4;stroke-dasharray:none;stroke-opacity:1"
           d="m 95.117,39.125 v 64 h 176 v -32 h 64" /></g><g
         transform="matrix(1,0,0,-1,0,329.13336)"
         id="g22"><path
           id="path24"
           style="fill:none;stroke:#0000ff;stroke-width:1.60000002;stroke-linecap:butt;stroke-linejoin:miter;stroke-miterlimit:4;stroke-dasharray:none;stroke-opacity:1"
           d="m 271.117,103.125 v 32 h 112" /></g><path
         id="path26"
         style="fill:#000000;fill-opacity:1;fill-rule:nonzero;stroke:none"
         d="m 205.102,313.071 v -1.547 c -0.399,0.176 -0.79,0.312 -1.172,0.406 -0.375,0.094 -0.735,0.141 -1.078,0.141 -0.45,0 -0.782,-0.063 -1,-0.188 -0.211,-0.125 -0.313,-0.32 -0.313,-0.578 0,-0.199 0.07,-0.355 0.219,-0.469 0.144,-0.105 0.406,-0.195 0.781,-0.265 l 0.813,-0.156 c 0.8,-0.168 1.375,-0.418 1.718,-0.75 0.344,-0.336 0.516,-0.809 0.516,-1.422 0,-0.805 -0.242,-1.403 -0.719,-1.797 -0.469,-0.387 -1.199,-0.578 -2.187,-0.578 -0.461,0 -0.922,0.047 -1.391,0.14 -0.461,0.082 -0.922,0.207 -1.391,0.375 v 1.594 c 0.469,-0.25 0.914,-0.437 1.344,-0.562 0.438,-0.125 0.86,-0.188 1.266,-0.188 0.406,0 0.719,0.067 0.937,0.203 0.219,0.133 0.328,0.332 0.328,0.594 0,0.227 -0.074,0.398 -0.218,0.516 -0.149,0.125 -0.446,0.238 -0.891,0.343 l -0.719,0.157 c -0.73,0.156 -1.265,0.406 -1.609,0.75 -0.336,0.343 -0.5,0.8 -0.5,1.375 0,0.726 0.234,1.285 0.703,1.671 0.469,0.395 1.141,0.594 2.016,0.594 0.406,0 0.816,-0.031 1.234,-0.094 0.426,-0.062 0.863,-0.152 1.313,-0.265 z m 4.234,-4.594 c -0.367,0 -0.641,-0.062 -0.828,-0.187 -0.188,-0.125 -0.281,-0.309 -0.281,-0.547 0,-0.231 0.07,-0.407 0.218,-0.532 0.157,-0.125 0.364,-0.187 0.625,-0.187 0.332,0 0.61,0.117 0.828,0.359 0.227,0.239 0.344,0.536 0.344,0.891 v 0.203 z m 2.672,0.656 v -3.125 h -1.766 v 0.813 c -0.242,-0.336 -0.508,-0.578 -0.797,-0.735 -0.293,-0.144 -0.648,-0.218 -1.062,-0.218 -0.574,0 -1.039,0.16 -1.391,0.484 -0.344,0.332 -0.515,0.766 -0.515,1.297 0,0.645 0.218,1.113 0.656,1.406 0.437,0.301 1.129,0.453 2.078,0.453 h 1.031 v 0.141 c 0,0.27 -0.109,0.469 -0.328,0.594 -0.219,0.133 -0.559,0.203 -1.016,0.203 -0.375,0 -0.726,-0.039 -1.046,-0.11 -0.325,-0.074 -0.625,-0.187 -0.907,-0.343 v 1.343 c 0.375,0.083 0.75,0.145 1.125,0.188 0.383,0.051 0.766,0.078 1.141,0.078 0.988,0 1.703,-0.195 2.141,-0.578 0.437,-0.387 0.656,-1.016 0.656,-1.891 z m 6.422,1.438 c 0.218,0.332 0.476,0.586 0.781,0.765 0.312,0.176 0.648,0.266 1.016,0.266 0.625,0 1.097,-0.195 1.421,-0.578 0.332,-0.387 0.5,-0.949 0.5,-1.688 v -3.328 h -1.75 v 2.86 c 0,0.039 0,0.082 0,0.125 0,0.039 0,0.101 0,0.187 0,0.395 -0.058,0.676 -0.171,0.844 -0.106,0.176 -0.289,0.266 -0.547,0.266 -0.336,0 -0.59,-0.137 -0.766,-0.407 -0.18,-0.273 -0.273,-0.668 -0.281,-1.187 v -2.688 h -1.766 v 2.86 c 0,0.601 -0.055,0.988 -0.156,1.156 -0.106,0.176 -0.289,0.266 -0.547,0.266 -0.336,0 -0.594,-0.141 -0.781,-0.422 -0.18,-0.274 -0.266,-0.664 -0.266,-1.172 v -2.688 h -1.765 v 5.469 h 1.765 v -0.797 c 0.207,0.301 0.453,0.531 0.735,0.688 0.281,0.156 0.586,0.234 0.921,0.234 0.375,0 0.707,-0.094 1,-0.281 0.289,-0.18 0.508,-0.43 0.657,-0.75 z m 6.703,-3.766 v -2.875 h -1.75 v 7.547 h 1.75 v -0.797 c 0.238,0.313 0.504,0.539 0.797,0.688 0.289,0.156 0.629,0.234 1.015,0.234 0.664,0 1.211,-0.266 1.641,-0.797 0.437,-0.531 0.656,-1.219 0.656,-2.062 0,-0.844 -0.219,-1.539 -0.656,-2.078 -0.43,-0.532 -0.977,-0.797 -1.641,-0.797 -0.386,0 -0.726,0.074 -1.015,0.218 -0.293,0.157 -0.559,0.395 -0.797,0.719 z m 1.156,3.531 c -0.375,0 -0.664,-0.14 -0.859,-0.421 -0.2,-0.274 -0.297,-0.664 -0.297,-1.172 0,-0.524 0.097,-0.922 0.297,-1.203 0.195,-0.274 0.484,-0.407 0.859,-0.407 0.375,0 0.66,0.133 0.859,0.407 0.196,0.281 0.297,0.679 0.297,1.203 0,0.519 -0.101,0.914 -0.297,1.187 -0.199,0.27 -0.484,0.406 -0.859,0.406 z m 3.973,3.266 h 1.75 v -7.594 h -1.75 z m 8.754,-4.844 v -0.5 h -4.078 c 0.039,-0.406 0.187,-0.714 0.437,-0.922 0.25,-0.21 0.602,-0.312 1.063,-0.312 0.363,0 0.738,0.051 1.124,0.156 0.395,0.114 0.797,0.285 1.204,0.516 v -1.36 c -0.418,-0.156 -0.836,-0.273 -1.25,-0.343 -0.407,-0.082 -0.821,-0.125 -1.235,-0.125 -0.992,0 -1.761,0.25 -2.312,0.75 -0.543,0.508 -0.813,1.218 -0.813,2.125 0,0.883 0.266,1.582 0.797,2.093 0.539,0.508 1.285,0.766 2.235,0.766 0.851,0 1.535,-0.262 2.046,-0.781 0.52,-0.512 0.782,-1.199 0.782,-2.063 z m -1.797,0.578 c 0,0.333 -0.102,0.598 -0.297,0.797 -0.188,0.207 -0.438,0.313 -0.75,0.313 -0.344,0 -0.621,-0.094 -0.828,-0.281 -0.211,-0.188 -0.34,-0.465 -0.391,-0.829 z m 6.515,-2.031 h 1.657 v 4.719 l -1.703,-0.359 v 1.281 l 1.703,0.359 h 1.781 v -6 h 1.656 v -1.297 h -5.094 z" /><path
         id="path28"
         style="fill:#000000;fill-opacity:1;fill-rule:nonzero;stroke:none"
         d="m 349.102,265.071 v -1.547 c -0.399,0.176 -0.79,0.312 -1.172,0.406 -0.375,0.094 -0.735,0.141 -1.078,0.141 -0.45,0 -0.782,-0.063 -1,-0.188 -0.211,-0.125 -0.313,-0.32 -0.313,-0.578 0,-0.199 0.07,-0.355 0.219,-0.469 0.144,-0.105 0.406,-0.195 0.781,-0.265 l 0.813,-0.156 c 0.8,-0.168 1.375,-0.418 1.718,-0.75 0.344,-0.336 0.516,-0.809 0.516,-1.422 0,-0.805 -0.242,-1.403 -0.719,-1.797 -0.469,-0.387 -1.199,-0.578 -2.187,-0.578 -0.461,0 -0.922,0.047 -1.391,0.14 -0.461,0.082 -0.922,0.207 -1.391,0.375 v 1.594 c 0.469,-0.25 0.914,-0.437 1.344,-0.562 0.438,-0.125 0.86,-0.188 1.266,-0.188 0.406,0 0.719,0.067 0.937,0.203 0.219,0.133 0.328,0.332 0.328,0.594 0,0.227 -0.074,0.398 -0.218,0.516 -0.149,0.125 -0.446,0.238 -0.891,0.343 l -0.719,0.157 c -0.73,0.156 -1.265,0.406 -1.609,0.75 -0.336,0.343 -0.5,0.8 -0.5,1.375 0,0.726 0.234,1.285 0.703,1.671 0.469,0.395 1.141,0.594 2.016,0.594 0.406,0 0.816,-0.031 1.234,-0.094 0.426,-0.062 0.863,-0.152 1.313,-0.265 z m 4.234,-4.594 c -0.367,0 -0.641,-0.062 -0.828,-0.187 -0.188,-0.125 -0.281,-0.309 -0.281,-0.547 0,-0.231 0.07,-0.407 0.218,-0.532 0.157,-0.125 0.364,-0.187 0.625,-0.187 0.332,0 0.61,0.117 0.828,0.359 0.227,0.239 0.344,0.536 0.344,0.891 v 0.203 z m 2.672,0.656 v -3.125 h -1.766 v 0.813 c -0.242,-0.336 -0.508,-0.578 -0.797,-0.735 -0.293,-0.144 -0.648,-0.218 -1.062,-0.218 -0.574,0 -1.039,0.16 -1.391,0.484 -0.344,0.332 -0.515,0.766 -0.515,1.297 0,0.645 0.218,1.113 0.656,1.406 0.437,0.301 1.129,0.453 2.078,0.453 h 1.031 v 0.141 c 0,0.27 -0.109,0.469 -0.328,0.594 -0.219,0.133 -0.559,0.203 -1.016,0.203 -0.375,0 -0.726,-0.039 -1.046,-0.11 -0.325,-0.074 -0.625,-0.187 -0.907,-0.343 v 1.343 c 0.375,0.083 0.75,0.145 1.125,0.188 0.383,0.051 0.766,0.078 1.141,0.078 0.988,0 1.703,-0.195 2.141,-0.578 0.437,-0.387 0.656,-1.016 0.656,-1.891 z m 6.422,1.438 c 0.218,0.332 0.476,0.586 0.781,0.765 0.312,0.176 0.648,0.266 1.016,0.266 0.625,0 1.097,-0.195 1.421,-0.578 0.332,-0.387 0.5,-0.949 0.5,-1.688 v -3.328 h -1.75 v 2.86 c 0,0.039 0,0.082 0,0.125 0,0.039 0,0.101 0,0.187 0,0.395 -0.058,0.676 -0.171,0.844 -0.106,0.176 -0.289,0.266 -0.547,0.266 -0.336,0 -0.59,-0.137 -0.766,-0.407 -0.18,-0.273 -0.273,-0.668 -0.281,-1.187 v -2.688 h -1.766 v 2.86 c 0,0.601 -0.055,0.988 -0.156,1.156 -0.106,0.176 -0.289,0.266 -0.547,0.266 -0.336,0 -0.594,-0.141 -0.781,-0.422 -0.18,-0.274 -0.266,-0.664 -0.266,-1.172 v -2.688 h -1.765 v 5.469 h 1.765 v -0.797 c 0.207,0.301 0.453,0.531 0.735,0.688 0.281,0.156 0.586,0.234 0.921,0.234 0.375,0 0.707,-0.094 1,-0.281 0.289,-0.18 0.508,-0.43 0.657,-0.75 z m 6.703,-3.766 v -2.875 h -1.75 v 7.547 h 1.75 v -0.797 c 0.238,0.313 0.504,0.539 0.797,0.688 0.289,0.156 0.629,0.234 1.015,0.234 0.664,0 1.211,-0.266 1.641,-0.797 0.437,-0.531 0.656,-1.219 0.656,-2.062 0,-0.844 -0.219,-1.539 -0.656,-2.078 -0.43,-0.532 -0.977,-0.797 -1.641,-0.797 -0.386,0 -0.726,0.074 -1.015,0.218 -0.293,0.157 -0.559,0.395 -0.797,0.719 z m 1.156,3.531 c -0.375,0 -0.664,-0.14 -0.859,-0.421 -0.2,-0.274 -0.297,-0.664 -0.297,-1.172 0,-0.524 0.097,-0.922 0.297,-1.203 0.195,-0.274 0.484,-0.407 0.859,-0.407 0.375,0 0.66,0.133 0.859,0.407 0.196,0.281 0.297,0.679 0.297,1.203 0,0.519 -0.101,0.914 -0.297,1.187 -0.199,0.27 -0.484,0.406 -0.859,0.406 z m 3.973,3.266 h 1.75 v -7.594 h -1.75 z m 8.754,-4.844 v -0.5 h -4.078 c 0.039,-0.406 0.187,-0.714 0.437,-0.922 0.25,-0.21 0.602,-0.312 1.063,-0.312 0.363,0 0.738,0.051 1.124,0.156 0.395,0.114 0.797,0.285 1.204,0.516 v -1.36 c -0.418,-0.156 -0.836,-0.273 -1.25,-0.343 -0.407,-0.082 -0.821,-0.125 -1.235,-0.125 -0.992,0 -1.761,0.25 -2.312,0.75 -0.543,0.508 -0.813,1.218 -0.813,2.125 0,0.883 0.266,1.582 0.797,2.093 0.539,0.508 1.285,0.766 2.235,0.766 0.851,0 1.535,-0.262 2.046,-0.781 0.52,-0.512 0.782,-1.199 0.782,-2.063 z m -1.797,0.578 c 0,0.333 -0.102,0.598 -0.297,0.797 -0.188,0.207 -0.438,0.313 -0.75,0.313 -0.344,0 -0.621,-0.094 -0.828,-0.281 -0.211,-0.188 -0.34,-0.465 -0.391,-0.829 z m 8.219,-1.953 h 3.218 v -1.375 h -5.297 v 1.375 l 2.657,2.36 c 0.238,0.207 0.414,0.414 0.531,0.625 0.113,0.207 0.172,0.422 0.172,0.64 0,0.344 -0.117,0.618 -0.344,0.828 -0.23,0.208 -0.539,0.313 -0.922,0.313 -0.293,0 -0.617,-0.063 -0.969,-0.188 -0.343,-0.125 -0.714,-0.312 -1.109,-0.562 v 1.609 c 0.426,0.133 0.844,0.239 1.25,0.313 0.414,0.07 0.82,0.109 1.219,0.109 0.875,0 1.551,-0.195 2.031,-0.578 0.488,-0.387 0.734,-0.922 0.734,-1.609 0,-0.399 -0.105,-0.766 -0.312,-1.11 -0.211,-0.343 -0.641,-0.804 -1.297,-1.375 z" /><path
         id="path30"
         style="fill:#000000;fill-opacity:1;fill-rule:nonzero;stroke:none"
         d="m 397.102,201.071 v -1.547 c -0.399,0.176 -0.79,0.312 -1.172,0.406 -0.375,0.094 -0.735,0.141 -1.078,0.141 -0.45,0 -0.782,-0.063 -1,-0.188 -0.211,-0.125 -0.313,-0.32 -0.313,-0.578 0,-0.199 0.07,-0.355 0.219,-0.469 0.144,-0.105 0.406,-0.195 0.781,-0.265 l 0.813,-0.156 c 0.8,-0.168 1.375,-0.418 1.718,-0.75 0.344,-0.336 0.516,-0.809 0.516,-1.422 0,-0.805 -0.242,-1.403 -0.719,-1.797 -0.469,-0.387 -1.199,-0.578 -2.187,-0.578 -0.461,0 -0.922,0.047 -1.391,0.14 -0.461,0.082 -0.922,0.207 -1.391,0.375 v 1.594 c 0.469,-0.25 0.914,-0.437 1.344,-0.562 0.438,-0.125 0.86,-0.188 1.266,-0.188 0.406,0 0.719,0.067 0.937,0.203 0.219,0.133 0.328,0.332 0.328,0.594 0,0.227 -0.074,0.398 -0.218,0.516 -0.149,0.125 -0.446,0.238 -0.891,0.343 l -0.719,0.157 c -0.73,0.156 -1.265,0.406 -1.609,0.75 -0.336,0.343 -0.5,0.8 -0.5,1.375 0,0.726 0.234,1.285 0.703,1.671 0.469,0.395 1.141,0.594 2.016,0.594 0.406,0 0.816,-0.031 1.234,-0.094 0.426,-0.062 0.863,-0.152 1.313,-0.265 z m 4.234,-4.594 c -0.367,0 -0.641,-0.062 -0.828,-0.187 -0.188,-0.125 -0.281,-0.309 -0.281,-0.547 0,-0.231 0.07,-0.407 0.218,-0.532 0.157,-0.125 0.364,-0.187 0.625,-0.187 0.332,0 0.61,0.117 0.828,0.359 0.227,0.239 0.344,0.536 0.344,0.891 v 0.203 z m 2.672,0.656 v -3.125 h -1.766 v 0.813 c -0.242,-0.336 -0.508,-0.578 -0.797,-0.735 -0.293,-0.144 -0.648,-0.218 -1.062,-0.218 -0.574,0 -1.039,0.16 -1.391,0.484 -0.344,0.332 -0.515,0.766 -0.515,1.297 0,0.645 0.218,1.113 0.656,1.406 0.437,0.301 1.129,0.453 2.078,0.453 h 1.031 v 0.141 c 0,0.27 -0.109,0.469 -0.328,0.594 -0.219,0.133 -0.559,0.203 -1.016,0.203 -0.375,0 -0.726,-0.039 -1.046,-0.11 -0.325,-0.074 -0.625,-0.187 -0.907,-0.343 v 1.343 c 0.375,0.083 0.75,0.145 1.125,0.188 0.383,0.051 0.766,0.078 1.141,0.078 0.988,0 1.703,-0.195 2.141,-0.578 0.437,-0.387 0.656,-1.016 0.656,-1.891 z m 6.422,1.438 c 0.218,0.332 0.476,0.586 0.781,0.765 0.312,0.176 0.648,0.266 1.016,0.266 0.625,0 1.097,-0.195 1.421,-0.578 0.332,-0.387 0.5,-0.949 0.5,-1.688 v -3.328 h -1.75 v 2.86 c 0,0.039 0,0.082 0,0.125 0,0.039 0,0.101 0,0.187 0,0.395 -0.058,0.676 -0.171,0.844 -0.106,0.176 -0.289,0.266 -0.547,0.266 -0.336,0 -0.59,-0.137 -0.766,-0.407 -0.18,-0.273 -0.273,-0.668 -0.281,-1.187 v -2.688 h -1.766 v 2.86 c 0,0.601 -0.055,0.988 -0.156,1.156 -0.106,0.176 -0.289,0.266 -0.547,0.266 -0.336,0 -0.594,-0.141 -0.781,-0.422 -0.18,-0.274 -0.266,-0.664 -0.266,-1.172 v -2.688 h -1.765 v 5.469 h 1.765 v -0.797 c 0.207,0.301 0.453,0.531 0.735,0.688 0.281,0.156 0.586,0.234 0.921,0.234 0.375,0 0.707,-0.094 1,-0.281 0.289,-0.18 0.508,-0.43 0.657,-0.75 z m 6.703,-3.766 v -2.875 h -1.75 v 7.547 h 1.75 v -0.797 c 0.238,0.313 0.504,0.539 0.797,0.688 0.289,0.156 0.629,0.234 1.015,0.234 0.664,0 1.211,-0.266 1.641,-0.797 0.437,-0.531 0.656,-1.219 0.656,-2.062 0,-0.844 -0.219,-1.539 -0.656,-2.078 -0.43,-0.532 -0.977,-0.797 -1.641,-0.797 -0.386,0 -0.726,0.074 -1.015,0.218 -0.293,0.157 -0.559,0.395 -0.797,0.719 z m 1.156,3.531 c -0.375,0 -0.664,-0.14 -0.859,-0.421 -0.2,-0.274 -0.297,-0.664 -0.297,-1.172 0,-0.524 0.097,-0.922 0.297,-1.203 0.195,-0.274 0.484,-0.407 0.859,-0.407 0.375,0 0.66,0.133 0.859,0.407 0.196,0.281 0.297,0.679 0.297,1.203 0,0.519 -0.101,0.914 -0.297,1.187 -0.199,0.27 -0.484,0.406 -0.859,0.406 z m 3.973,3.266 h 1.75 v -7.594 h -1.75 z m 8.754,-4.844 v -0.5 h -4.078 c 0.039,-0.406 0.187,-0.714 0.437,-0.922 0.25,-0.21 0.602,-0.312 1.063,-0.312 0.363,0 0.738,0.051 1.124,0.156 0.395,0.114 0.797,0.285 1.204,0.516 v -1.36 c -0.418,-0.156 -0.836,-0.273 -1.25,-0.343 -0.407,-0.082 -0.821,-0.125 -1.235,-0.125 -0.992,0 -1.761,0.25 -2.312,0.75 -0.543,0.508 -0.813,1.218 -0.813,2.125 0,0.883 0.266,1.582 0.797,2.093 0.539,0.508 1.285,0.766 2.235,0.766 0.851,0 1.535,-0.262 2.046,-0.781 0.52,-0.512 0.782,-1.199 0.782,-2.063 z m -1.797,0.578 c 0,0.333 -0.102,0.598 -0.297,0.797 -0.188,0.207 -0.438,0.313 -0.75,0.313 -0.344,0 -0.621,-0.094 -0.828,-0.281 -0.211,-0.188 -0.34,-0.465 -0.391,-0.829 z m 10,0.61 c 0.488,-0.137 0.859,-0.36 1.109,-0.672 0.258,-0.313 0.391,-0.711 0.391,-1.188 0,-0.73 -0.278,-1.281 -0.828,-1.656 -0.555,-0.375 -1.36,-0.562 -2.422,-0.562 -0.375,0 -0.75,0.031 -1.125,0.093 -0.375,0.063 -0.746,0.149 -1.11,0.266 v 1.453 c 0.352,-0.179 0.704,-0.312 1.047,-0.406 0.344,-0.086 0.68,-0.125 1.016,-0.125 0.5,0 0.879,0.082 1.141,0.25 0.269,0.176 0.406,0.426 0.406,0.75 0,0.332 -0.137,0.582 -0.406,0.75 -0.274,0.176 -0.672,0.266 -1.204,0.266 h -0.75 v 1.203 h 0.782 c 0.476,0 0.832,0.07 1.062,0.218 0.227,0.157 0.344,0.383 0.344,0.688 0,0.27 -0.117,0.484 -0.344,0.641 -0.219,0.156 -0.531,0.234 -0.937,0.234 -0.305,0 -0.61,-0.039 -0.922,-0.109 -0.313,-0.063 -0.621,-0.164 -0.922,-0.297 v 1.375 c 0.363,0.101 0.726,0.179 1.094,0.234 0.363,0.051 0.722,0.078 1.078,0.078 0.945,0 1.656,-0.156 2.125,-0.469 0.468,-0.312 0.703,-0.781 0.703,-1.406 0,-0.429 -0.117,-0.777 -0.344,-1.047 -0.219,-0.273 -0.547,-0.461 -0.984,-0.562 z" /><path
         id="path32"
         style="fill:#000000;fill-opacity:1;fill-rule:nonzero;stroke:none"
         d="m 59.93,323.055 v 1.953 h -1.61 v 0.813 h 2.578 v -3.141 c -0.375,-0.261 -0.793,-0.465 -1.25,-0.609 -0.46,-0.133 -0.949,-0.203 -1.468,-0.203 -1.149,0 -2.043,0.332 -2.688,1 -0.637,0.664 -0.953,1.593 -0.953,2.781 0,1.187 0.316,2.113 0.953,2.781 0.645,0.664 1.539,1 2.688,1 0.468,0 0.914,-0.058 1.343,-0.172 0.438,-0.117 0.832,-0.289 1.188,-0.515 v -1.063 c -0.367,0.313 -0.75,0.547 -1.156,0.703 -0.407,0.157 -0.84,0.235 -1.297,0.235 -0.899,0 -1.57,-0.25 -2.016,-0.75 -0.437,-0.492 -0.656,-1.231 -0.656,-2.219 0,-0.992 0.219,-1.734 0.656,-2.234 0.446,-0.493 1.117,-0.735 2.016,-0.735 0.351,0 0.664,0.024 0.937,0.078 0.27,0.063 0.516,0.161 0.735,0.297 z" /><path
         id="path34"
         style="fill:#000000;fill-opacity:1;fill-rule:nonzero;stroke:none"
         d="m 62.168,320.586 h 0.969 v 3.329 l -1.063,-0.204 v 0.532 l 1.047,0.218 h 0.594 v -3.875 h 0.969 v -0.5 h -2.516 z" /><path
         id="path36"
         style="fill:#000000;fill-opacity:1;fill-rule:nonzero;stroke:none"
         d="m 149.07,323.055 v 1.953 h -1.609 v 0.813 h 2.578 v -3.141 c -0.375,-0.261 -0.793,-0.465 -1.25,-0.609 -0.461,-0.133 -0.949,-0.203 -1.469,-0.203 -1.148,0 -2.043,0.332 -2.687,1 -0.637,0.664 -0.953,1.593 -0.953,2.781 0,1.187 0.316,2.113 0.953,2.781 0.644,0.664 1.539,1 2.687,1 0.469,0 0.914,-0.058 1.344,-0.172 0.438,-0.117 0.832,-0.289 1.188,-0.515 v -1.063 c -0.368,0.313 -0.75,0.547 -1.157,0.703 -0.406,0.157 -0.84,0.235 -1.297,0.235 -0.898,0 -1.57,-0.25 -2.015,-0.75 -0.438,-0.492 -0.656,-1.231 -0.656,-2.219 0,-0.992 0.218,-1.734 0.656,-2.234 0.445,-0.493 1.117,-0.735 2.015,-0.735 0.352,0 0.664,0.024 0.938,0.078 0.269,0.063 0.516,0.161 0.734,0.297 z" /><path
         id="path38"
         style="fill:#000000;fill-opacity:1;fill-rule:nonzero;stroke:none"
         d="m 151.719,320.586 h 2.062 v -0.5 H 151 v 0.5 c 0.227,0.227 0.535,0.536 0.922,0.922 0.383,0.395 0.629,0.649 0.734,0.766 0.188,0.219 0.317,0.398 0.391,0.547 0.07,0.144 0.109,0.289 0.109,0.437 0,0.227 -0.086,0.414 -0.25,0.563 -0.156,0.144 -0.367,0.219 -0.625,0.219 -0.187,0 -0.386,-0.032 -0.593,-0.094 -0.2,-0.063 -0.418,-0.164 -0.657,-0.297 v 0.594 c 0.239,0.101 0.461,0.176 0.672,0.218 0.207,0.051 0.395,0.079 0.563,0.079 0.457,0 0.816,-0.118 1.078,-0.344 0.269,-0.219 0.406,-0.524 0.406,-0.906 0,-0.18 -0.039,-0.352 -0.109,-0.516 -0.063,-0.156 -0.184,-0.344 -0.36,-0.563 -0.043,-0.054 -0.199,-0.214 -0.469,-0.484 -0.261,-0.273 -0.624,-0.652 -1.093,-1.141 z" /><path
         id="path40"
         style="fill:#000000;fill-opacity:1;fill-rule:nonzero;stroke:none"
         d="m 237.07,323.055 v 1.953 h -1.609 v 0.813 h 2.578 v -3.141 c -0.375,-0.261 -0.793,-0.465 -1.25,-0.609 -0.461,-0.133 -0.949,-0.203 -1.469,-0.203 -1.148,0 -2.043,0.332 -2.687,1 -0.637,0.664 -0.953,1.593 -0.953,2.781 0,1.187 0.316,2.113 0.953,2.781 0.644,0.664 1.539,1 2.687,1 0.469,0 0.914,-0.058 1.344,-0.172 0.438,-0.117 0.832,-0.289 1.188,-0.515 v -1.063 c -0.368,0.313 -0.75,0.547 -1.157,0.703 -0.406,0.157 -0.84,0.235 -1.297,0.235 -0.898,0 -1.57,-0.25 -2.015,-0.75 -0.438,-0.492 -0.656,-1.231 -0.656,-2.219 0,-0.992 0.218,-1.734 0.656,-2.234 0.445,-0.493 1.117,-0.735 2.015,-0.735 0.352,0 0.664,0.024 0.938,0.078 0.269,0.063 0.516,0.161 0.734,0.297 z" /><path
         id="path42"
         style="fill:#000000;fill-opacity:1;fill-rule:nonzero;stroke:none"
         d="m 239.719,320.586 h 2.062 v -0.5 H 239 v 0.5 c 0.227,0.227 0.535,0.536 0.922,0.922 0.383,0.395 0.629,0.649 0.734,0.766 0.188,0.219 0.317,0.398 0.391,0.547 0.07,0.144 0.109,0.289 0.109,0.437 0,0.227 -0.086,0.414 -0.25,0.563 -0.156,0.144 -0.367,0.219 -0.625,0.219 -0.187,0 -0.386,-0.032 -0.593,-0.094 -0.2,-0.063 -0.418,-0.164 -0.657,-0.297 v 0.594 c 0.239,0.101 0.461,0.176 0.672,0.218 0.207,0.051 0.395,0.079 0.563,0.079 0.457,0 0.816,-0.118 1.078,-0.344 0.269,-0.219 0.406,-0.524 0.406,-0.906 0,-0.18 -0.039,-0.352 -0.109,-0.516 -0.063,-0.156 -0.184,-0.344 -0.36,-0.563 -0.043,-0.054 -0.199,-0.214 -0.469,-0.484 -0.261,-0.273 -0.624,-0.652 -1.093,-1.141 z" /><path
         id="path44"
         style="fill:#000000;fill-opacity:1;fill-rule:nonzero;stroke:none"
         d="m 307.93,323.055 v 1.953 h -1.61 v 0.813 h 2.578 v -3.141 c -0.375,-0.261 -0.793,-0.465 -1.25,-0.609 -0.46,-0.133 -0.949,-0.203 -1.468,-0.203 -1.149,0 -2.043,0.332 -2.688,1 -0.637,0.664 -0.953,1.593 -0.953,2.781 0,1.187 0.316,2.113 0.953,2.781 0.645,0.664 1.539,1 2.688,1 0.468,0 0.914,-0.058 1.343,-0.172 0.438,-0.117 0.832,-0.289 1.188,-0.515 v -1.063 c -0.367,0.313 -0.75,0.547 -1.156,0.703 -0.407,0.157 -0.84,0.235 -1.297,0.235 -0.899,0 -1.57,-0.25 -2.016,-0.75 -0.437,-0.492 -0.656,-1.231 -0.656,-2.219 0,-0.992 0.219,-1.734 0.656,-2.234 0.446,-0.493 1.117,-0.735 2.016,-0.735 0.351,0 0.664,0.024 0.937,0.078 0.27,0.063 0.516,0.161 0.735,0.297 z" /><path
         id="path46"
         style="fill:#000000;fill-opacity:1;fill-rule:nonzero;stroke:none"
         d="m 311.855,322.446 c 0.282,-0.063 0.5,-0.195 0.657,-0.391 0.164,-0.187 0.25,-0.422 0.25,-0.703 0,-0.43 -0.153,-0.762 -0.453,-1 -0.293,-0.23 -0.715,-0.344 -1.266,-0.344 -0.188,0 -0.383,0.024 -0.578,0.063 -0.188,0.031 -0.387,0.078 -0.594,0.14 v 0.579 c 0.164,-0.094 0.348,-0.168 0.547,-0.219 0.195,-0.055 0.398,-0.078 0.609,-0.078 0.375,0 0.657,0.07 0.844,0.218 0.195,0.157 0.297,0.368 0.297,0.641 0,0.258 -0.094,0.461 -0.281,0.609 -0.18,0.145 -0.43,0.219 -0.75,0.219 h -0.5 v 0.485 h 0.531 c 0.289,0 0.508,0.054 0.656,0.171 0.156,0.125 0.235,0.297 0.235,0.516 0,0.219 -0.079,0.383 -0.235,0.5 -0.156,0.125 -0.386,0.188 -0.687,0.188 -0.157,0 -0.328,-0.024 -0.516,-0.063 -0.187,-0.031 -0.391,-0.086 -0.609,-0.156 v 0.531 c 0.218,0.063 0.426,0.109 0.625,0.141 0.195,0.031 0.383,0.047 0.562,0.047 0.446,0 0.801,-0.106 1.063,-0.313 0.258,-0.199 0.39,-0.476 0.39,-0.828 0,-0.242 -0.074,-0.445 -0.218,-0.609 -0.137,-0.168 -0.329,-0.282 -0.579,-0.344 z" /><path
         id="path48"
         style="fill:#000000;fill-opacity:1;fill-rule:nonzero;stroke:none"
         d="m 363.93,323.055 v 1.953 h -1.61 v 0.813 h 2.578 v -3.141 c -0.375,-0.261 -0.793,-0.465 -1.25,-0.609 -0.46,-0.133 -0.949,-0.203 -1.468,-0.203 -1.149,0 -2.043,0.332 -2.688,1 -0.637,0.664 -0.953,1.593 -0.953,2.781 0,1.187 0.316,2.113 0.953,2.781 0.645,0.664 1.539,1 2.688,1 0.468,0 0.914,-0.058 1.343,-0.172 0.438,-0.117 0.832,-0.289 1.188,-0.515 v -1.063 c -0.367,0.313 -0.75,0.547 -1.156,0.703 -0.407,0.157 -0.84,0.235 -1.297,0.235 -0.899,0 -1.57,-0.25 -2.016,-0.75 -0.437,-0.492 -0.656,-1.231 -0.656,-2.219 0,-0.992 0.219,-1.734 0.656,-2.234 0.446,-0.493 1.117,-0.735 2.016,-0.735 0.351,0 0.664,0.024 0.937,0.078 0.27,0.063 0.516,0.161 0.735,0.297 z" /><path
         id="path50"
         style="fill:#000000;fill-opacity:1;fill-rule:nonzero;stroke:none"
         d="m 367.684,323.946 -1.485,-2.328 h 1.485 z m -0.157,0.515 h 0.75 v -2.843 h 0.625 v -0.5 h -0.625 v -1.032 h -0.593 v 1.032 h -1.969 v 0.578 z" /><g
         transform="matrix(1,0,0,-1,0,329.13336)"
         id="g52"><path
           id="path54"
           style="fill:none;stroke:#0800e6;stroke-width:0.80000001;stroke-linecap:butt;stroke-linejoin:miter;stroke-miterlimit:4;stroke-dasharray:none;stroke-opacity:1"
           d="m 15.117,7.125 v -4 h 36" /></g><g
         transform="matrix(1,0,0,-1,0,329.13336)"
         id="g56"><path
           id="path58"
           style="fill:none;stroke:#0800e6;stroke-width:0.80000001;stroke-linecap:butt;stroke-linejoin:miter;stroke-miterlimit:4;stroke-dasharray:none;stroke-opacity:1"
           d="m 67.117,3.125 h 32 v 4" /></g><g
         transform="matrix(1,0,0,-1,0,329.13336)"
         id="g60"><path
           id="path62"
           style="fill:none;stroke:#0800e6;stroke-width:0.80000001;stroke-linecap:butt;stroke-linejoin:miter;stroke-miterlimit:4;stroke-dasharray:none;stroke-opacity:1"
           d="m 103.117,3.125 h 36" /></g><g
         transform="matrix(1,0,0,-1,0,329.13336)"
         id="g64"><path
           id="path66"
           style="fill:none;stroke:#0800e6;stroke-width:0.80000001;stroke-linecap:butt;stroke-linejoin:miter;stroke-miterlimit:4;stroke-dasharray:none;stroke-opacity:1"
           d="m 155.117,3.125 h 40 v 4" /></g><g
         transform="matrix(1,0,0,-1,0,329.13336)"
         id="g68"><path
           id="path70"
           style="fill:none;stroke:#0800e6;stroke-width:0.80000001;stroke-linecap:butt;stroke-linejoin:miter;stroke-miterlimit:4;stroke-dasharray:none;stroke-opacity:1"
           d="m 199.117,3.125 h 28" /></g><g
         transform="matrix(1,0,0,-1,0,329.13336)"
         id="g72"><path
           id="path74"
           style="fill:none;stroke:#0800e6;stroke-width:0.80000001;stroke-linecap:butt;stroke-linejoin:miter;stroke-miterlimit:4;stroke-dasharray:none;stroke-opacity:1"
           d="m 243.117,3.125 h 32 v 4" /></g><g
         transform="matrix(1,0,0,-1,0,329.13336)"
         id="g76"><path
           id="path78"
           style="fill:none;stroke:#0800e6;stroke-width:0.80000001;stroke-linecap:butt;stroke-linejoin:miter;stroke-miterlimit:4;stroke-dasharray:none;stroke-opacity:1"
           d="m 279.117,3.125 h 20" /></g><g
         transform="matrix(1,0,0,-1,0,329.13336)"
         id="g80"><path
           id="path82"
           style="fill:none;stroke:#0800e6;stroke-width:0.80000001;stroke-linecap:butt;stroke-linejoin:miter;stroke-miterlimit:4;stroke-dasharray:none;stroke-opacity:1"
           d="m 315.117,3.125 h 24 v 4" /></g><g
         transform="matrix(1,0,0,-1,0,329.13336)"
         id="g84"><path
           id="path86"
           style="fill:none;stroke:#0800e6;stroke-width:0.80000001;stroke-linecap:butt;stroke-linejoin:miter;stroke-miterlimit:4;stroke-dasharray:none;stroke-opacity:1"
           d="m 343.117,3.125 h 12" /></g><g
         transform="matrix(1,0,0,-1,0,329.13336)"
         id="g88"><path
           id="path90"
           style="fill:none;stroke:#0800e6;stroke-width:0.80000001;stroke-linecap:butt;stroke-linejoin:miter;stroke-miterlimit:4;stroke-dasharray:none;stroke-opacity:1"
           d="m 371.117,3.125 h 16 v 4" /></g><g
         transform="matrix(1,0,0,-1,0,329.13336)"
         id="g92"><path
           id="path94"
           style="fill:none;stroke:#0800e6;stroke-width:0.80000001;stroke-linecap:butt;stroke-linejoin:miter;stroke-miterlimit:4;stroke-dasharray:none;stroke-opacity:1"
           d="m 199.117,3.125 v 4" /></g><g
         transform="matrix(1,0,0,-1,0,329.13336)"
         id="g96"><path
           id="path98"
           style="fill:none;stroke:#0800e6;stroke-width:0.80000001;stroke-linecap:butt;stroke-linejoin:miter;stroke-miterlimit:4;stroke-dasharray:none;stroke-opacity:1"
           d="m 343.117,3.125 v 4" /></g><g
         transform="matrix(1,0,0,-1,0,329.13336)"
         id="g100"><path
           id="path102"
           style="fill:none;stroke:#0800e6;stroke-width:0.80000001;stroke-linecap:butt;stroke-linejoin:miter;stroke-miterlimit:4;stroke-dasharray:none;stroke-opacity:1"
           d="m 279.117,3.125 v 4" /></g><g
         transform="matrix(1,0,0,-1,0,329.13336)"
         id="g104"><path
           id="path106"
           style="fill:none;stroke:#0800e6;stroke-width:0.80000001;stroke-linecap:butt;stroke-linejoin:miter;stroke-miterlimit:4;stroke-dasharray:none;stroke-opacity:1"
           d="m 103.117,3.125 v 4" /></g><g
         transform="matrix(1,0,0,-1,0,329.13336)"
         id="g108"><path
           id="path110"
           style="fill:none;stroke:#0000ff;stroke-width:1.60000002;stroke-linecap:butt;stroke-linejoin:miter;stroke-miterlimit:4;stroke-dasharray:none;stroke-opacity:1"
           d="m 15.117,223.125 h 360 v -40 h 8" /></g><g
         transform="matrix(1,0,0,-1,0,329.13336)"
         id="g112"><path
           id="path114"
           style="fill:none;stroke:#0000ff;stroke-width:1.60000002;stroke-linecap:butt;stroke-linejoin:miter;stroke-miterlimit:4;stroke-dasharray:none;stroke-opacity:1"
           d="m 375.117,223.125 v 40 h 8" /></g><g
         transform="matrix(1,0,0,-1,0,329.13336)"
         id="g116"><path
           id="path118"
           style="fill:none;stroke:#737373;stroke-width:1.60000002;stroke-linecap:butt;stroke-linejoin:miter;stroke-miterlimit:4;stroke-dasharray:9.6, 1.6;stroke-dashoffset:0;stroke-opacity:1"
           d="m 99.117,7.125 v 152" /></g><g
         transform="matrix(1,0,0,-1,0,329.13336)"
         id="g120"><path
           id="path122"
           style="fill:none;stroke:#737373;stroke-width:1.60000002;stroke-linecap:butt;stroke-linejoin:miter;stroke-miterlimit:4;stroke-dasharray:9.6, 1.6;stroke-dashoffset:0;stroke-opacity:1"
           d="m 195.117,7.125 v 152" /></g><g
         transform="matrix(1,0,0,-1,0,329.13336)"
         id="g124"><path
           id="path126"
           style="fill:none;stroke:#737373;stroke-width:1.60000002;stroke-linecap:butt;stroke-linejoin:miter;stroke-miterlimit:4;stroke-dasharray:9.6, 1.6;stroke-dashoffset:0;stroke-opacity:1"
           d="m 275.117,7.125 v 152" /></g><g
         transform="matrix(1,0,0,-1,0,329.13336)"
         id="g128"><path
           id="path130"
           style="fill:none;stroke:#737373;stroke-width:1.60000002;stroke-linecap:butt;stroke-linejoin:miter;stroke-miterlimit:4;stroke-dasharray:9.6, 1.6;stroke-dashoffset:0;stroke-opacity:1"
           d="m 339.117,7.125 v 152" /></g><g
         transform="matrix(1,0,0,-1,0,329.13336)"
         id="g132"><path
           id="path134"
           style="fill:none;stroke:#737373;stroke-width:1.60000002;stroke-linecap:butt;stroke-linejoin:miter;stroke-miterlimit:4;stroke-dasharray:9.6, 1.6;stroke-dashoffset:0;stroke-opacity:1"
           d="m 387.117,7.125 v 152" /></g><g
         transform="matrix(1,0,0,-1,0,329.13336)"
         id="g136"><path
           id="path138"
           style="fill:none;stroke:#737373;stroke-width:1.60000002;stroke-linecap:butt;stroke-linejoin:miter;stroke-miterlimit:4;stroke-dasharray:9.6, 1.6;stroke-dashoffset:0;stroke-opacity:1"
           d="m 99.117,159.125 284,16 v 96" /></g><g
         transform="matrix(1,0,0,-1,0,329.13336)"
         id="g140"><path
           id="path142"
           style="fill:none;stroke:#000000;stroke-width:0.80000001;stroke-linecap:butt;stroke-linejoin:miter;stroke-miterlimit:4;stroke-dasharray:none;stroke-opacity:1"
           d="m 7.117,271.125 v 40 h 376" /></g><g
         transform="matrix(0,-1,-1,0,0,329.13336)"
         id="g144"><path
           id="path146"
           style="fill:#000000;fill-opacity:1;fill-rule:evenodd;stroke:#000000;stroke-width:0.80000001;stroke-linecap:butt;stroke-linejoin:miter;stroke-miterlimit:4;stroke-dasharray:none;stroke-opacity:1"
           d="m 279.125,-7.117 3.199,-3.203 -11.199,3.203 11.199,3.199 z" /></g><g
         transform="matrix(-1,0,0,1,0,329.13336)"
         id="g148"><path
           id="path150"
           style="fill:#000000;fill-opacity:1;fill-rule:evenodd;stroke:#000000;stroke-width:0.80000001;stroke-linecap:butt;stroke-linejoin:miter;stroke-miterlimit:4;stroke-dasharray:none;stroke-opacity:1"
           d="m -375.117,-311.125 3.199,-3.199 -11.199,3.199 11.199,3.199 z" /></g><g
         transform="matrix(1,0,0,-1,0,329.13336)"
         id="g152"><path
           id="path154"
           style="fill:none;stroke:#ff0000;stroke-width:1.60000002;stroke-linecap:butt;stroke-linejoin:miter;stroke-miterlimit:4;stroke-dasharray:none;stroke-opacity:1"
           d="m 15.117,303.125 h 56 v -8 h 56 v -8 h 40 v 8 h 64 v 8 h 32 v -8 h 56 v -8 h 56 v -8 h 8" /></g><path
         id="path156"
         style="fill:#000000;fill-opacity:1;fill-rule:nonzero;stroke:none"
         d="M 0.039,69.305 H 1.914 V 62.008 H 0.039 Z M 6.465,60.696 H 5.012 c -0.492,0.805 -0.856,1.562 -1.094,2.281 -0.242,0.727 -0.359,1.445 -0.359,2.156 0,0.719 0.117,1.442 0.359,2.172 0.238,0.727 0.602,1.492 1.094,2.297 H 6.465 C 6.047,68.829 5.734,68.075 5.527,67.336 5.316,66.594 5.215,65.868 5.215,65.149 c 0,-0.719 0.101,-1.449 0.312,-2.188 0.207,-0.742 0.52,-1.492 0.938,-2.265 z m 3.371,8.328 v -1.547 h 1.797 v -1.25 H 9.836 v -2.312 c 0,-0.262 0.047,-0.438 0.141,-0.532 0.101,-0.086 0.304,-0.125 0.609,-0.125 h 0.906 v -1.25 h -1.5 c -0.699,0 -1.195,0.141 -1.484,0.422 -0.281,0.289 -0.422,0.785 -0.422,1.485 v 2.312 H 7.211 v 1.25 h 0.875 v 1.547 z m 2.641,-8.328 c 0.414,0.773 0.726,1.523 0.937,2.265 0.207,0.739 0.313,1.469 0.313,2.188 0,0.719 -0.106,1.445 -0.313,2.187 -0.211,0.739 -0.523,1.493 -0.937,2.266 h 1.453 c 0.5,-0.805 0.867,-1.57 1.109,-2.297 0.238,-0.73 0.359,-1.453 0.359,-2.172 0,-0.711 -0.121,-1.429 -0.359,-2.156 -0.242,-0.719 -0.609,-1.476 -1.109,-2.281 z" /><path
         id="path158"
         style="fill:#000000;fill-opacity:1;fill-rule:nonzero;stroke:none"
         d="m 380.223,29.442 v -1.547 h 1.797 v -1.25 h -1.797 v -2.312 c 0,-0.262 0.047,-0.438 0.14,-0.532 0.102,-0.086 0.305,-0.125 0.61,-0.125 h 0.906 v -1.25 h -1.5 c -0.699,0 -1.195,0.141 -1.484,0.422 -0.282,0.289 -0.422,0.785 -0.422,1.485 v 2.312 h -0.875 v 1.25 h 0.875 v 1.547 z" /><path
         id="path160"
         style="fill:#000000;fill-opacity:1;fill-rule:nonzero;stroke:none"
         d="M 58.211,9.602 C 57.781,8.852 57.461,8.106 57.242,7.368 57.031,6.637 56.93,5.899 56.93,5.149 c 0,-0.75 0.101,-1.496 0.312,-2.234 0.219,-0.743 0.539,-1.477 0.969,-2.219 H 57.43 c -0.481,0.762 -0.844,1.508 -1.094,2.25 -0.242,0.738 -0.359,1.473 -0.359,2.203 0,0.727 0.117,1.457 0.359,2.187 0.238,0.739 0.602,1.493 1.094,2.266 z m 1.891,-6.766 h 1.625 V 8.399 L 59.961,8.055 v 0.891 l 1.75,0.359 h 0.984 V 2.836 h 1.61 V 2.008 h -4.203 z m 5.363,2.313 h 2.64 V 4.352 h -2.64 z M 70.262,2.836 V -0.07 h -0.907 v 7.547 h 0.907 V 6.649 c 0.187,0.32 0.422,0.562 0.703,0.719 0.289,0.156 0.64,0.234 1.047,0.234 0.664,0 1.203,-0.266 1.609,-0.797 0.414,-0.523 0.625,-1.211 0.625,-2.062 0,-0.867 -0.211,-1.563 -0.625,-2.094 -0.406,-0.523 -0.945,-0.781 -1.609,-0.781 -0.407,0 -0.758,0.078 -1.047,0.234 -0.281,0.156 -0.516,0.399 -0.703,0.734 z m 3.062,1.907 c 0,0.656 -0.14,1.172 -0.422,1.547 -0.273,0.375 -0.64,0.562 -1.109,0.562 -0.481,0 -0.855,-0.187 -1.125,-0.562 -0.273,-0.375 -0.406,-0.891 -0.406,-1.547 0,-0.668 0.133,-1.188 0.406,-1.563 0.27,-0.375 0.644,-0.562 1.125,-0.562 0.469,0 0.836,0.187 1.109,0.562 0.282,0.375 0.422,0.895 0.422,1.563 z" /><path
         id="path162"
         style="fill:#000000;fill-opacity:1;fill-rule:nonzero;stroke:none"
         d="m 77.465,3.243 v -0.5 C 77.316,2.825 77.168,2.887 77.012,2.93 76.855,2.969 76.699,2.993 76.543,2.993 76.199,2.993 75.926,2.876 75.73,2.649 75.543,2.43 75.449,2.122 75.449,1.727 c 0,-0.406 0.094,-0.719 0.281,-0.937 0.196,-0.219 0.469,-0.329 0.813,-0.329 0.156,0 0.312,0.02 0.469,0.063 0.156,0.039 0.304,0.102 0.453,0.187 v -0.5 C 77.316,0.137 77.16,0.086 76.996,0.055 76.84,0.024 76.672,0.008 76.496,0.008 c -0.5,0 -0.898,0.149 -1.187,0.453 -0.293,0.313 -0.438,0.735 -0.438,1.266 0,0.531 0.145,0.945 0.438,1.25 0.3,0.313 0.707,0.469 1.218,0.469 0.164,0 0.328,-0.016 0.485,-0.047 0.156,-0.031 0.304,-0.086 0.453,-0.156 z m 2.359,-0.25 c -0.293,0 -0.523,-0.117 -0.687,-0.344 -0.168,-0.219 -0.25,-0.527 -0.25,-0.922 0,-0.398 0.082,-0.711 0.25,-0.937 0.164,-0.219 0.394,-0.329 0.687,-0.329 0.281,0 0.504,0.11 0.672,0.329 0.164,0.226 0.25,0.539 0.25,0.937 0,0.383 -0.086,0.692 -0.25,0.922 -0.168,0.227 -0.391,0.344 -0.672,0.344 z m 0,0.453 c 0.469,0 0.832,-0.152 1.094,-0.453 0.27,-0.305 0.406,-0.727 0.406,-1.266 0,-0.543 -0.136,-0.965 -0.406,-1.266 -0.262,-0.304 -0.625,-0.453 -1.094,-0.453 -0.48,0 -0.855,0.149 -1.125,0.453 -0.261,0.301 -0.39,0.723 -0.39,1.266 0,0.539 0.129,0.961 0.39,1.266 0.27,0.301 0.645,0.453 1.125,0.453 z m 4.035,-1.703 c -0.437,0 -0.742,-0.055 -0.906,-0.157 -0.168,-0.105 -0.25,-0.277 -0.25,-0.515 0,-0.188 0.063,-0.34 0.188,-0.453 0.125,-0.117 0.297,-0.172 0.515,-0.172 0.289,0 0.524,0.101 0.703,0.312 0.188,0.219 0.282,0.504 0.282,0.86 v 0.125 z m 1.063,0.218 V 0.086 h -0.531 v 0.5 C 84.266,0.387 84.109,0.243 83.922,0.149 83.742,0.055 83.52,0.008 83.25,0.008 c -0.336,0 -0.602,0.094 -0.797,0.282 -0.199,0.187 -0.297,0.437 -0.297,0.75 0,0.375 0.125,0.656 0.375,0.843 0.25,0.188 0.617,0.282 1.11,0.282 h 0.75 v 0.046 c 0,0.25 -0.086,0.442 -0.25,0.579 -0.157,0.132 -0.387,0.203 -0.688,0.203 -0.187,0 -0.371,-0.028 -0.547,-0.078 C 82.727,2.872 82.555,2.809 82.391,2.727 v 0.484 c 0.195,0.083 0.39,0.141 0.578,0.172 0.187,0.039 0.367,0.063 0.547,0.063 0.468,0 0.816,-0.125 1.046,-0.375 0.239,-0.242 0.36,-0.61 0.36,-1.11 z m 1.262,2.688 H 86.73 V 0.086 h -0.546 z" /><path
         id="path164"
         style="fill:#000000;fill-opacity:1;fill-rule:nonzero;stroke:none"
         d="m 88.148,9.602 h 0.782 c 0.488,-0.773 0.851,-1.527 1.093,-2.266 0.25,-0.73 0.375,-1.46 0.375,-2.187 0,-0.73 -0.125,-1.465 -0.375,-2.203 C 89.781,2.204 89.418,1.458 88.93,0.696 h -0.782 c 0.438,0.742 0.758,1.476 0.969,2.219 0.219,0.738 0.328,1.484 0.328,2.234 0,0.75 -0.109,1.488 -0.328,2.219 -0.211,0.738 -0.531,1.484 -0.969,2.234 z" /><path
         id="path166"
         style="fill:#000000;fill-opacity:1;fill-rule:nonzero;stroke:none"
         d="m 110.133,7.383 -2.235,-2.25 2.235,-2.218 -0.578,-0.594 -2.25,2.234 -2.235,-2.234 -0.578,0.594 2.219,2.218 -2.219,2.25 0.578,0.594 2.235,-2.25 2.25,2.25 z m 4.125,2.219 c -0.43,-0.75 -0.75,-1.496 -0.969,-2.234 -0.211,-0.731 -0.312,-1.469 -0.312,-2.219 0,-0.75 0.101,-1.496 0.312,-2.234 0.219,-0.743 0.539,-1.477 0.969,-2.219 h -0.781 c -0.481,0.762 -0.844,1.508 -1.094,2.25 -0.242,0.738 -0.36,1.473 -0.36,2.203 0,0.727 0.118,1.457 0.36,2.187 0.238,0.739 0.601,1.493 1.094,2.266 z m 1.89,-6.766 h 1.625 v 5.563 l -1.765,-0.344 v 0.891 l 1.75,0.359 h 0.984 V 2.836 h 1.61 V 2.008 h -4.204 z m 5.36,2.313 h 2.64 V 4.352 h -2.64 z m 4.797,-2.313 V -0.07 h -0.907 v 7.547 h 0.907 V 6.649 c 0.187,0.32 0.422,0.562 0.703,0.719 0.289,0.156 0.64,0.234 1.047,0.234 0.664,0 1.203,-0.266 1.609,-0.797 0.414,-0.523 0.625,-1.211 0.625,-2.062 0,-0.867 -0.211,-1.563 -0.625,-2.094 -0.406,-0.523 -0.945,-0.781 -1.609,-0.781 -0.407,0 -0.758,0.078 -1.047,0.234 -0.281,0.156 -0.516,0.399 -0.703,0.734 z m 3.062,1.907 c 0,0.656 -0.14,1.172 -0.422,1.547 -0.273,0.375 -0.64,0.562 -1.109,0.562 -0.481,0 -0.856,-0.187 -1.125,-0.562 -0.273,-0.375 -0.406,-0.891 -0.406,-1.547 0,-0.668 0.133,-1.188 0.406,-1.563 0.269,-0.375 0.644,-0.562 1.125,-0.562 0.469,0 0.836,0.187 1.109,0.562 0.282,0.375 0.422,0.895 0.422,1.563 z" /><path
         id="path168"
         style="fill:#000000;fill-opacity:1;fill-rule:nonzero;stroke:none"
         d="m 133.508,3.243 v -0.5 c -0.149,0.082 -0.297,0.144 -0.453,0.187 -0.157,0.039 -0.313,0.063 -0.469,0.063 -0.344,0 -0.617,-0.117 -0.813,-0.344 -0.187,-0.219 -0.281,-0.527 -0.281,-0.922 0,-0.406 0.094,-0.719 0.281,-0.937 0.196,-0.219 0.469,-0.329 0.813,-0.329 0.156,0 0.312,0.02 0.469,0.063 0.156,0.039 0.304,0.102 0.453,0.187 v -0.5 c -0.149,-0.074 -0.305,-0.125 -0.469,-0.156 -0.156,-0.031 -0.324,-0.047 -0.5,-0.047 -0.5,0 -0.898,0.149 -1.187,0.453 -0.293,0.313 -0.438,0.735 -0.438,1.266 0,0.531 0.145,0.945 0.438,1.25 0.3,0.313 0.707,0.469 1.218,0.469 0.164,0 0.328,-0.016 0.485,-0.047 0.156,-0.031 0.304,-0.086 0.453,-0.156 z m 2.359,-0.25 c -0.293,0 -0.523,-0.117 -0.687,-0.344 -0.168,-0.219 -0.25,-0.527 -0.25,-0.922 0,-0.398 0.082,-0.711 0.25,-0.937 0.164,-0.219 0.394,-0.329 0.687,-0.329 0.281,0 0.504,0.11 0.672,0.329 0.164,0.226 0.25,0.539 0.25,0.937 0,0.383 -0.086,0.692 -0.25,0.922 -0.168,0.227 -0.391,0.344 -0.672,0.344 z m 0,0.453 c 0.469,0 0.832,-0.152 1.094,-0.453 0.269,-0.305 0.406,-0.727 0.406,-1.266 0,-0.543 -0.137,-0.965 -0.406,-1.266 -0.262,-0.304 -0.625,-0.453 -1.094,-0.453 -0.48,0 -0.855,0.149 -1.125,0.453 -0.262,0.301 -0.39,0.723 -0.39,1.266 0,0.539 0.128,0.961 0.39,1.266 0.27,0.301 0.645,0.453 1.125,0.453 z m 4.035,-1.703 c -0.437,0 -0.742,-0.055 -0.906,-0.157 -0.168,-0.105 -0.25,-0.277 -0.25,-0.515 0,-0.188 0.063,-0.34 0.188,-0.453 0.125,-0.117 0.296,-0.172 0.515,-0.172 0.289,0 0.524,0.101 0.703,0.312 0.188,0.219 0.282,0.504 0.282,0.86 v 0.125 z m 1.063,0.218 V 0.086 h -0.531 v 0.5 c -0.125,-0.199 -0.282,-0.343 -0.469,-0.437 -0.18,-0.094 -0.403,-0.141 -0.672,-0.141 -0.336,0 -0.602,0.094 -0.797,0.282 -0.199,0.187 -0.297,0.437 -0.297,0.75 0,0.375 0.125,0.656 0.375,0.843 0.25,0.188 0.617,0.282 1.11,0.282 h 0.75 v 0.046 c 0,0.25 -0.086,0.442 -0.25,0.579 -0.157,0.132 -0.387,0.203 -0.688,0.203 -0.187,0 -0.371,-0.028 -0.547,-0.078 -0.179,-0.043 -0.351,-0.106 -0.515,-0.188 v 0.484 c 0.195,0.083 0.39,0.141 0.578,0.172 0.187,0.039 0.367,0.063 0.547,0.063 0.468,0 0.816,-0.125 1.046,-0.375 0.239,-0.242 0.36,-0.61 0.36,-1.11 z m 1.265,2.688 h 0.547 V 0.086 h -0.547 z" /><path
         id="path170"
         style="fill:#000000;fill-opacity:1;fill-rule:nonzero;stroke:none"
         d="m 144.195,9.602 h 0.782 c 0.488,-0.773 0.851,-1.527 1.093,-2.266 0.25,-0.73 0.375,-1.46 0.375,-2.187 0,-0.73 -0.125,-1.465 -0.375,-2.203 -0.242,-0.742 -0.605,-1.488 -1.093,-2.25 h -0.782 c 0.438,0.742 0.758,1.476 0.969,2.219 0.219,0.738 0.328,1.484 0.328,2.234 0,0.75 -0.109,1.488 -0.328,2.219 -0.211,0.738 -0.531,1.484 -0.969,2.234 z" /><path
         id="path172"
         style="fill:#000000;fill-opacity:1;fill-rule:nonzero;stroke:none"
         d="m 246.133,7.383 -2.235,-2.25 2.235,-2.218 -0.578,-0.594 -2.25,2.234 -2.235,-2.234 -0.578,0.594 2.219,2.218 -2.219,2.25 0.578,0.594 2.235,-2.25 2.25,2.25 z m 4.125,2.219 c -0.43,-0.75 -0.75,-1.496 -0.969,-2.234 -0.211,-0.731 -0.312,-1.469 -0.312,-2.219 0,-0.75 0.101,-1.496 0.312,-2.234 0.219,-0.743 0.539,-1.477 0.969,-2.219 h -0.781 c -0.481,0.762 -0.844,1.508 -1.094,2.25 -0.242,0.738 -0.36,1.473 -0.36,2.203 0,0.727 0.118,1.457 0.36,2.187 0.238,0.739 0.601,1.493 1.094,2.266 z m 1.89,-6.766 h 1.625 v 5.563 l -1.765,-0.344 v 0.891 l 1.75,0.359 h 0.984 V 2.836 h 1.61 V 2.008 h -4.204 z m 5.36,2.313 h 2.64 V 4.352 h -2.64 z m 4.797,-2.313 V -0.07 h -0.907 v 7.547 h 0.907 V 6.649 c 0.187,0.32 0.422,0.562 0.703,0.719 0.289,0.156 0.64,0.234 1.047,0.234 0.664,0 1.203,-0.266 1.609,-0.797 0.414,-0.523 0.625,-1.211 0.625,-2.062 0,-0.867 -0.211,-1.563 -0.625,-2.094 -0.406,-0.523 -0.945,-0.781 -1.609,-0.781 -0.407,0 -0.758,0.078 -1.047,0.234 -0.281,0.156 -0.516,0.399 -0.703,0.734 z m 3.062,1.907 c 0,0.656 -0.14,1.172 -0.422,1.547 -0.273,0.375 -0.64,0.562 -1.109,0.562 -0.481,0 -0.856,-0.187 -1.125,-0.562 -0.273,-0.375 -0.406,-0.891 -0.406,-1.547 0,-0.668 0.133,-1.188 0.406,-1.563 0.269,-0.375 0.644,-0.562 1.125,-0.562 0.469,0 0.836,0.187 1.109,0.562 0.282,0.375 0.422,0.895 0.422,1.563 z" /><path
         id="path174"
         style="fill:#000000;fill-opacity:1;fill-rule:nonzero;stroke:none"
         d="m 269.508,3.243 v -0.5 c -0.149,0.082 -0.297,0.144 -0.453,0.187 -0.157,0.039 -0.313,0.063 -0.469,0.063 -0.344,0 -0.617,-0.117 -0.813,-0.344 -0.187,-0.219 -0.281,-0.527 -0.281,-0.922 0,-0.406 0.094,-0.719 0.281,-0.937 0.196,-0.219 0.469,-0.329 0.813,-0.329 0.156,0 0.312,0.02 0.469,0.063 0.156,0.039 0.304,0.102 0.453,0.187 v -0.5 c -0.149,-0.074 -0.305,-0.125 -0.469,-0.156 -0.156,-0.031 -0.324,-0.047 -0.5,-0.047 -0.5,0 -0.898,0.149 -1.187,0.453 -0.293,0.313 -0.438,0.735 -0.438,1.266 0,0.531 0.145,0.945 0.438,1.25 0.3,0.313 0.707,0.469 1.218,0.469 0.164,0 0.328,-0.016 0.485,-0.047 0.156,-0.031 0.304,-0.086 0.453,-0.156 z m 2.359,-0.25 c -0.293,0 -0.523,-0.117 -0.687,-0.344 -0.168,-0.219 -0.25,-0.527 -0.25,-0.922 0,-0.398 0.082,-0.711 0.25,-0.937 0.164,-0.219 0.394,-0.329 0.687,-0.329 0.281,0 0.504,0.11 0.672,0.329 0.164,0.226 0.25,0.539 0.25,0.937 0,0.383 -0.086,0.692 -0.25,0.922 -0.168,0.227 -0.391,0.344 -0.672,0.344 z m 0,0.453 c 0.469,0 0.832,-0.152 1.094,-0.453 0.269,-0.305 0.406,-0.727 0.406,-1.266 0,-0.543 -0.137,-0.965 -0.406,-1.266 -0.262,-0.304 -0.625,-0.453 -1.094,-0.453 -0.48,0 -0.855,0.149 -1.125,0.453 -0.262,0.301 -0.39,0.723 -0.39,1.266 0,0.539 0.128,0.961 0.39,1.266 0.27,0.301 0.645,0.453 1.125,0.453 z m 4.035,-1.703 c -0.437,0 -0.742,-0.055 -0.906,-0.157 -0.168,-0.105 -0.25,-0.277 -0.25,-0.515 0,-0.188 0.063,-0.34 0.188,-0.453 0.125,-0.117 0.296,-0.172 0.515,-0.172 0.289,0 0.524,0.101 0.703,0.312 0.188,0.219 0.282,0.504 0.282,0.86 v 0.125 z m 1.063,0.218 V 0.086 h -0.531 v 0.5 c -0.125,-0.199 -0.282,-0.343 -0.469,-0.437 -0.18,-0.094 -0.403,-0.141 -0.672,-0.141 -0.336,0 -0.602,0.094 -0.797,0.282 -0.199,0.187 -0.297,0.437 -0.297,0.75 0,0.375 0.125,0.656 0.375,0.843 0.25,0.188 0.617,0.282 1.11,0.282 h 0.75 v 0.046 c 0,0.25 -0.086,0.442 -0.25,0.579 -0.157,0.132 -0.387,0.203 -0.688,0.203 -0.187,0 -0.371,-0.028 -0.547,-0.078 -0.179,-0.043 -0.351,-0.106 -0.515,-0.188 v 0.484 c 0.195,0.083 0.39,0.141 0.578,0.172 0.187,0.039 0.367,0.063 0.547,0.063 0.468,0 0.816,-0.125 1.046,-0.375 0.239,-0.242 0.36,-0.61 0.36,-1.11 z m 1.265,2.688 h 0.547 V 0.086 h -0.547 z" /><path
         id="path176"
         style="fill:#000000;fill-opacity:1;fill-rule:nonzero;stroke:none"
         d="m 280.195,9.602 h 0.782 c 0.488,-0.773 0.851,-1.527 1.093,-2.266 0.25,-0.73 0.375,-1.46 0.375,-2.187 0,-0.73 -0.125,-1.465 -0.375,-2.203 -0.242,-0.742 -0.605,-1.488 -1.093,-2.25 h -0.782 c 0.438,0.742 0.758,1.476 0.969,2.219 0.219,0.738 0.328,1.484 0.328,2.234 0,0.75 -0.109,1.488 -0.328,2.219 -0.211,0.738 -0.531,1.484 -0.969,2.234 z" /><path
         id="path178"
         style="fill:#000000;fill-opacity:1;fill-rule:nonzero;stroke:none"
         d="m 302.133,7.383 -2.235,-2.25 2.235,-2.218 -0.578,-0.594 -2.25,2.234 -2.235,-2.234 -0.578,0.594 2.219,2.218 -2.219,2.25 0.578,0.594 2.235,-2.25 2.25,2.25 z m 4.125,2.219 c -0.43,-0.75 -0.75,-1.496 -0.969,-2.234 -0.211,-0.731 -0.312,-1.469 -0.312,-2.219 0,-0.75 0.101,-1.496 0.312,-2.234 0.219,-0.743 0.539,-1.477 0.969,-2.219 h -0.781 c -0.481,0.762 -0.844,1.508 -1.094,2.25 -0.242,0.738 -0.36,1.473 -0.36,2.203 0,0.727 0.118,1.457 0.36,2.187 0.238,0.739 0.601,1.493 1.094,2.266 z m 1.89,-6.766 h 1.625 v 5.563 l -1.765,-0.344 v 0.891 l 1.75,0.359 h 0.984 V 2.836 h 1.61 V 2.008 h -4.204 z m 5.36,2.313 h 2.64 V 4.352 h -2.64 z m 4.797,-2.313 V -0.07 h -0.907 v 7.547 h 0.907 V 6.649 c 0.187,0.32 0.422,0.562 0.703,0.719 0.289,0.156 0.64,0.234 1.047,0.234 0.664,0 1.203,-0.266 1.609,-0.797 0.414,-0.523 0.625,-1.211 0.625,-2.062 0,-0.867 -0.211,-1.563 -0.625,-2.094 -0.406,-0.523 -0.945,-0.781 -1.609,-0.781 -0.407,0 -0.758,0.078 -1.047,0.234 -0.281,0.156 -0.516,0.399 -0.703,0.734 z m 3.062,1.907 c 0,0.656 -0.14,1.172 -0.422,1.547 -0.273,0.375 -0.64,0.562 -1.109,0.562 -0.481,0 -0.856,-0.187 -1.125,-0.562 -0.273,-0.375 -0.406,-0.891 -0.406,-1.547 0,-0.668 0.133,-1.188 0.406,-1.563 0.269,-0.375 0.644,-0.562 1.125,-0.562 0.469,0 0.836,0.187 1.109,0.562 0.282,0.375 0.422,0.895 0.422,1.563 z" /><path
         id="path180"
         style="fill:#000000;fill-opacity:1;fill-rule:nonzero;stroke:none"
         d="m 325.508,3.243 v -0.5 c -0.149,0.082 -0.297,0.144 -0.453,0.187 -0.157,0.039 -0.313,0.063 -0.469,0.063 -0.344,0 -0.617,-0.117 -0.813,-0.344 -0.187,-0.219 -0.281,-0.527 -0.281,-0.922 0,-0.406 0.094,-0.719 0.281,-0.937 0.196,-0.219 0.469,-0.329 0.813,-0.329 0.156,0 0.312,0.02 0.469,0.063 0.156,0.039 0.304,0.102 0.453,0.187 v -0.5 c -0.149,-0.074 -0.305,-0.125 -0.469,-0.156 -0.156,-0.031 -0.324,-0.047 -0.5,-0.047 -0.5,0 -0.898,0.149 -1.187,0.453 -0.293,0.313 -0.438,0.735 -0.438,1.266 0,0.531 0.145,0.945 0.438,1.25 0.3,0.313 0.707,0.469 1.218,0.469 0.164,0 0.328,-0.016 0.485,-0.047 0.156,-0.031 0.304,-0.086 0.453,-0.156 z m 2.359,-0.25 c -0.293,0 -0.523,-0.117 -0.687,-0.344 -0.168,-0.219 -0.25,-0.527 -0.25,-0.922 0,-0.398 0.082,-0.711 0.25,-0.937 0.164,-0.219 0.394,-0.329 0.687,-0.329 0.281,0 0.504,0.11 0.672,0.329 0.164,0.226 0.25,0.539 0.25,0.937 0,0.383 -0.086,0.692 -0.25,0.922 -0.168,0.227 -0.391,0.344 -0.672,0.344 z m 0,0.453 c 0.469,0 0.832,-0.152 1.094,-0.453 0.269,-0.305 0.406,-0.727 0.406,-1.266 0,-0.543 -0.137,-0.965 -0.406,-1.266 -0.262,-0.304 -0.625,-0.453 -1.094,-0.453 -0.48,0 -0.855,0.149 -1.125,0.453 -0.262,0.301 -0.39,0.723 -0.39,1.266 0,0.539 0.128,0.961 0.39,1.266 0.27,0.301 0.645,0.453 1.125,0.453 z m 4.035,-1.703 c -0.437,0 -0.742,-0.055 -0.906,-0.157 -0.168,-0.105 -0.25,-0.277 -0.25,-0.515 0,-0.188 0.063,-0.34 0.188,-0.453 0.125,-0.117 0.296,-0.172 0.515,-0.172 0.289,0 0.524,0.101 0.703,0.312 0.188,0.219 0.282,0.504 0.282,0.86 v 0.125 z m 1.063,0.218 V 0.086 h -0.531 v 0.5 c -0.125,-0.199 -0.282,-0.343 -0.469,-0.437 -0.18,-0.094 -0.403,-0.141 -0.672,-0.141 -0.336,0 -0.602,0.094 -0.797,0.282 -0.199,0.187 -0.297,0.437 -0.297,0.75 0,0.375 0.125,0.656 0.375,0.843 0.25,0.188 0.617,0.282 1.11,0.282 h 0.75 v 0.046 c 0,0.25 -0.086,0.442 -0.25,0.579 -0.157,0.132 -0.387,0.203 -0.688,0.203 -0.187,0 -0.371,-0.028 -0.547,-0.078 -0.179,-0.043 -0.351,-0.106 -0.515,-0.188 v 0.484 c 0.195,0.083 0.39,0.141 0.578,0.172 0.187,0.039 0.367,0.063 0.547,0.063 0.468,0 0.816,-0.125 1.046,-0.375 0.239,-0.242 0.36,-0.61 0.36,-1.11 z m 1.265,2.688 h 0.547 V 0.086 h -0.547 z" /><path
         id="path182"
         style="fill:#000000;fill-opacity:1;fill-rule:nonzero;stroke:none"
         d="m 336.195,9.602 h 0.782 c 0.488,-0.773 0.851,-1.527 1.093,-2.266 0.25,-0.73 0.375,-1.46 0.375,-2.187 0,-0.73 -0.125,-1.465 -0.375,-2.203 -0.242,-0.742 -0.605,-1.488 -1.093,-2.25 h -0.782 c 0.438,0.742 0.758,1.476 0.969,2.219 0.219,0.738 0.328,1.484 0.328,2.234 0,0.75 -0.109,1.488 -0.328,2.219 -0.211,0.738 -0.531,1.484 -0.969,2.234 z" /><g
         transform="matrix(1,0,0,-1,0,329.13336)"
         id="g184"><path
           id="path186"
           style="fill:none;stroke:#0000ff;stroke-width:0.40000001;stroke-linecap:butt;stroke-linejoin:miter;stroke-miterlimit:4;stroke-dasharray:none;stroke-opacity:1"
           d="m 71.117,303.125 v 12" /></g><g
         transform="matrix(1,0,0,-1,0,329.13336)"
         id="g188"><path
           id="path190"
           style="fill:none;stroke:#0000ff;stroke-width:0.40000001;stroke-linecap:butt;stroke-linejoin:miter;stroke-miterlimit:4;stroke-dasharray:none;stroke-opacity:1"
           d="m 127.117,295.125 v 20" /></g><g
         transform="matrix(1,0,0,-1,0,329.13336)"
         id="g192"><path
           id="path194"
           style="fill:none;stroke:#0000ff;stroke-width:0.40000001;stroke-linecap:butt;stroke-linejoin:miter;stroke-miterlimit:4;stroke-dasharray:none;stroke-opacity:1"
           d="m 263.117,303.125 v 12" /></g><g
         transform="matrix(1,0,0,-1,0,329.13336)"
         id="g196"><path
           id="path198"
           style="fill:none;stroke:#0000ff;stroke-width:0.40000001;stroke-linecap:butt;stroke-linejoin:miter;stroke-miterlimit:4;stroke-dasharray:none;stroke-opacity:1"
           d="m 319.117,295.125 v 20" /></g><path
         id="path200"
         style="fill:#000000;fill-opacity:1;fill-rule:nonzero;stroke:none"
         d="m 23.539,7.477 h 0.891 l 1.125,-4.266 1.125,4.266 h 1.062 l 1.125,-4.266 1.11,4.266 h 0.906 L 29.445,2.008 H 28.383 L 27.211,6.493 26.023,2.008 h -1.062 z" /><path
         id="path202"
         style="fill:#000000;fill-opacity:1;fill-rule:nonzero;stroke:none"
         d="m 34.07,13.442 c -0.429,-0.75 -0.75,-1.496 -0.968,-2.234 -0.211,-0.731 -0.313,-1.469 -0.313,-2.219 0,-0.75 0.102,-1.496 0.313,-2.235 0.218,-0.742 0.539,-1.476 0.968,-2.218 h -0.781 c -0.48,0.761 -0.844,1.508 -1.094,2.25 -0.242,0.738 -0.359,1.472 -0.359,2.203 0,0.726 0.117,1.457 0.359,2.187 0.239,0.739 0.602,1.493 1.094,2.266 z m 1.891,-6.766 h 1.625 v 5.563 L 35.82,11.895 v 0.891 l 1.75,0.359 h 0.985 V 6.676 h 1.609 V 5.848 h -4.203 z m 5.672,6.766 h 0.781 c 0.488,-0.773 0.852,-1.527 1.094,-2.266 0.25,-0.73 0.375,-1.461 0.375,-2.187 0,-0.731 -0.125,-1.465 -0.375,-2.203 -0.242,-0.742 -0.606,-1.489 -1.094,-2.25 h -0.781 c 0.437,0.742 0.758,1.476 0.969,2.218 0.218,0.739 0.328,1.485 0.328,2.235 0,0.75 -0.11,1.488 -0.328,2.219 -0.211,0.738 -0.532,1.484 -0.969,2.234 z" /><path
         id="path204"
         style="fill:#000000;fill-opacity:1;fill-rule:nonzero;stroke:none"
         d="m 45.648,6.555 h 6.25 V 5.727 h -6.25 z m 0,-2 h 6.25 V 3.727 h -6.25 z" /></g></g></svg>