<?xml version="1.0" encoding="UTF-8" standalone="no"?>
<svg
   xmlns:dc="http://purl.org/dc/elements/1.1/"
   xmlns:cc="http://creativecommons.org/ns#"
   xmlns:rdf="http://www.w3.org/1999/02/22-rdf-syntax-ns#"
   xmlns:svg="http://www.w3.org/2000/svg"
   xmlns="http://www.w3.org/2000/svg"
   viewBox="0 0 537.90015 221.77785"
   height="221.77785"
   width="537.90015"
   xml:space="preserve"
   id="svg2"
   version="1.1"><metadata
     id="metadata8"><rdf:RDF><cc:Work
         rdf:about=""><dc:format>image/svg+xml</dc:format><dc:type
           rdf:resource="http://purl.org/dc/dcmitype/StillImage" /></cc:Work></rdf:RDF></metadata><defs
     id="defs6" /><g
     transform="matrix(1.3333333,0,0,-1.3333333,0,221.77785)"
     id="g10"><g
       id="g12"><path
         id="path14"
         style="fill:#000000;fill-opacity:1;fill-rule:nonzero;stroke:none"
         d="m 222.328,160.255 v 1.953 h -1.609 v 0.813 h 2.578 v -3.141 c -0.375,-0.261 -0.793,-0.465 -1.25,-0.609 -0.461,-0.133 -0.949,-0.203 -1.469,-0.203 -1.148,0 -2.043,0.332 -2.687,1 -0.637,0.664 -0.953,1.594 -0.953,2.781 0,1.188 0.316,2.113 0.953,2.781 0.644,0.664 1.539,1 2.687,1 0.469,0 0.914,-0.058 1.344,-0.172 0.437,-0.117 0.832,-0.289 1.187,-0.515 v -1.063 c -0.367,0.313 -0.75,0.547 -1.156,0.703 -0.406,0.157 -0.84,0.235 -1.297,0.235 -0.898,0 -1.57,-0.25 -2.015,-0.75 -0.438,-0.492 -0.657,-1.231 -0.657,-2.219 0,-0.992 0.219,-1.734 0.657,-2.234 0.445,-0.493 1.117,-0.735 2.015,-0.735 0.352,0 0.664,0.024 0.938,0.078 0.269,0.063 0.515,0.161 0.734,0.297 z" /><path
         id="path16"
         style="fill:#000000;fill-opacity:1;fill-rule:nonzero;stroke:none"
         d="m 224.57,157.787 h 0.969 v 3.328 l -1.062,-0.203 v 0.531 l 1.046,0.219 h 0.594 v -3.875 h 0.969 v -0.5 h -2.516 z" /><g
         transform="matrix(1,0,0,-1,0,166.33339)"
         id="g18"><path
           id="path20"
           style="fill:none;stroke:#0800e6;stroke-width:0.80000001;stroke-linecap:butt;stroke-linejoin:miter;stroke-miterlimit:4;stroke-dasharray:none;stroke-opacity:1"
           d="m 15.117,8.324 v -4 h 200" /></g><g
         transform="matrix(1,0,0,-1,0,166.33339)"
         id="g22"><path
           id="path24"
           style="fill:none;stroke:#0800e6;stroke-width:0.80000001;stroke-linecap:butt;stroke-linejoin:miter;stroke-miterlimit:4;stroke-dasharray:none;stroke-opacity:1"
           d="m 227.117,4.324 h 156 v 4" /></g><g
         transform="matrix(1,0,0,-1,0,166.33339)"
         id="g26"><path
           id="path28"
           style="fill:none;stroke:#0000ff;stroke-width:1.60000002;stroke-linecap:butt;stroke-linejoin:miter;stroke-miterlimit:4;stroke-dasharray:none;stroke-opacity:1"
           d="m 15.117,60.324 h 360 v -40 h 8" /></g><g
         transform="matrix(1,0,0,-1,0,166.33339)"
         id="g30"><path
           id="path32"
           style="fill:none;stroke:#0000ff;stroke-width:1.60000002;stroke-linecap:butt;stroke-linejoin:miter;stroke-miterlimit:4;stroke-dasharray:none;stroke-opacity:1"
           d="m 375.117,60.324 v 40 h 8" /></g><g
         transform="matrix(1,0,0,-1,0,166.33339)"
         id="g34"><path
           id="path36"
           style="fill:none;stroke:#737373;stroke-width:1.60000002;stroke-linecap:butt;stroke-linejoin:miter;stroke-miterlimit:4;stroke-dasharray:9.6, 1.6;stroke-dashoffset:0;stroke-opacity:1"
           d="m 383.117,12.324 v 96" /></g><g
         transform="matrix(1,0,0,-1,0,166.33339)"
         id="g38"><path
           id="path40"
           style="fill:none;stroke:#000000;stroke-width:0.80000001;stroke-linecap:butt;stroke-linejoin:miter;stroke-miterlimit:4;stroke-dasharray:none;stroke-opacity:1"
           d="m 7.117,108.324 v 40 h 376" /></g><g
         transform="matrix(0,-1,-1,0,0,166.33339)"
         id="g42"><path
           id="path44"
           style="fill:#000000;fill-opacity:1;fill-rule:evenodd;stroke:#000000;stroke-width:0.80000001;stroke-linecap:butt;stroke-linejoin:miter;stroke-miterlimit:4;stroke-dasharray:none;stroke-opacity:1"
           d="m 116.324,-7.117 3.199,-3.203 -11.199,3.203 11.199,3.199 z" /></g><g
         transform="matrix(-1,0,0,1,0,166.33339)"
         id="g46"><path
           id="path48"
           style="fill:#000000;fill-opacity:1;fill-rule:evenodd;stroke:#000000;stroke-width:0.80000001;stroke-linecap:butt;stroke-linejoin:miter;stroke-miterlimit:4;stroke-dasharray:none;stroke-opacity:1"
           d="m -375.117,-148.324 3.199,-3.199 -11.199,3.199 11.199,3.199 z" /></g><path
         id="path50"
         style="fill:#000000;fill-opacity:1;fill-rule:nonzero;stroke:none"
         d="M 0.039,69.306 H 1.914 V 62.009 H 0.039 Z" /><path
         id="path52"
         style="fill:#000000;fill-opacity:1;fill-rule:nonzero;stroke:none"
         d="M 6.465,60.697 H 5.012 c -0.492,0.804 -0.856,1.562 -1.094,2.281 -0.242,0.726 -0.359,1.445 -0.359,2.156 0,0.719 0.117,1.442 0.359,2.172 0.238,0.727 0.602,1.492 1.094,2.297 H 6.465 C 6.047,68.829 5.734,68.076 5.527,67.337 5.316,66.595 5.215,65.869 5.215,65.15 c 0,-0.719 0.101,-1.449 0.312,-2.188 0.207,-0.742 0.52,-1.492 0.938,-2.265 z" /><path
         id="path54"
         style="fill:#000000;fill-opacity:1;fill-rule:nonzero;stroke:none"
         d="m 9.836,69.025 v -1.547 h 1.797 v -1.25 H 9.836 v -2.313 c 0,-0.261 0.047,-0.437 0.141,-0.531 0.101,-0.086 0.304,-0.125 0.609,-0.125 h 0.906 v -1.25 h -1.5 c -0.699,0 -1.195,0.141 -1.484,0.422 -0.281,0.289 -0.422,0.785 -0.422,1.484 v 2.313 H 7.211 v 1.25 h 0.875 v 1.547 z" /><path
         id="path56"
         style="fill:#000000;fill-opacity:1;fill-rule:nonzero;stroke:none"
         d="m 12.477,60.697 c 0.414,0.773 0.726,1.523 0.937,2.265 0.207,0.739 0.313,1.469 0.313,2.188 0,0.719 -0.106,1.445 -0.313,2.187 -0.211,0.739 -0.523,1.492 -0.937,2.266 h 1.453 c 0.5,-0.805 0.867,-1.57 1.109,-2.297 0.238,-0.73 0.359,-1.453 0.359,-2.172 0,-0.711 -0.121,-1.43 -0.359,-2.156 -0.242,-0.719 -0.609,-1.477 -1.109,-2.281 z" /><path
         id="path58"
         style="fill:#000000;fill-opacity:1;fill-rule:nonzero;stroke:none"
         d="m 380.223,29.443 v -1.547 h 1.797 v -1.25 h -1.797 v -2.313 c 0,-0.261 0.047,-0.437 0.14,-0.531 0.102,-0.086 0.305,-0.125 0.61,-0.125 h 0.906 v -1.25 h -1.5 c -0.699,0 -1.195,0.141 -1.484,0.422 -0.282,0.289 -0.422,0.785 -0.422,1.484 v 2.313 h -0.875 v 1.25 h 0.875 v 1.547 z" /><path
         id="path60"
         style="fill:#000000;fill-opacity:1;fill-rule:nonzero;stroke:none"
         d="m 366.133,7.384 -2.235,-2.25 2.235,-2.219 -0.578,-0.593 -2.25,2.234 -2.235,-2.234 -0.578,0.593 2.219,2.219 -2.219,2.25 0.578,0.594 2.235,-2.25 2.25,2.25 z" /><path
         id="path62"
         style="fill:#000000;fill-opacity:1;fill-rule:nonzero;stroke:none"
         d="m 369.008,2.353 v -2.422 h -0.906 v 7.516 c 0,1.476 0.691,2.218 2.078,2.218 1.414,0 2.125,-0.625 2.125,-1.875 0,-0.898 -0.282,-1.507 -0.844,-1.828 0.914,-0.293 1.375,-0.871 1.375,-1.734 0,-1.555 -0.789,-2.328 -2.359,-2.328 -0.688,0 -1.18,0.148 -1.469,0.453 z m 0,1.172 c 0.363,-0.563 0.863,-0.844 1.5,-0.844 0.937,0 1.406,0.508 1.406,1.531 0,0.914 -0.758,1.336 -2.266,1.266 v 0.828 c 1.188,0 1.782,0.52 1.782,1.563 0,0.707 -0.387,1.062 -1.157,1.062 -0.843,0 -1.265,-0.508 -1.265,-1.516 z" /><path
         id="path64"
         style="fill:#000000;fill-opacity:1;fill-rule:nonzero;stroke:none"
         d="M 378.652,9.056 V 8.103 c -0.375,0.176 -0.73,0.305 -1.062,0.391 -0.336,0.093 -0.656,0.14 -0.969,0.14 -0.531,0 -0.945,-0.105 -1.234,-0.312 -0.293,-0.211 -0.438,-0.508 -0.438,-0.891 0,-0.324 0.094,-0.57 0.281,-0.734 0.196,-0.168 0.567,-0.297 1.11,-0.391 l 0.594,-0.125 c 0.726,-0.148 1.269,-0.398 1.625,-0.75 0.351,-0.344 0.531,-0.812 0.531,-1.406 0,-0.711 -0.242,-1.246 -0.719,-1.61 -0.469,-0.367 -1.164,-0.546 -2.078,-0.546 -0.344,0 -0.715,0.043 -1.109,0.125 -0.387,0.07 -0.789,0.187 -1.204,0.343 v 1.016 c 0.407,-0.231 0.797,-0.402 1.172,-0.516 0.383,-0.117 0.766,-0.172 1.141,-0.172 0.562,0 0.992,0.11 1.297,0.329 0.312,0.226 0.469,0.546 0.469,0.953 0,0.351 -0.11,0.629 -0.329,0.828 -0.218,0.207 -0.585,0.363 -1.093,0.469 l -0.594,0.109 c -0.742,0.144 -1.277,0.375 -1.609,0.687 -0.325,0.313 -0.485,0.75 -0.485,1.313 0,0.644 0.223,1.148 0.672,1.516 0.457,0.375 1.086,0.562 1.891,0.562 0.343,0 0.691,-0.031 1.047,-0.094 0.351,-0.062 0.718,-0.156 1.093,-0.281 z" /><path
         id="path66"
         style="fill:#000000;fill-opacity:1;fill-rule:nonzero;stroke:none"
         d="m 380.371,9.306 h 0.984 V 2.009 h -0.984 z" /><path
         id="path68"
         style="fill:#000000;fill-opacity:1;fill-rule:nonzero;stroke:none"
         d="m 384.031,2.837 v -2.906 h -0.906 v 7.547 h 0.906 V 6.65 c 0.188,0.32 0.422,0.562 0.703,0.719 0.289,0.156 0.641,0.234 1.047,0.234 0.664,0 1.203,-0.266 1.61,-0.797 0.414,-0.523 0.625,-1.211 0.625,-2.062 0,-0.868 -0.211,-1.563 -0.625,-2.094 -0.407,-0.524 -0.946,-0.781 -1.61,-0.781 -0.406,0 -0.758,0.078 -1.047,0.234 -0.281,0.156 -0.515,0.398 -0.703,0.734 z m 3.063,1.907 c 0,0.656 -0.141,1.171 -0.422,1.546 -0.274,0.375 -0.641,0.563 -1.11,0.563 -0.48,0 -0.855,-0.188 -1.124,-0.563 -0.274,-0.375 -0.407,-0.89 -0.407,-1.546 0,-0.668 0.133,-1.188 0.407,-1.563 0.269,-0.375 0.644,-0.562 1.124,-0.562 0.469,0 0.836,0.187 1.11,0.562 0.281,0.375 0.422,0.895 0.422,1.563 z" /><path
         id="path70"
         style="fill:#000000;fill-opacity:1;fill-rule:nonzero;stroke:none"
         d="m 391.234,3.244 v -0.5 c -0.148,0.082 -0.296,0.144 -0.453,0.187 -0.156,0.039 -0.312,0.063 -0.469,0.063 -0.343,0 -0.617,-0.118 -0.812,-0.344 -0.188,-0.219 -0.281,-0.528 -0.281,-0.922 0,-0.406 0.093,-0.719 0.281,-0.938 0.195,-0.218 0.469,-0.328 0.812,-0.328 0.157,0 0.313,0.02 0.469,0.063 0.157,0.039 0.305,0.101 0.453,0.187 v -0.5 c -0.148,-0.074 -0.304,-0.125 -0.468,-0.156 -0.157,-0.031 -0.325,-0.047 -0.5,-0.047 -0.5,0 -0.899,0.149 -1.188,0.453 -0.293,0.313 -0.437,0.735 -0.437,1.266 0,0.531 0.144,0.945 0.437,1.25 0.301,0.312 0.707,0.469 1.219,0.469 0.164,0 0.328,-0.016 0.484,-0.047 0.157,-0.031 0.305,-0.086 0.453,-0.156 z" /><path
         id="path72"
         style="fill:#000000;fill-opacity:1;fill-rule:nonzero;stroke:none"
         d="m 393.594,2.994 c -0.293,0 -0.524,-0.118 -0.688,-0.344 -0.168,-0.219 -0.25,-0.528 -0.25,-0.922 0,-0.399 0.082,-0.711 0.25,-0.938 0.164,-0.218 0.395,-0.328 0.688,-0.328 0.281,0 0.504,0.11 0.672,0.328 0.164,0.227 0.25,0.539 0.25,0.938 0,0.383 -0.086,0.691 -0.25,0.922 -0.168,0.226 -0.391,0.344 -0.672,0.344 z m 0,0.453 c 0.468,0 0.832,-0.153 1.094,-0.453 0.269,-0.305 0.406,-0.727 0.406,-1.266 0,-0.543 -0.137,-0.965 -0.406,-1.266 -0.262,-0.304 -0.626,-0.453 -1.094,-0.453 -0.481,0 -0.856,0.149 -1.125,0.453 -0.262,0.301 -0.391,0.723 -0.391,1.266 0,0.539 0.129,0.961 0.391,1.266 0.269,0.3 0.644,0.453 1.125,0.453 z" /><path
         id="path74"
         style="fill:#000000;fill-opacity:1;fill-rule:nonzero;stroke:none"
         d="m 397.625,1.744 c -0.437,0 -0.742,-0.055 -0.906,-0.157 -0.168,-0.105 -0.25,-0.277 -0.25,-0.515 0,-0.188 0.062,-0.34 0.187,-0.453 0.125,-0.118 0.297,-0.172 0.516,-0.172 0.289,0 0.523,0.101 0.703,0.312 0.187,0.219 0.281,0.504 0.281,0.86 v 0.125 z m 1.063,0.218 V 0.087 h -0.532 v 0.5 c -0.125,-0.199 -0.281,-0.343 -0.468,-0.437 -0.18,-0.094 -0.403,-0.141 -0.672,-0.141 -0.336,0 -0.602,0.094 -0.797,0.281 -0.199,0.188 -0.297,0.438 -0.297,0.75 0,0.375 0.125,0.657 0.375,0.844 0.25,0.188 0.617,0.281 1.109,0.281 h 0.75 v 0.047 c 0,0.25 -0.086,0.442 -0.25,0.578 -0.156,0.133 -0.386,0.204 -0.687,0.204 -0.188,0 -0.371,-0.028 -0.547,-0.079 -0.18,-0.043 -0.352,-0.105 -0.516,-0.187 v 0.484 c 0.196,0.082 0.391,0.141 0.578,0.172 0.188,0.039 0.368,0.063 0.547,0.063 0.469,0 0.817,-0.125 1.047,-0.375 0.238,-0.243 0.36,-0.61 0.36,-1.11 z" /><path
         id="path76"
         style="fill:#000000;fill-opacity:1;fill-rule:nonzero;stroke:none"
         d="M 399.953,4.65 H 400.5 V 0.088 h -0.547 z" /><g
         transform="matrix(1,0,0,-1,0,166.33339)"
         id="g78"><path
           id="path80"
           style="fill:none;stroke:#0000ff;stroke-width:0.40000001;stroke-linecap:butt;stroke-linejoin:miter;stroke-miterlimit:4;stroke-dasharray:none;stroke-opacity:1"
           d="m 375.117,124.324 v 28" /></g><g
         transform="matrix(1,0,0,-1,0,166.33339)"
         id="g82"><path
           id="path84"
           style="fill:none;stroke:#ffffff;stroke-width:4;stroke-linecap:butt;stroke-linejoin:miter;stroke-miterlimit:4;stroke-dasharray:none;stroke-opacity:1"
           d="m 15.117,140.324 360,-16" /></g><g
         transform="matrix(1,0,0,-1,0,166.33339)"
         id="g86"><path
           id="path88"
           style="fill:none;stroke:#ff00db;stroke-width:1.60000002;stroke-linecap:butt;stroke-linejoin:miter;stroke-miterlimit:4;stroke-dasharray:none;stroke-opacity:1"
           d="m 15.117,140.324 360,-16 v -8 h 8" /></g><g
         transform="matrix(1,0,0,-1,0,166.33339)"
         id="g90"><path
           id="path92"
           style="fill:none;stroke:#000000;stroke-width:0.80000001;stroke-linecap:butt;stroke-linejoin:miter;stroke-miterlimit:4;stroke-dasharray:none;stroke-opacity:1"
           d="m 391.117,124.324 v 16" /></g><g
         transform="matrix(0,-1,-1,0,0,166.33339)"
         id="g94"><path
           id="path96"
           style="fill:#000000;fill-opacity:1;fill-rule:evenodd;stroke:#000000;stroke-width:0.40000001;stroke-linecap:butt;stroke-linejoin:miter;stroke-miterlimit:4;stroke-dasharray:none;stroke-opacity:1"
           d="m 127.523,-391.117 1.602,-1.602 -5.602,1.602 5.602,1.597 z" /></g><g
         transform="matrix(0,1,1,0,0,166.33339)"
         id="g98"><path
           id="path100"
           style="fill:#000000;fill-opacity:1;fill-rule:evenodd;stroke:#000000;stroke-width:0.40000001;stroke-linecap:butt;stroke-linejoin:miter;stroke-miterlimit:4;stroke-dasharray:none;stroke-opacity:1"
           d="m -137.125,391.117 1.602,-1.597 -5.602,1.597 5.602,1.602 z" /></g><path
         id="path102"
         style="fill:#000000;fill-opacity:1;fill-rule:nonzero;stroke:none"
         d="m 403.43,34.912 v -4.297 h -1.172 v 4.25 c 0,0.675 -0.133,1.179 -0.391,1.515 -0.262,0.332 -0.656,0.5 -1.187,0.5 -0.625,0 -1.121,-0.203 -1.485,-0.609 -0.367,-0.399 -0.547,-0.945 -0.547,-1.641 v -4.015 h -1.171 v 7.109 h 1.171 v -1.109 c 0.282,0.425 0.61,0.742 0.985,0.953 0.375,0.219 0.812,0.328 1.312,0.328 0.813,0 1.426,-0.258 1.844,-0.766 0.426,-0.5 0.641,-1.242 0.641,-2.218 z" /><g
         transform="matrix(1,0,0,-1,0,166.33339)"
         id="g104"><path
           id="path106"
           style="fill:none;stroke:#000000;stroke-width:0.80000001;stroke-linecap:butt;stroke-linejoin:miter;stroke-miterlimit:4;stroke-dasharray:none;stroke-opacity:1"
           d="m 15.117,76.324 h 360" /></g><g
         transform="matrix(1,0,0,-1,0,166.33339)"
         id="g108"><path
           id="path110"
           style="fill:#000000;fill-opacity:1;fill-rule:evenodd;stroke:#000000;stroke-width:0.80000001;stroke-linecap:butt;stroke-linejoin:miter;stroke-miterlimit:4;stroke-dasharray:none;stroke-opacity:1"
           d="M 23.117,76.324 26.32,73.125 15.117,76.324 26.32,79.523 Z" /></g><g
         transform="matrix(-1,0,0,1,0,166.33339)"
         id="g112"><path
           id="path114"
           style="fill:#000000;fill-opacity:1;fill-rule:evenodd;stroke:#000000;stroke-width:0.80000001;stroke-linecap:butt;stroke-linejoin:miter;stroke-miterlimit:4;stroke-dasharray:none;stroke-opacity:1"
           d="m -367.117,-76.324 3.199,-3.199 -11.199,3.199 11.199,3.199 z" /></g><g
         transform="matrix(1,0,0,-1,0,166.33339)"
         id="g116"><path
           id="path118"
           style="fill:#ffffff;fill-opacity:1;fill-rule:nonzero;stroke:#ffffff;stroke-width:1.60000002;stroke-linecap:round;stroke-linejoin:miter;stroke-miterlimit:4;stroke-dasharray:none;stroke-opacity:1"
           d="m 175.117,68.324 h 24 v 16 h -24 z" /></g><path
         id="path120"
         style="fill:#000000;fill-opacity:1;fill-rule:nonzero;stroke:none"
         d="m 187.258,88.88 c 0.156,-0.211 0.461,-0.312 0.922,-0.312 h 0.562 v -0.985 h -0.703 c -0.762,0 -1.312,0.204 -1.656,0.61 -0.356,0.414 -0.531,1.07 -0.531,1.969 v 3.359 h -2.657 v 1.172 h 6.547 v -1.172 h -2.687 v -3.438 c 0,-0.605 0.066,-1.007 0.203,-1.203 z" /><path
         id="path122"
         style="fill:#000000;fill-opacity:1;fill-rule:nonzero;stroke:none"
         d="m 7.945,9.173 h 0.891 l 1.125,-4.265 1.125,4.265 h 1.062 l 1.125,-4.265 1.11,4.265 h 0.906 L 13.852,3.704 H 12.789 L 11.617,8.189 10.43,3.704 H 9.367 Z" /><path
         id="path124"
         style="fill:#000000;fill-opacity:1;fill-rule:nonzero;stroke:none"
         d="m 18.473,15.138 c -0.43,-0.75 -0.75,-1.496 -0.969,-2.234 -0.211,-0.731 -0.313,-1.469 -0.313,-2.219 0,-0.75 0.102,-1.496 0.313,-2.234 0.219,-0.743 0.539,-1.477 0.969,-2.219 h -0.782 c -0.48,0.762 -0.843,1.508 -1.093,2.25 -0.243,0.738 -0.36,1.472 -0.36,2.203 0,0.727 0.117,1.457 0.36,2.187 0.238,0.739 0.601,1.493 1.093,2.266 z" /><path
         id="path126"
         style="fill:#000000;fill-opacity:1;fill-rule:nonzero;stroke:none"
         d="m 20.363,8.372 h 1.625 v 5.563 l -1.765,-0.344 v 0.891 l 1.75,0.359 h 0.984 V 8.372 h 1.609 V 7.544 h -4.203 z" /><path
         id="path128"
         style="fill:#000000;fill-opacity:1;fill-rule:nonzero;stroke:none"
         d="m 26.039,15.138 h 0.781 c 0.489,-0.773 0.852,-1.527 1.094,-2.266 0.25,-0.73 0.375,-1.46 0.375,-2.187 0,-0.731 -0.125,-1.465 -0.375,-2.203 C 27.672,7.74 27.309,6.994 26.82,6.232 h -0.781 c 0.438,0.742 0.758,1.476 0.969,2.219 0.219,0.738 0.328,1.484 0.328,2.234 0,0.75 -0.109,1.488 -0.328,2.219 -0.211,0.738 -0.531,1.484 -0.969,2.234 z" /><path
         id="path130"
         style="fill:#000000;fill-opacity:1;fill-rule:nonzero;stroke:none"
         d="m 30.055,8.251 h 6.25 V 7.423 h -6.25 z m 0,-2 h 6.25 V 5.423 h -6.25 z" /><path
         id="path132"
         style="fill:#000000;fill-opacity:1;fill-rule:nonzero;stroke:none"
         d="M 45.719,6.658 V 6.22 h -4.141 c 0.039,-0.617 0.227,-1.086 0.563,-1.406 0.332,-0.324 0.797,-0.485 1.39,-0.485 0.344,0 0.676,0.04 1,0.125 0.332,0.083 0.657,0.208 0.969,0.375 V 3.986 C 45.176,3.849 44.844,3.744 44.5,3.673 44.164,3.603 43.828,3.564 43.484,3.564 c -0.875,0 -1.57,0.25 -2.078,0.75 -0.511,0.508 -0.765,1.203 -0.765,2.078 0,0.895 0.238,1.602 0.718,2.125 0.489,0.52 1.145,0.781 1.969,0.781 0.738,0 1.32,-0.234 1.75,-0.703 0.426,-0.469 0.641,-1.117 0.641,-1.937 z m -0.907,0.265 c 0,0.489 -0.136,0.879 -0.406,1.172 C 44.133,8.396 43.781,8.548 43.344,8.548 42.832,8.548 42.426,8.4 42.125,8.111 41.832,7.829 41.66,7.431 41.609,6.923 Z" /><path
         id="path134"
         style="fill:#000000;fill-opacity:1;fill-rule:nonzero;stroke:none"
         d="M 51.312,9.173 49.344,6.517 51.422,3.704 H 50.359 L 48.766,5.861 47.172,3.704 h -1.063 l 2.125,2.86 -1.937,2.609 h 1.062 L 48.812,7.22 50.25,9.173 Z" /><path
         id="path136"
         style="fill:#000000;fill-opacity:1;fill-rule:nonzero;stroke:none"
         d="M 53.324,4.533 V 1.626 h -0.906 v 7.547 h 0.906 V 8.345 c 0.188,0.32 0.422,0.563 0.703,0.719 0.289,0.156 0.641,0.234 1.047,0.234 0.664,0 1.203,-0.265 1.61,-0.797 0.414,-0.523 0.625,-1.211 0.625,-2.062 0,-0.867 -0.211,-1.563 -0.625,-2.094 -0.407,-0.523 -0.946,-0.781 -1.61,-0.781 -0.406,0 -0.758,0.078 -1.047,0.234 -0.281,0.156 -0.515,0.399 -0.703,0.735 z m 3.063,1.906 c 0,0.656 -0.141,1.172 -0.422,1.547 -0.274,0.375 -0.641,0.562 -1.11,0.562 C 54.375,8.548 54,8.361 53.73,7.986 53.457,7.611 53.324,7.095 53.324,6.439 c 0,-0.668 0.133,-1.188 0.406,-1.563 0.27,-0.375 0.645,-0.562 1.125,-0.562 0.469,0 0.836,0.187 1.11,0.562 0.281,0.375 0.422,0.895 0.422,1.563 z" /><path
         id="path138"
         style="fill:#000000;fill-opacity:1;fill-rule:nonzero;stroke:none"
         d="M 60.699,11.298 C 60.27,10.548 59.949,9.802 59.73,9.064 59.52,8.333 59.418,7.595 59.418,6.845 c 0,-0.75 0.102,-1.496 0.312,-2.234 0.219,-0.742 0.54,-1.477 0.969,-2.219 h -0.781 c -0.48,0.762 -0.844,1.508 -1.094,2.25 -0.242,0.738 -0.359,1.473 -0.359,2.203 0,0.727 0.117,1.457 0.359,2.188 0.238,0.738 0.602,1.492 1.094,2.265 z" /><path
         id="path140"
         style="fill:#000000;fill-opacity:1;fill-rule:nonzero;stroke:none"
         d="m 61.84,6.845 h 2.641 V 6.048 H 61.84 Z" /><path
         id="path142"
         style="fill:#000000;fill-opacity:1;fill-rule:nonzero;stroke:none"
         d="M 68.449,4.704 C 68.562,4.548 68.797,4.47 69.152,4.47 H 69.59 V 3.704 h -0.547 c -0.586,0 -1.012,0.157 -1.281,0.469 -0.262,0.321 -0.391,0.828 -0.391,1.516 v 2.594 h -2.062 v 0.89 h 5.046 V 8.283 H 68.277 V 5.626 c 0,-0.468 0.055,-0.777 0.172,-0.922 z" /><path
         id="path144"
         style="fill:#000000;fill-opacity:1;fill-rule:nonzero;stroke:none"
         d="m 73.691,10.454 2.532,-6.75 H 75.27 l -1.532,4.047 -1.89,-4.047 h -0.953 l 2.406,5.25 -0.375,0.969 c -0.149,0.406 -0.399,0.61 -0.75,0.61 h -0.469 v 0.765 h 0.578 c 0.727,-0.011 1.195,-0.293 1.406,-0.844 z" /><path
         id="path146"
         style="fill:#000000;fill-opacity:1;fill-rule:nonzero;stroke:none"
         d="m 78.125,4.693 c -0.293,0 -0.523,-0.117 -0.687,-0.344 -0.168,-0.219 -0.25,-0.527 -0.25,-0.922 0,-0.398 0.082,-0.711 0.25,-0.937 0.164,-0.219 0.394,-0.328 0.687,-0.328 0.281,0 0.504,0.109 0.672,0.328 0.164,0.226 0.25,0.539 0.25,0.937 0,0.383 -0.086,0.692 -0.25,0.922 -0.168,0.227 -0.391,0.344 -0.672,0.344 z m 0,0.453 c 0.469,0 0.832,-0.152 1.094,-0.453 0.269,-0.305 0.406,-0.727 0.406,-1.266 0,-0.543 -0.137,-0.965 -0.406,-1.265 -0.262,-0.305 -0.625,-0.454 -1.094,-0.454 -0.48,0 -0.855,0.149 -1.125,0.454 -0.262,0.3 -0.391,0.722 -0.391,1.265 0,0.539 0.129,0.961 0.391,1.266 0.27,0.301 0.645,0.453 1.125,0.453 z" /><path
         id="path148"
         style="fill:#000000;fill-opacity:1;fill-rule:nonzero;stroke:none"
         d="m 83.016,3.427 c 0,0.395 -0.086,0.703 -0.25,0.922 -0.157,0.227 -0.383,0.344 -0.672,0.344 -0.282,0 -0.508,-0.117 -0.672,-0.344 -0.156,-0.219 -0.234,-0.527 -0.234,-0.922 0,-0.398 0.078,-0.711 0.234,-0.937 0.164,-0.231 0.39,-0.344 0.672,-0.344 0.289,0 0.515,0.113 0.672,0.344 0.164,0.226 0.25,0.539 0.25,0.937 z m -1.828,1.141 c 0.101,0.195 0.242,0.344 0.421,0.437 0.176,0.094 0.383,0.141 0.625,0.141 0.395,0 0.719,-0.164 0.969,-0.484 0.25,-0.313 0.375,-0.727 0.375,-1.235 0,-0.523 -0.125,-0.937 -0.375,-1.25 -0.25,-0.312 -0.574,-0.469 -0.969,-0.469 -0.242,0 -0.449,0.047 -0.625,0.141 -0.179,0.094 -0.32,0.238 -0.421,0.438 v -0.5 h -0.547 v 4.562 h 0.547 z" /><path
         id="path150"
         style="fill:#000000;fill-opacity:1;fill-rule:nonzero;stroke:none"
         d="M 86.711,4.974 V 4.458 C 86.555,4.54 86.391,4.599 86.227,4.63 86.07,4.669 85.902,4.693 85.727,4.693 85.453,4.693 85.25,4.65 85.117,4.568 84.992,4.482 84.93,4.365 84.93,4.208 c 0,-0.125 0.047,-0.226 0.14,-0.296 0.094,-0.075 0.285,-0.141 0.578,-0.204 l 0.188,-0.046 c 0.375,-0.086 0.641,-0.2 0.797,-0.344 0.164,-0.149 0.25,-0.356 0.25,-0.625 0,-0.305 -0.121,-0.543 -0.36,-0.719 -0.242,-0.18 -0.57,-0.266 -0.984,-0.266 -0.18,0 -0.367,0.016 -0.562,0.047 -0.188,0.032 -0.387,0.082 -0.594,0.157 v 0.546 c 0.195,-0.105 0.39,-0.183 0.578,-0.234 0.195,-0.055 0.391,-0.078 0.578,-0.078 0.258,0 0.457,0.039 0.594,0.125 0.133,0.094 0.203,0.219 0.203,0.375 0,0.144 -0.055,0.254 -0.156,0.328 -0.094,0.082 -0.309,0.16 -0.641,0.234 l -0.187,0.047 c -0.336,0.071 -0.579,0.18 -0.735,0.328 -0.148,0.145 -0.219,0.344 -0.219,0.594 0,0.313 0.11,0.551 0.329,0.719 0.218,0.164 0.531,0.25 0.937,0.25 0.195,0 0.383,-0.016 0.563,-0.047 0.175,-0.031 0.335,-0.074 0.484,-0.125 z" /><path
         id="path152"
         style="fill:#000000;fill-opacity:1;fill-rule:nonzero;stroke:none"
         d="m 88.105,11.298 h 0.782 C 89.375,10.525 89.738,9.771 89.98,9.033 90.23,8.302 90.355,7.572 90.355,6.845 90.355,6.115 90.23,5.38 89.98,4.642 89.738,3.9 89.375,3.154 88.887,2.392 h -0.782 c 0.438,0.742 0.758,1.477 0.969,2.219 0.219,0.738 0.328,1.484 0.328,2.234 0,0.75 -0.109,1.488 -0.328,2.219 -0.211,0.738 -0.531,1.484 -0.969,2.234 z" /><path
         id="path154"
         style="fill:#000000;fill-opacity:1;fill-rule:nonzero;stroke:none"
         d="m 134.258,54.306 v -4.297 h -1.172 v 4.25 c 0,0.676 -0.133,1.18 -0.391,1.516 -0.261,0.332 -0.656,0.5 -1.187,0.5 -0.625,0 -1.121,-0.203 -1.485,-0.61 -0.367,-0.398 -0.546,-0.945 -0.546,-1.64 v -4.016 h -1.172 v 7.11 h 1.172 v -1.11 c 0.281,0.426 0.609,0.742 0.984,0.953 0.375,0.219 0.812,0.328 1.312,0.328 0.813,0 1.426,-0.257 1.844,-0.765 0.426,-0.5 0.641,-1.242 0.641,-2.219 z" /><path
         id="path156"
         style="fill:#000000;fill-opacity:1;fill-rule:nonzero;stroke:none"
         d="m 149.023,55.197 v -1.125 c -0.449,-0.336 -0.859,-0.575 -1.234,-0.719 -0.375,-0.149 -0.773,-0.219 -1.187,-0.219 -0.461,0 -1,0.125 -1.625,0.375 -0.043,0.008 -0.075,0.02 -0.094,0.031 -0.031,0.02 -0.078,0.039 -0.141,0.063 -0.656,0.258 -1.183,0.391 -1.578,0.391 -0.375,0 -0.746,-0.086 -1.109,-0.25 -0.367,-0.168 -0.758,-0.422 -1.172,-0.766 v 1.125 c 0.445,0.332 0.859,0.57 1.234,0.719 0.383,0.144 0.781,0.218 1.188,0.218 0.468,0 1.007,-0.125 1.625,-0.375 0.039,-0.023 0.07,-0.039 0.093,-0.046 0.039,-0.012 0.086,-0.028 0.141,-0.047 0.656,-0.262 1.188,-0.391 1.594,-0.391 0.351,0 0.707,0.078 1.062,0.234 0.364,0.164 0.766,0.426 1.203,0.782 z" /><path
         id="path158"
         style="fill:#000000;fill-opacity:1;fill-rule:nonzero;stroke:none"
         d="m 157.102,58.431 v -3.562 h 1.609 c 0.594,0 1.051,0.156 1.375,0.468 0.332,0.313 0.5,0.75 0.5,1.313 0,0.57 -0.168,1.008 -0.5,1.312 -0.324,0.313 -0.781,0.469 -1.375,0.469 z m -1.282,1.063 h 2.891 c 1.062,0 1.863,-0.247 2.406,-0.735 0.539,-0.48 0.813,-1.183 0.813,-2.109 0,-0.93 -0.274,-1.633 -0.813,-2.11 -0.543,-0.48 -1.344,-0.718 -2.406,-0.718 h -1.609 v -3.813 h -1.282 z" /><path
         id="path160"
         style="fill:#000000;fill-opacity:1;fill-rule:nonzero;stroke:none"
         d="m 165.914,56.306 c -0.625,0 -1.121,-0.246 -1.484,-0.734 -0.368,-0.493 -0.547,-1.164 -0.547,-2.016 0,-0.855 0.176,-1.527 0.531,-2.016 0.363,-0.48 0.863,-0.718 1.5,-0.718 0.613,0 1.102,0.242 1.469,0.734 0.363,0.488 0.547,1.156 0.547,2 0,0.844 -0.184,1.508 -0.547,2 -0.367,0.5 -0.856,0.75 -1.469,0.75 z m 0,0.984 c 1.008,0 1.805,-0.336 2.391,-1 0.582,-0.656 0.875,-1.57 0.875,-2.734 0,-1.168 -0.293,-2.086 -0.875,-2.75 -0.586,-0.656 -1.383,-0.984 -2.391,-0.984 -1.023,0 -1.824,0.328 -2.406,0.984 -0.574,0.664 -0.86,1.582 -0.86,2.75 0,1.164 0.286,2.078 0.86,2.734 0.582,0.664 1.383,1 2.406,1 z" /><path
         id="path162"
         style="fill:#000000;fill-opacity:1;fill-rule:nonzero;stroke:none"
         d="m 171.094,57.119 h 1.172 v -7.11 h -1.172 z m 0,2.765 h 1.172 V 58.4 h -1.172 z" /><path
         id="path164"
         style="fill:#000000;fill-opacity:1;fill-rule:nonzero;stroke:none"
         d="m 179.23,56.915 v -1.109 c -0.324,0.164 -0.664,0.289 -1.015,0.375 -0.356,0.082 -0.727,0.125 -1.11,0.125 -0.585,0 -1.023,-0.09 -1.312,-0.266 -0.281,-0.179 -0.422,-0.445 -0.422,-0.796 0,-0.274 0.098,-0.485 0.297,-0.641 0.207,-0.149 0.629,-0.293 1.266,-0.438 l 0.39,-0.093 c 0.832,-0.18 1.422,-0.43 1.766,-0.75 0.351,-0.325 0.531,-0.774 0.531,-1.344 0,-0.668 -0.262,-1.195 -0.781,-1.578 -0.524,-0.387 -1.242,-0.578 -2.156,-0.578 -0.387,0 -0.789,0.039 -1.204,0.109 -0.406,0.074 -0.839,0.188 -1.296,0.344 v 1.203 c 0.437,-0.231 0.863,-0.402 1.281,-0.516 0.414,-0.105 0.828,-0.156 1.234,-0.156 0.551,0 0.973,0.094 1.266,0.281 0.301,0.188 0.453,0.453 0.453,0.797 0,0.313 -0.109,0.551 -0.328,0.719 -0.211,0.176 -0.672,0.344 -1.391,0.5 l -0.406,0.094 c -0.731,0.156 -1.258,0.39 -1.578,0.703 -0.324,0.312 -0.485,0.742 -0.485,1.297 0,0.664 0.235,1.179 0.704,1.547 0.476,0.363 1.156,0.546 2.031,0.546 0.426,0 0.832,-0.031 1.219,-0.093 0.382,-0.063 0.734,-0.157 1.046,-0.282 z" /><path
         id="path166"
         style="fill:#000000;fill-opacity:1;fill-rule:nonzero;stroke:none"
         d="m 184.293,59.869 c -0.563,-0.969 -0.984,-1.934 -1.266,-2.891 -0.273,-0.949 -0.406,-1.914 -0.406,-2.891 0,-0.98 0.133,-1.949 0.406,-2.906 0.282,-0.961 0.703,-1.922 1.266,-2.891 h -1.016 c -0.636,1 -1.109,1.977 -1.422,2.938 -0.312,0.957 -0.468,1.91 -0.468,2.859 0,0.946 0.156,1.895 0.468,2.844 0.313,0.957 0.786,1.938 1.422,2.938 z" /><path
         id="path168"
         style="fill:#000000;fill-opacity:1;fill-rule:nonzero;stroke:none"
         d="m 190.043,51.306 c 0.156,-0.211 0.461,-0.312 0.922,-0.312 h 0.562 v -0.985 h -0.703 c -0.762,0 -1.312,0.203 -1.656,0.61 -0.356,0.414 -0.531,1.07 -0.531,1.968 v 3.36 h -2.657 v 1.172 h 6.547 v -1.172 h -2.687 v -3.438 c 0,-0.605 0.066,-1.008 0.203,-1.203 z" /><path
         id="path170"
         style="fill:#000000;fill-opacity:1;fill-rule:nonzero;stroke:none"
         d="m 197.191,58.775 3.282,-8.766 h -1.25 l -1.985,5.25 -2.453,-5.25 h -1.234 l 3.109,6.813 -0.469,1.265 c -0.199,0.532 -0.523,0.797 -0.968,0.797 h -0.61 v 1 l 0.735,-0.015 c 0.957,-0.012 1.57,-0.375 1.843,-1.094 z" /><path
         id="path172"
         style="fill:#000000;fill-opacity:1;fill-rule:nonzero;stroke:none"
         d="m 201.539,49.142 v 2.641 h 0.719 v -2.625 c 0,-0.407 0.078,-0.715 0.234,-0.922 0.164,-0.211 0.41,-0.313 0.735,-0.313 0.382,0 0.687,0.117 0.906,0.36 0.226,0.25 0.344,0.586 0.344,1.015 v 2.485 h 0.718 v -4.375 h -0.718 v 0.671 c -0.18,-0.261 -0.383,-0.46 -0.61,-0.593 -0.23,-0.125 -0.496,-0.188 -0.797,-0.188 -0.5,0 -0.882,0.156 -1.14,0.469 -0.262,0.312 -0.391,0.77 -0.391,1.375 z m 1.797,2.75 z" /><path
         id="path174"
         style="fill:#000000;fill-opacity:1;fill-rule:nonzero;stroke:none"
         d="m 210.609,50.048 v -2.64 h -0.718 v 2.625 c 0,0.406 -0.086,0.711 -0.25,0.921 -0.157,0.208 -0.399,0.313 -0.719,0.313 -0.387,0 -0.695,-0.125 -0.922,-0.375 -0.219,-0.25 -0.328,-0.59 -0.328,-1.016 v -2.468 h -0.719 v 4.375 h 0.719 v -0.672 c 0.164,0.258 0.363,0.453 0.594,0.578 0.238,0.133 0.507,0.203 0.812,0.203 0.508,0 0.891,-0.156 1.141,-0.469 0.258,-0.312 0.39,-0.773 0.39,-1.375 z" /><path
         id="path176"
         style="fill:#000000;fill-opacity:1;fill-rule:nonzero;stroke:none"
         d="m 214.035,51.283 c -0.387,0 -0.695,-0.153 -0.922,-0.454 -0.218,-0.304 -0.328,-0.714 -0.328,-1.234 0,-0.523 0.11,-0.933 0.328,-1.234 0.227,-0.305 0.535,-0.453 0.922,-0.453 0.383,0 0.688,0.148 0.906,0.453 0.227,0.301 0.344,0.711 0.344,1.234 0,0.52 -0.117,0.93 -0.344,1.234 -0.218,0.301 -0.523,0.454 -0.906,0.454 z m 0,0.609 c 0.625,0 1.113,-0.203 1.469,-0.609 0.351,-0.407 0.531,-0.969 0.531,-1.688 0,-0.719 -0.18,-1.281 -0.531,-1.687 -0.356,-0.407 -0.844,-0.61 -1.469,-0.61 -0.625,0 -1.121,0.203 -1.484,0.61 -0.356,0.406 -0.531,0.968 -0.531,1.687 0,0.719 0.175,1.281 0.531,1.688 0.363,0.406 0.859,0.609 1.484,0.609 z" /><path
         id="path178"
         style="fill:#000000;fill-opacity:1;fill-rule:nonzero;stroke:none"
         d="m 220.637,49.595 c 0,0.531 -0.11,0.942 -0.328,1.234 -0.211,0.301 -0.508,0.454 -0.891,0.454 -0.375,0 -0.672,-0.153 -0.891,-0.454 -0.218,-0.292 -0.328,-0.703 -0.328,-1.234 0,-0.531 0.11,-0.949 0.328,-1.25 0.219,-0.305 0.516,-0.453 0.891,-0.453 0.383,0 0.68,0.148 0.891,0.453 0.218,0.301 0.328,0.719 0.328,1.25 z m -2.438,1.531 c 0.145,0.258 0.332,0.453 0.563,0.578 0.238,0.125 0.515,0.188 0.828,0.188 0.531,0 0.961,-0.215 1.297,-0.641 0.332,-0.418 0.5,-0.968 0.5,-1.656 0,-0.687 -0.168,-1.246 -0.5,-1.672 -0.336,-0.418 -0.766,-0.625 -1.297,-0.625 -0.313,0 -0.59,0.063 -0.828,0.188 -0.231,0.125 -0.418,0.316 -0.563,0.578 v -0.656 h -0.719 v 6.078 h 0.719 z" /><path
         id="path180"
         style="fill:#000000;fill-opacity:1;fill-rule:nonzero;stroke:none"
         d="M 225.656,51.658 V 50.97 c -0.211,0.102 -0.422,0.18 -0.64,0.234 -0.219,0.051 -0.446,0.079 -0.672,0.079 -0.356,0 -0.625,-0.059 -0.813,-0.172 -0.179,-0.106 -0.265,-0.266 -0.265,-0.485 0,-0.168 0.062,-0.297 0.187,-0.39 0.133,-0.094 0.395,-0.184 0.781,-0.266 l 0.25,-0.062 c 0.508,-0.106 0.868,-0.258 1.078,-0.454 0.219,-0.199 0.329,-0.48 0.329,-0.843 0,-0.407 -0.164,-0.731 -0.485,-0.969 -0.324,-0.23 -0.765,-0.344 -1.328,-0.344 -0.23,0 -0.476,0.028 -0.734,0.078 -0.25,0.039 -0.516,0.102 -0.797,0.188 v 0.75 c 0.258,-0.137 0.519,-0.242 0.781,-0.313 0.258,-0.074 0.516,-0.109 0.766,-0.109 0.344,0 0.601,0.055 0.781,0.172 0.187,0.125 0.281,0.289 0.281,0.5 0,0.195 -0.07,0.348 -0.203,0.453 -0.137,0.102 -0.422,0.203 -0.859,0.297 l -0.25,0.062 c -0.449,0.094 -0.774,0.235 -0.969,0.422 -0.199,0.196 -0.297,0.461 -0.297,0.797 0,0.414 0.145,0.734 0.438,0.953 0.289,0.227 0.703,0.344 1.234,0.344 0.27,0 0.52,-0.023 0.75,-0.063 0.238,-0.042 0.457,-0.101 0.656,-0.171 z" /><path
         id="path182"
         style="fill:#000000;fill-opacity:1;fill-rule:nonzero;stroke:none"
         d="m 227.562,59.869 h 1.016 c 0.633,-1 1.11,-1.981 1.422,-2.938 0.312,-0.949 0.469,-1.898 0.469,-2.844 0,-0.949 -0.157,-1.902 -0.469,-2.859 -0.312,-0.961 -0.789,-1.938 -1.422,-2.938 h -1.016 c 0.563,0.969 0.977,1.93 1.25,2.891 0.282,0.957 0.422,1.926 0.422,2.906 0,0.977 -0.14,1.942 -0.422,2.891 -0.273,0.957 -0.687,1.922 -1.25,2.891 z" /><path
         id="path184"
         style="fill:#000000;fill-opacity:1;fill-rule:nonzero;stroke:none"
         d="m 241.719,58.165 v -3.546 h 3.531 V 53.54 h -3.531 v -3.531 h -1.078 v 3.531 h -3.532 v 1.079 h 3.532 v 3.546 z" /><path
         id="path186"
         style="fill:#000000;fill-opacity:1;fill-rule:nonzero;stroke:none"
         d="m 253.328,58.431 v -3.562 h 1.61 c 0.593,0 1.05,0.156 1.374,0.468 0.333,0.313 0.5,0.75 0.5,1.313 0,0.57 -0.167,1.008 -0.5,1.312 -0.324,0.313 -0.781,0.469 -1.374,0.469 z m -1.281,1.063 h 2.891 c 1.062,0 1.863,-0.247 2.406,-0.735 0.539,-0.48 0.812,-1.183 0.812,-2.109 0,-0.93 -0.273,-1.633 -0.812,-2.11 -0.543,-0.48 -1.344,-0.718 -2.406,-0.718 h -1.61 v -3.813 h -1.281 z" /><path
         id="path188"
         style="fill:#000000;fill-opacity:1;fill-rule:nonzero;stroke:none"
         d="m 262.137,56.306 c -0.625,0 -1.121,-0.246 -1.485,-0.734 -0.367,-0.493 -0.547,-1.164 -0.547,-2.016 0,-0.855 0.176,-1.527 0.532,-2.016 0.363,-0.48 0.863,-0.718 1.5,-0.718 0.613,0 1.101,0.242 1.468,0.734 0.364,0.488 0.547,1.156 0.547,2 0,0.844 -0.183,1.508 -0.547,2 -0.367,0.5 -0.855,0.75 -1.468,0.75 z m 0,0.984 c 1.008,0 1.804,-0.336 2.39,-1 0.582,-0.656 0.875,-1.57 0.875,-2.734 0,-1.168 -0.293,-2.086 -0.875,-2.75 -0.586,-0.656 -1.382,-0.984 -2.39,-0.984 -1.024,0 -1.825,0.328 -2.407,0.984 -0.574,0.664 -0.859,1.582 -0.859,2.75 0,1.164 0.285,2.078 0.859,2.734 0.582,0.664 1.383,1 2.407,1 z" /><path
         id="path190"
         style="fill:#000000;fill-opacity:1;fill-rule:nonzero;stroke:none"
         d="m 267.32,57.119 h 1.172 v -7.11 h -1.172 z m 0,2.765 h 1.172 V 58.4 h -1.172 z" /><path
         id="path192"
         style="fill:#000000;fill-opacity:1;fill-rule:nonzero;stroke:none"
         d="m 275.457,56.915 v -1.109 c -0.324,0.164 -0.664,0.289 -1.016,0.375 -0.355,0.082 -0.726,0.125 -1.109,0.125 -0.586,0 -1.023,-0.09 -1.312,-0.266 -0.282,-0.179 -0.422,-0.445 -0.422,-0.796 0,-0.274 0.097,-0.485 0.297,-0.641 0.207,-0.149 0.628,-0.293 1.265,-0.438 l 0.391,-0.093 c 0.832,-0.18 1.422,-0.43 1.765,-0.75 0.352,-0.325 0.532,-0.774 0.532,-1.344 0,-0.668 -0.262,-1.195 -0.782,-1.578 -0.523,-0.387 -1.242,-0.578 -2.156,-0.578 -0.387,0 -0.789,0.039 -1.203,0.109 -0.406,0.074 -0.84,0.188 -1.297,0.344 v 1.203 c 0.438,-0.231 0.863,-0.402 1.281,-0.516 0.414,-0.105 0.829,-0.156 1.235,-0.156 0.551,0 0.972,0.094 1.265,0.281 0.301,0.188 0.454,0.453 0.454,0.797 0,0.313 -0.11,0.551 -0.329,0.719 -0.211,0.176 -0.671,0.344 -1.39,0.5 l -0.406,0.094 c -0.731,0.156 -1.258,0.39 -1.579,0.703 -0.324,0.312 -0.484,0.742 -0.484,1.297 0,0.664 0.234,1.179 0.703,1.547 0.477,0.363 1.156,0.546 2.031,0.546 0.426,0 0.832,-0.031 1.219,-0.093 0.383,-0.063 0.735,-0.157 1.047,-0.282 z" /><path
         id="path194"
         style="fill:#000000;fill-opacity:1;fill-rule:nonzero;stroke:none"
         d="m 280.516,59.869 c -0.563,-0.969 -0.985,-1.934 -1.266,-2.891 -0.273,-0.949 -0.406,-1.914 -0.406,-2.891 0,-0.98 0.133,-1.949 0.406,-2.906 0.281,-0.961 0.703,-1.922 1.266,-2.891 H 279.5 c -0.637,1 -1.109,1.977 -1.422,2.938 -0.312,0.957 -0.469,1.91 -0.469,2.859 0,0.946 0.157,1.895 0.469,2.844 0.313,0.957 0.785,1.938 1.422,2.938 z" /><path
         id="path196"
         style="fill:#000000;fill-opacity:1;fill-rule:nonzero;stroke:none"
         d="m 286.266,51.306 c 0.156,-0.211 0.461,-0.312 0.922,-0.312 h 0.562 v -0.985 h -0.703 c -0.762,0 -1.313,0.203 -1.656,0.61 -0.356,0.414 -0.532,1.07 -0.532,1.968 v 3.36 h -2.656 v 1.172 h 6.547 v -1.172 h -2.688 v -3.438 c 0,-0.605 0.067,-1.008 0.204,-1.203 z" /><path
         id="path198"
         style="fill:#000000;fill-opacity:1;fill-rule:nonzero;stroke:none"
         d="m 290.492,47.306 v 9.813 h 1.156 v -4.422 c 0,-0.618 0.145,-1.078 0.438,-1.391 0.301,-0.312 0.734,-0.469 1.297,-0.469 0.625,0 1.094,0.176 1.406,0.532 0.32,0.351 0.484,0.89 0.484,1.609 v 4.141 h 1.172 V 51.65 c 0,-0.262 0.035,-0.453 0.11,-0.578 0.07,-0.118 0.187,-0.172 0.343,-0.172 0.04,0 0.094,0.008 0.157,0.031 0.07,0.031 0.164,0.07 0.281,0.125 v -0.937 c -0.18,-0.106 -0.344,-0.176 -0.5,-0.219 -0.148,-0.051 -0.293,-0.078 -0.438,-0.078 -0.304,0 -0.543,0.086 -0.718,0.25 -0.168,0.164 -0.282,0.414 -0.344,0.75 -0.211,-0.336 -0.469,-0.586 -0.781,-0.75 -0.305,-0.164 -0.664,-0.25 -1.078,-0.25 -0.43,0 -0.793,0.086 -1.094,0.25 -0.305,0.164 -0.547,0.414 -0.735,0.75 v -3.516 z" /><path
         id="path200"
         style="fill:#000000;fill-opacity:1;fill-rule:nonzero;stroke:none"
         d="m 298.707,59.869 h 1.016 c 0.632,-1 1.109,-1.981 1.422,-2.938 0.312,-0.949 0.468,-1.898 0.468,-2.844 0,-0.949 -0.156,-1.902 -0.468,-2.859 -0.313,-0.961 -0.79,-1.938 -1.422,-2.938 h -1.016 c 0.563,0.969 0.977,1.93 1.25,2.891 0.281,0.957 0.422,1.926 0.422,2.906 0,0.977 -0.141,1.942 -0.422,2.891 -0.273,0.957 -0.687,1.922 -1.25,2.891 z" /></g></g></svg>